<svg width="193" height="194" viewBox="0 0 193 194" fill="none" xmlns="http://www.w3.org/2000/svg">
<path d="M44.0879 97.0908L69.6172 51.5581H122.52L148.049 97.0908L122.52 142.887H69.6172L44.0879 97.0908Z" fill="white" stroke="black" stroke-width="2"/>
<g clip-path="url(#clip0_26_837)">
<path d="M90.5249 42.6428C87.9193 47.0739 85.4139 47.8052 82.4361 44.9473C78.919 41.5506 75.7122 37.8267 72.4003 34.2087C71.9554 33.699 71.6119 33.1077 71.3886 32.4671C68.8593 25.4186 72.4098 14.9398 78.6948 10.8166C88.4443 4.38401 104.588 4.50429 114.252 10.9802C118.428 13.7899 120.809 17.5379 121.219 22.7195C121.969 32.1784 122.083 32.1736 115.493 39.3904C113.784 41.262 112.152 43.2394 110.282 44.9185C107.142 47.6994 104.822 47.098 102.088 42.7582C107.905 39.2701 112.563 34.8438 112.672 27.3191C112.754 22.6426 111.293 18.6589 108.086 15.3295C101.501 8.47836 91.088 8.39175 84.6599 15.2477C80.5607 19.6067 79.0527 24.8124 80.4604 30.7398C81.8014 36.4026 85.748 39.9726 90.5249 42.6428Z" fill="black"/>
<path d="M96.0944 12.3896C98.9057 12.3326 101.671 13.1146 104.043 14.6373C106.415 16.16 108.287 18.3555 109.425 20.9479C110.563 23.5403 110.916 26.414 110.438 29.2078C109.961 32.0016 108.676 34.5909 106.743 36.6503C104.811 38.7097 102.318 40.1473 99.5774 40.7825C96.837 41.4177 93.9715 41.2221 91.341 40.2204C88.7105 39.2186 86.4323 37.4554 84.7928 35.1522C83.1533 32.849 82.2256 30.1087 82.1263 27.2755C82.0516 25.3679 82.356 23.4644 83.0215 21.677C83.687 19.8897 84.7002 18.2545 86.0016 16.8676C87.303 15.4807 88.8663 14.3701 90.5995 13.6011C92.3327 12.8321 94.201 12.4202 96.0944 12.3896Z" fill="black"/>
<path d="M74.6626 10.0901C73.4648 7.16487 75.1398 6.56347 76.3233 5.81773C80.5323 3.18119 85.1947 1.77631 90.0671 1.13642C98.9528 -0.0856253 107.519 0.982463 115.493 5.32218C116.925 6.09678 119.082 6.69819 118.28 9.65227C114.367 8.91134 111.427 6.15933 107.748 5.2885C103.968 4.3888 100.208 3.67674 96.2947 3.66712C92.6019 3.7051 88.9285 4.21268 85.3617 5.17784C81.6108 6.13046 78.3276 8.22334 74.6626 10.0901Z" fill="black"/>
</g>
<g clip-path="url(#clip1_26_837)">
<path d="M140.89 65.7136C135.749 65.7186 133.847 63.9315 134.797 59.9151C135.938 55.1604 137.518 50.5069 138.953 45.8167C139.167 45.1746 139.502 44.5784 139.94 44.0608C144.728 38.3031 155.559 36.0415 162.302 39.3626C172.794 44.4959 180.887 58.4655 180.215 70.0788C179.914 75.1028 177.894 79.0573 173.639 82.0417C165.87 87.4898 165.932 87.586 156.369 85.5725C153.889 85.0509 151.357 84.6488 148.96 83.8898C144.97 82.5965 144.311 80.293 146.661 75.7339C152.62 78.9745 158.798 80.7397 165.336 77.0137C169.407 74.7092 172.097 71.4285 173.337 66.9753C175.896 57.8232 170.684 48.8084 161.513 46.7515C155.677 45.4331 150.426 46.777 146.034 50.9994C141.837 55.0299 140.765 60.2424 140.89 65.7136Z" fill="black"/>
<path d="M169.783 55.1517C171.259 57.5447 171.99 60.3241 171.882 63.1406C171.774 65.9571 170.834 68.6851 169.178 70.9817C167.522 73.2782 165.226 75.041 162.576 76.0484C159.927 77.0558 157.044 77.2629 154.288 76.6437C151.533 76.0245 149.029 74.6067 147.09 72.5683C145.152 70.5299 143.865 67.9619 143.393 65.1871C142.92 62.4122 143.282 59.5543 144.434 56.9725C145.586 54.3906 147.476 52.2 149.866 50.676C151.472 49.6431 153.266 48.9388 155.144 48.6047C157.022 48.2705 158.945 48.3132 160.8 48.7302C162.656 49.1472 164.406 49.9301 165.949 51.0328C167.492 52.1356 168.795 53.536 169.783 55.1517Z" fill="black"/>
<path d="M160.882 35.52C162.794 33.0028 164.163 34.1405 165.406 34.7815C169.815 37.069 173.392 40.3724 176.417 44.2451C181.982 51.2799 185.411 59.2019 185.721 68.2753C185.78 69.902 186.357 72.0656 183.405 72.8748C182.057 69.1274 182.935 65.1975 181.817 61.5856C180.673 57.8727 179.378 54.2714 177.399 50.8953C175.491 47.7331 173.189 44.8262 170.546 42.2434C167.821 39.4956 164.351 37.7296 160.882 35.52Z" fill="black"/>
</g>
<g clip-path="url(#clip2_26_837)">
<path d="M52.4129 65.7136C57.5533 65.7186 59.4554 63.9315 58.5053 59.9151C57.3647 55.1604 55.7847 50.5069 54.3493 45.8167C54.136 45.1746 53.801 44.5784 53.3625 44.0608C48.5743 38.3031 37.744 36.0415 31.0007 39.3626C20.5088 44.4959 12.4155 58.4655 13.0881 70.0788C13.3886 75.1028 15.4085 79.0573 19.6642 82.0417C27.4327 87.4898 27.3704 87.586 36.934 85.5725C39.4138 85.0509 41.946 84.6488 44.3424 83.8898C48.3325 82.5965 48.9919 80.293 46.6415 75.7339C40.6829 78.9745 34.5047 80.7397 27.9663 77.0137C23.8962 74.7092 21.2056 71.4285 19.9656 66.9753C17.4069 57.8232 22.6192 48.8084 31.7895 46.7515C37.6261 45.4331 42.8766 46.777 47.2684 50.9994C51.4661 55.0299 52.5379 60.2424 52.4129 65.7136Z" fill="black"/>
<path d="M23.5201 55.1517C22.0436 57.5447 21.3132 60.3241 21.4208 63.1406C21.5284 65.9571 22.4691 68.6851 24.1247 70.9817C25.7804 73.2782 28.0771 75.041 30.7263 76.0484C33.3755 77.0558 36.2589 77.2629 39.0143 76.6437C41.7696 76.0245 44.274 74.6067 46.2126 72.5683C48.1512 70.5299 49.4376 67.9619 49.9102 65.1871C50.3827 62.4122 50.0203 59.5543 48.8685 56.9725C47.7167 54.3906 45.8269 52.2 43.4366 50.676C41.831 49.6431 40.0366 48.9388 38.1588 48.6047C36.2811 48.2705 34.3579 48.3132 32.5023 48.7302C30.6468 49.1472 28.8963 49.9301 27.3537 51.0328C25.8112 52.1356 24.5078 53.536 23.5201 55.1517Z" fill="black"/>
<path d="M32.4205 35.52C30.5086 33.0028 29.14 34.1405 27.8966 34.7815C23.4882 37.069 19.9106 40.3724 16.8855 44.2451C11.3211 51.2799 7.89204 59.2019 7.58199 68.2753C7.52243 69.902 6.94537 72.0656 9.89742 72.8748C11.2459 69.1274 10.3676 65.1975 11.4855 61.5856C12.6293 57.8727 13.9252 54.2714 15.9037 50.8953C17.8114 47.7331 20.1138 44.8262 22.7563 42.2434C25.4814 39.4956 28.9515 37.7296 32.4205 35.52Z" fill="black"/>
</g>
<g clip-path="url(#clip3_26_837)">
<path d="M145.201 120.209C142.475 115.851 142.984 113.291 146.894 111.97C151.532 110.42 156.316 109.296 161.055 108.03C161.712 107.871 162.395 107.84 163.067 107.938C170.486 108.951 178.14 116.941 178.893 124.419C180.094 136.038 172.529 150.3 162.321 155.879C157.9 158.285 153.476 158.665 148.691 156.635C139.956 152.93 139.907 153.034 136.551 143.855C135.681 141.475 134.681 139.114 134.056 136.679C133.04 132.61 134.645 130.831 139.757 130.41C140.163 137.181 141.937 143.357 148.56 146.93C152.67 149.163 156.878 149.708 161.312 148.402C170.431 145.726 175.318 136.531 172.207 127.663C170.235 122.013 166.315 118.271 160.407 116.781C154.766 115.355 149.776 117.206 145.201 120.209Z" fill="black"/>
<path d="M169.459 139.124C168.211 141.644 166.24 143.735 163.794 145.135C161.348 146.535 158.535 147.182 155.711 146.993C152.886 146.805 150.174 145.79 147.917 144.076C145.659 142.362 143.957 140.026 143.023 137.361C142.089 134.696 141.966 131.82 142.669 129.096C143.371 126.372 144.869 123.921 146.972 122.051C149.076 120.181 151.692 118.975 154.492 118.585C157.292 118.195 160.151 118.638 162.71 119.859C164.436 120.674 165.984 121.823 167.262 123.239C168.539 124.655 169.522 126.309 170.15 128.104C170.779 129.899 171.042 131.799 170.923 133.691C170.805 135.584 170.307 137.431 169.459 139.124Z" fill="black"/>
<path d="M181.401 121.179C184.549 121.468 184.308 123.231 184.423 124.625C184.817 129.576 183.909 134.36 182.226 138.977C179.204 147.422 174.3 154.526 166.767 159.593C165.419 160.505 163.889 162.141 161.639 160.065C164.104 156.937 167.903 155.601 170.375 152.74C172.919 149.803 175.288 146.797 177.104 143.331C178.776 140.038 180.023 136.546 180.815 132.937C181.703 129.17 181.364 125.291 181.401 121.179Z" fill="black"/>
</g>
<g clip-path="url(#clip4_26_837)">
<path d="M46.9355 120.261C49.6617 115.903 49.1528 113.343 45.2425 112.022C40.6052 110.472 35.821 109.348 31.0822 108.083C30.4246 107.923 29.7415 107.892 29.0702 107.99C21.6505 109.003 13.9972 116.993 13.2438 124.472C12.0428 136.09 19.6077 150.353 29.8155 155.932C34.2365 158.337 38.6606 158.717 43.4458 156.688C52.1809 152.982 52.2296 153.086 55.5855 143.907C56.4561 141.527 57.4559 139.166 58.0809 136.732C59.0966 132.662 57.4918 130.883 52.3797 130.463C51.9735 137.233 50.1995 143.409 43.5766 146.982C39.4665 149.215 35.2588 149.76 30.8245 148.454C21.7059 145.778 16.8186 136.583 19.9295 127.715C21.9017 122.066 25.822 118.323 31.7293 116.834C37.3711 115.407 42.3604 117.258 46.9355 120.261Z" fill="black"/>
<path d="M22.6774 139.176C23.9256 141.696 25.8966 143.787 28.3429 145.188C30.7891 146.588 33.6013 147.234 36.4262 147.046C39.2511 146.857 41.9626 145.842 44.2199 144.128C46.4773 142.415 48.1798 140.078 49.1135 137.413C50.0473 134.748 50.1706 131.873 49.4679 129.149C48.7652 126.425 47.268 123.974 45.1643 122.104C43.0607 120.233 40.4444 119.027 37.6443 118.637C34.8442 118.247 31.9853 118.691 29.4267 119.911C27.7003 120.726 26.1527 121.876 24.875 123.292C23.5972 124.708 22.6151 126.362 21.9863 128.157C21.3575 129.951 21.0947 131.851 21.2134 133.743C21.332 135.636 21.8298 137.483 22.6774 139.176Z" fill="black"/>
<path d="M10.7356 121.231C7.58787 121.52 7.82831 123.283 7.71367 124.677C7.31981 129.628 8.22775 134.412 9.91116 139.029C12.9323 147.475 17.8369 154.578 25.3697 159.646C26.7181 160.558 28.2479 162.193 30.4975 160.117C28.0326 156.989 24.2338 155.653 21.7617 152.792C19.2177 149.856 16.849 146.85 15.0326 143.383C13.3603 140.091 12.1135 136.598 11.3217 132.989C10.4337 129.222 10.7731 125.344 10.7356 121.231Z" fill="black"/>
</g>
<g clip-path="url(#clip5_26_837)">
<path d="M90.5249 151.802C87.9193 147.371 85.4139 146.64 82.4361 149.497C78.919 152.894 75.7122 156.618 72.4003 160.236C71.9554 160.746 71.6119 161.337 71.3886 161.978C68.8593 169.026 72.4098 179.505 78.6948 183.628C88.4443 190.061 104.588 189.941 114.252 183.465C118.428 180.655 120.809 176.907 121.219 171.725C121.969 162.266 122.083 162.271 115.493 155.054C113.784 153.183 112.152 151.205 110.282 149.526C107.142 146.745 104.822 147.347 102.088 151.687C107.905 155.175 112.563 159.601 112.672 167.126C112.754 171.802 111.293 175.786 108.086 179.115C101.501 185.966 91.088 186.053 84.6599 179.197C80.5607 174.838 79.0527 169.632 80.4604 163.705C81.8014 158.042 85.748 154.472 90.5249 151.802Z" fill="black"/>
<path d="M96.0944 182.055C98.9057 182.112 101.671 181.33 104.043 179.808C106.415 178.285 108.287 176.089 109.425 173.497C110.563 170.904 110.916 168.031 110.438 165.237C109.961 162.443 108.676 159.854 106.743 157.795C104.811 155.735 102.318 154.298 99.5774 153.662C96.837 153.027 93.9715 153.223 91.341 154.224C88.7105 155.226 86.4323 156.989 84.7928 159.293C83.1533 161.596 82.2256 164.336 82.1263 167.169C82.0516 169.077 82.356 170.98 83.0215 172.768C83.687 174.555 84.7002 176.19 86.0016 177.577C87.303 178.964 88.8663 180.075 90.5995 180.844C92.3327 181.613 94.201 182.025 96.0944 182.055Z" fill="black"/>
<path d="M74.6626 184.355C73.4648 187.28 75.1398 187.881 76.3233 188.627C80.5323 191.264 85.1947 192.669 90.0671 193.308C98.9528 194.53 107.519 193.462 115.493 189.123C116.925 188.348 119.082 187.747 118.28 184.793C114.367 185.533 111.427 188.285 107.748 189.156C103.968 190.056 100.208 190.768 96.2947 190.778C92.6019 190.74 88.9285 190.232 85.3617 189.267C81.6108 188.314 78.3276 186.221 74.6626 184.355Z" fill="black"/>
</g>
<defs>
<clipPath id="clip0_26_837">
<rect width="51" height="46" fill="white" transform="translate(70.5684 0.655273)"/>
</clipPath>
<clipPath id="clip1_26_837">
<rect width="51" height="46" fill="white" transform="translate(166.932 27.2026) rotate(59.4872)"/>
</clipPath>
<clipPath id="clip2_26_837">
<rect width="51" height="46" fill="white" transform="matrix(-0.507731 0.861516 0.861516 0.507731 26.3711 27.2026)"/>
</clipPath>
<clipPath id="clip3_26_837">
<rect width="51" height="46" fill="white" transform="translate(191.66 121.906) rotate(117.515)"/>
</clipPath>
<clipPath id="clip4_26_837">
<rect width="51" height="46" fill="white" transform="matrix(0.461976 0.886892 0.886892 -0.461976 0.476562 121.958)"/>
</clipPath>
<clipPath id="clip5_26_837">
<rect width="51" height="46" fill="white" transform="matrix(1 0 0 -1 70.5684 193.79)"/>
</clipPath>
</defs>
</svg>
