<svg width="281" height="182" viewBox="0 0 281 182" fill="none" xmlns="http://www.w3.org/2000/svg">
<g clip-path="url(#clip0_26_839)">
<path d="M43.443 86.2929C47.9371 83.7975 48.73 81.3109 45.9466 78.2634C42.6378 74.6635 38.9942 71.3657 35.459 67.9655C34.9604 67.5081 34.3778 67.1501 33.7429 66.9111C26.7591 64.2086 16.1958 67.4992 11.9186 73.6804C5.24726 83.2681 4.96885 99.4103 11.2041 109.231C13.9099 113.475 17.5979 115.948 22.7679 116.486C32.2053 117.469 32.1977 117.583 39.5751 111.173C41.4882 109.511 43.5053 107.928 45.2301 106.1C48.0877 103.029 47.5438 100.696 43.2729 97.8551C39.6422 103.584 35.1022 108.131 27.577 108.055C22.9 108.021 18.9536 106.463 15.7044 103.175C9.01795 96.4218 9.1885 86.01 16.2011 79.7532C20.66 75.7628 25.9013 74.3838 31.7922 75.9375C37.4201 77.4179 40.8915 81.4514 43.443 86.2929Z" fill="black"/>
<path d="M13.064 91.1131C12.9375 93.9222 13.651 96.706 15.1147 99.1147C16.5783 101.523 18.7269 103.45 21.2905 104.651C23.854 105.853 26.7181 106.276 29.5228 105.868C32.3275 105.46 34.9478 104.239 37.0543 102.358C39.1608 100.477 40.6595 98.0201 41.3622 95.2962C42.0649 92.5723 41.9401 89.7028 41.0036 87.0484C40.0671 84.394 38.3607 82.073 36.0987 80.3771C33.8367 78.6813 31.1201 77.6862 28.2902 77.5169C26.385 77.3951 24.4746 77.6524 22.6713 78.2736C20.8681 78.8948 19.2084 79.8673 17.7898 81.134C16.3712 82.4008 15.2223 83.9361 14.4108 85.6498C13.5992 87.3636 13.1413 89.2211 13.064 91.1131Z" fill="black"/>
<path d="M11.2914 69.631C8.39664 68.3613 7.75406 70.021 6.97932 71.1857C4.23965 75.3284 2.72007 79.9547 1.96006 84.8097C0.518967 93.6626 1.37521 102.252 5.51669 110.331C6.25571 111.782 6.80366 113.953 9.77664 113.224C9.13257 109.294 6.45398 106.287 5.67427 102.588C4.86818 98.7871 4.2492 95.0102 4.33621 91.098C4.46536 87.4072 5.0635 83.7475 6.11644 80.2056C7.16139 76.4794 9.3347 73.2488 11.2914 69.631Z" fill="black"/>
</g>
<g clip-path="url(#clip1_26_839)">
<path d="M237.891 86.1918C233.397 83.6964 232.604 81.2098 235.387 78.1624C238.696 74.5625 242.34 71.2646 245.875 67.8644C246.374 67.407 246.956 67.0491 247.591 66.81C254.575 64.1075 265.138 67.3981 269.415 73.5793C276.087 83.167 276.365 99.3093 270.13 109.13C267.424 113.374 263.736 115.847 258.566 116.385C249.129 117.368 249.136 117.482 241.759 111.072C239.846 109.41 237.829 107.827 236.104 105.999C233.246 102.928 233.79 100.595 238.061 97.754C241.692 103.483 246.232 108.03 253.757 107.954C258.434 107.92 262.38 106.362 265.63 103.073C272.316 96.3208 272.145 85.909 265.133 79.6521C260.674 75.6617 255.433 74.2827 249.542 75.8365C243.914 77.3169 240.442 81.3504 237.891 86.1918Z" fill="black"/>
<path d="M268.27 91.0121C268.396 93.8211 267.683 96.6049 266.219 99.0137C264.756 101.422 262.607 103.349 260.044 104.55C257.48 105.752 254.616 106.175 251.811 105.767C249.006 105.359 246.386 104.138 244.28 102.257C242.173 100.376 240.674 97.919 239.972 95.1951C239.269 92.4712 239.394 89.6018 240.33 86.9473C241.267 84.2929 242.973 81.9719 245.235 80.276C247.497 78.5802 250.214 77.5851 253.044 77.4158C254.949 77.2941 256.859 77.5513 258.663 78.1725C260.466 78.7937 262.126 79.7662 263.544 81.033C264.963 82.2997 266.112 83.835 266.923 85.5488C267.735 87.2625 268.193 89.12 268.27 91.0121Z" fill="black"/>
<path d="M270.043 69.53C272.937 68.2603 273.58 69.9199 274.355 71.0847C277.094 75.2273 278.614 79.8536 279.374 84.7087C280.815 93.5615 279.959 102.151 275.817 110.23C275.078 111.681 274.53 113.852 271.557 113.123C272.201 109.193 274.88 106.186 275.66 102.487C276.466 98.686 277.085 94.9091 276.998 90.9969C276.869 87.3061 276.27 83.6464 275.218 80.1046C274.173 76.3783 271.999 73.1478 270.043 69.53Z" fill="black"/>
</g>
<g clip-path="url(#clip2_26_839)">
<path d="M210.013 56.3289C210.786 61.4108 212.841 63.0204 216.667 61.473C221.194 59.6257 225.555 57.3594 229.974 55.2303C230.576 54.9223 231.115 54.5009 231.56 53.9891C236.526 48.3843 237.122 37.3364 232.818 31.1737C226.155 21.58 211.122 15.6952 199.744 18.1184C194.823 19.1761 191.22 21.7714 188.915 26.4299C184.706 34.9338 184.601 34.8868 188.039 44.0352C188.93 46.4074 189.711 48.8496 190.824 51.1034C192.707 54.8517 195.084 55.1548 199.234 52.1412C195.129 46.7419 192.449 40.9022 195.142 33.875C196.803 29.503 199.639 26.3467 203.853 24.4467C212.512 20.5318 222.212 24.3191 225.634 33.0722C227.821 38.6419 227.287 44.0353 223.779 49.0158C220.43 53.7754 215.44 55.624 210.013 56.3289Z" fill="black"/>
<path d="M216.08 26.1727C213.491 25.0755 210.633 24.7743 207.866 25.3071C205.098 25.8399 202.544 27.1828 200.524 29.1671C198.505 31.1514 197.11 33.6886 196.516 36.4597C195.921 39.2309 196.153 42.1125 197.182 44.7423C198.211 47.3721 199.992 49.6329 202.3 51.2406C204.609 52.8482 207.342 53.731 210.156 53.7779C212.971 53.8249 215.741 53.034 218.119 51.5045C220.496 49.9751 222.375 47.7754 223.52 45.1818C224.298 43.4384 224.722 41.558 224.768 39.6513C224.814 37.7447 224.481 35.8501 223.788 34.0791C223.095 32.308 222.056 30.6962 220.732 29.3385C219.409 27.9807 217.827 26.9043 216.08 26.1727Z" fill="black"/>
<path d="M236.833 31.9969C239.031 29.7259 237.7 28.5453 236.878 27.4134C233.949 23.402 230.142 20.3659 225.856 17.962C218.06 13.5269 209.71 11.3368 200.694 12.4042C199.077 12.5916 196.851 12.3488 196.498 15.3893C200.407 16.1549 204.158 14.6916 207.898 15.2497C211.741 15.8183 215.497 16.5539 219.134 17.9985C222.548 19.4054 225.77 21.2411 228.724 23.462C231.852 25.7397 234.123 28.9024 236.833 31.9969Z" fill="black"/>
</g>
<g clip-path="url(#clip3_26_839)">
<path d="M210.013 127.062C210.786 121.98 212.841 120.371 216.667 121.918C221.194 123.765 225.555 126.032 229.974 128.161C230.576 128.469 231.115 128.89 231.56 129.402C236.526 135.007 237.122 146.055 232.818 152.217C226.155 161.811 211.122 167.696 199.744 165.273C194.823 164.215 191.22 161.62 188.915 156.961C184.706 148.457 184.601 148.504 188.039 139.356C188.93 136.984 189.711 134.542 190.824 132.288C192.707 128.539 195.084 128.236 199.234 131.25C195.129 136.649 192.449 142.489 195.142 149.516C196.803 153.888 199.639 157.044 203.853 158.944C212.512 162.859 222.212 159.072 225.634 150.319C227.821 144.749 227.287 139.356 223.779 134.375C220.43 129.616 215.44 127.767 210.013 127.062Z" fill="black"/>
<path d="M216.08 157.218C213.491 158.316 210.633 158.617 207.866 158.084C205.098 157.551 202.544 156.208 200.524 154.224C198.505 152.24 197.11 149.703 196.516 146.931C195.921 144.16 196.153 141.279 197.182 138.649C198.211 136.019 199.992 133.758 202.3 132.151C204.609 130.543 207.342 129.66 210.156 129.613C212.971 129.566 215.741 130.357 218.119 131.887C220.496 133.416 222.375 135.616 223.52 138.209C224.298 139.953 224.722 141.833 224.768 143.74C224.814 145.646 224.481 147.541 223.788 149.312C223.095 151.083 222.056 152.695 220.732 154.053C219.409 155.41 217.827 156.487 216.08 157.218Z" fill="black"/>
<path d="M236.833 151.394C239.031 153.665 237.7 154.846 236.878 155.978C233.949 159.989 230.142 163.025 225.856 165.429C218.06 169.864 209.71 172.054 200.694 170.987C199.077 170.8 196.851 171.042 196.498 168.002C200.407 167.236 204.158 168.699 207.898 168.141C211.741 167.573 215.497 166.837 219.134 165.393C222.548 163.986 225.77 162.15 228.724 159.929C231.852 157.651 234.123 154.489 236.833 151.394Z" fill="black"/>
</g>
<g clip-path="url(#clip4_26_839)">
<path d="M147.024 43.0217C149.679 47.4236 152.192 48.127 155.138 45.2362C158.617 41.8005 161.782 38.0412 165.054 34.3866C165.493 33.8719 165.83 33.2768 166.046 32.6338C168.497 25.5576 164.83 15.119 158.499 11.0659C148.679 4.7422 132.537 5.04209 122.946 11.6251C118.802 14.4811 116.462 18.2553 116.11 23.4412C115.466 32.9078 115.351 32.9043 122.021 40.0473C123.751 41.8998 125.405 43.8589 127.294 45.5171C130.465 48.2629 132.777 47.6357 135.463 43.2658C129.607 39.8427 124.901 35.4684 124.707 27.9454C124.574 23.2701 125.99 19.2704 129.16 15.9056C135.669 8.98155 146.08 8.7791 152.584 15.5631C156.731 19.8762 158.297 25.0649 156.955 31.0076C155.678 36.6849 151.771 40.2985 147.024 43.0217Z" fill="black"/>
<path d="M141.117 12.8332C138.306 12.8075 135.549 13.6202 133.194 15.1692C130.84 16.7182 128.992 18.9344 127.883 21.5393C126.774 24.1442 126.453 27.0216 126.961 29.81C127.47 32.5983 128.784 35.1731 130.739 37.2109C132.694 39.2486 135.203 40.6584 137.951 41.2631C140.698 41.8678 143.561 41.6404 146.18 40.6094C148.799 39.5784 151.058 37.7899 152.672 35.4687C154.285 33.1474 155.182 30.3969 155.25 27.5628C155.304 25.6544 154.978 23.7545 154.293 21.9746C153.607 20.1948 152.576 18.571 151.259 17.1986C149.943 15.8263 148.367 14.7332 146.625 13.9835C144.884 13.2338 143.011 12.8428 141.117 12.8332Z" fill="black"/>
<path d="M162.522 10.2943C163.688 7.35593 162.006 6.7732 160.814 6.04067C156.576 3.45112 151.898 2.09821 147.019 1.51256C138.12 0.38945 129.567 1.55278 121.641 5.98094C120.218 6.77142 118.068 7.39679 118.903 10.3418C122.807 9.55735 125.716 6.7728 129.386 5.86109C133.155 4.9194 136.907 4.16555 140.82 4.11239C144.513 4.10929 148.192 4.57597 151.769 5.50138C155.531 6.41221 158.837 8.46843 162.522 10.2943Z" fill="black"/>
</g>
<g clip-path="url(#clip5_26_839)">
<path d="M82.6897 52.0629C86.6298 55.3643 89.2354 55.2135 91.083 51.5229C93.2581 47.1437 95.0313 42.5604 96.9388 38.0415C97.1871 37.4121 97.3125 36.7399 97.3082 36.0615C97.3286 28.5731 90.4711 19.8905 83.1677 18.1125C71.826 15.32 56.6561 20.8447 49.7222 30.1851C46.7299 34.2319 45.7426 38.5612 47.0928 43.5807C49.5574 52.7435 49.4479 52.7773 58.076 57.3676C60.3129 58.5583 62.5134 59.8743 64.8387 60.8292C68.7292 62.3967 70.7127 61.0527 71.8344 56.0475C65.1845 54.711 59.3126 52.1019 56.687 45.0493C55.043 40.6705 55.0836 36.4278 56.989 32.2161C60.8971 23.5539 70.6786 19.982 79.0328 24.2868C84.3561 27.0195 87.5217 31.4186 88.1822 37.475C88.8169 43.2597 86.2952 47.946 82.6897 52.0629Z" fill="black"/>
<path d="M67.3032 25.4277C64.6354 26.3163 62.2921 27.9799 60.5679 30.2096C58.8436 32.4392 57.8153 35.1353 57.6122 37.9592C57.4091 40.7831 58.0402 43.6087 59.4262 46.0809C60.8122 48.5531 62.8913 50.5617 65.4023 51.8543C67.9132 53.1468 70.7439 53.6656 73.5387 53.3455C76.3335 53.0254 78.9677 51.8807 81.1102 50.0551C83.2527 48.2296 84.8081 45.8047 85.5807 43.0853C86.3534 40.3658 86.3089 37.473 85.4528 34.7705C84.8837 32.9481 83.959 31.2568 82.7328 29.7959C81.5067 28.335 80.004 27.134 78.313 26.2636C76.6221 25.3931 74.777 24.8708 72.8863 24.7272C70.9955 24.5837 69.0973 24.8218 67.3032 25.4277Z" fill="black"/>
<path d="M86.7238 16.0762C86.8718 12.9187 85.0921 12.9135 83.7271 12.6076C78.8778 11.5344 74.0142 11.7736 69.2092 12.8039C60.4279 14.631 52.7154 18.5085 46.6571 25.2701C45.5679 26.4797 43.7373 27.7694 45.4828 30.2838C48.9212 28.2741 50.7684 24.696 53.943 22.6422C57.2023 20.5277 60.5065 18.5964 64.1901 17.2757C67.6821 16.0736 71.313 15.3206 74.997 15.0344C78.8502 14.6746 82.6451 15.5459 86.7238 16.0762Z" fill="black"/>
</g>
<g clip-path="url(#clip6_26_839)">
<path d="M83.6897 131.61C87.6298 128.309 90.2354 128.459 92.083 132.15C94.2581 136.529 96.0313 141.112 97.9388 145.631C98.1871 146.261 98.3125 146.933 98.3082 147.611C98.3286 155.1 91.4711 163.782 84.1677 165.56C72.826 168.353 57.6561 162.828 50.7222 153.488C47.7299 149.441 46.7426 145.112 48.0928 140.092C50.5574 130.929 50.4479 130.896 59.076 126.305C61.3129 125.115 63.5134 123.799 65.8387 122.844C69.7292 121.276 71.7127 122.62 72.8344 127.625C66.1845 128.962 60.3126 131.571 57.687 138.624C56.043 143.002 56.0836 147.245 57.989 151.457C61.8971 160.119 71.6786 163.691 80.0328 159.386C85.3561 156.653 88.5217 152.254 89.1822 146.198C89.8169 140.413 87.2952 135.727 83.6897 131.61Z" fill="black"/>
<path d="M68.3032 158.245C65.6354 157.357 63.2921 155.693 61.5679 153.463C59.8436 151.234 58.8153 148.538 58.6122 145.714C58.4091 142.89 59.0402 140.064 60.4262 137.592C61.8122 135.12 63.8913 133.111 66.4023 131.819C68.9132 130.526 71.7439 130.007 74.5387 130.327C77.3335 130.647 79.9677 131.792 82.1102 133.618C84.2527 135.443 85.8081 137.868 86.5807 140.588C87.3534 143.307 87.3089 146.2 86.4528 148.902C85.8837 150.725 84.959 152.416 83.7328 153.877C82.5067 155.338 81.004 156.539 79.313 157.409C77.6221 158.28 75.777 158.802 73.8863 158.946C71.9955 159.089 70.0973 158.851 68.3032 158.245Z" fill="black"/>
<path d="M87.7238 167.597C87.8718 170.754 86.0921 170.759 84.7271 171.065C79.8778 172.138 75.0142 171.899 70.2092 170.869C61.4279 169.042 53.7154 165.164 47.6571 158.403C46.5679 157.193 44.7373 155.903 46.4828 153.389C49.9212 155.399 51.7684 158.977 54.943 161.031C58.2023 163.145 61.5065 165.076 65.1901 166.397C68.6821 167.599 72.313 168.352 75.997 168.638C79.8502 168.998 83.6451 168.127 87.7238 167.597Z" fill="black"/>
</g>
<g clip-path="url(#clip7_26_839)">
<path d="M147.024 139.708C149.679 135.306 152.192 134.603 155.138 137.494C158.617 140.929 161.782 144.689 165.054 148.343C165.493 148.858 165.83 149.453 166.046 150.096C168.497 157.172 164.83 167.611 158.499 171.664C148.679 177.988 132.537 177.688 122.946 171.105C118.802 168.249 116.462 164.475 116.11 159.289C115.466 149.822 115.351 149.826 122.021 142.683C123.751 140.83 125.405 138.871 127.294 137.213C130.465 134.467 132.777 135.094 135.463 139.464C129.607 142.887 124.901 147.262 124.707 154.785C124.574 159.46 125.99 163.46 129.16 166.824C135.669 173.748 146.08 173.951 152.584 167.167C156.731 162.854 158.297 157.665 156.955 151.722C155.678 146.045 151.771 142.431 147.024 139.708Z" fill="black"/>
<path d="M141.117 169.897C138.306 169.922 135.549 169.11 133.194 167.561C130.84 166.012 128.992 163.796 127.883 161.191C126.774 158.586 126.453 155.708 126.961 152.92C127.47 150.132 128.784 147.557 130.739 145.519C132.694 143.481 135.203 142.072 137.951 141.467C140.698 140.862 143.561 141.09 146.18 142.121C148.799 143.152 151.058 144.94 152.672 147.261C154.285 149.583 155.182 152.333 155.25 155.167C155.304 157.076 154.978 158.976 154.293 160.755C153.607 162.535 152.576 164.159 151.259 165.531C149.943 166.904 148.367 167.997 146.625 168.746C144.884 169.496 143.011 169.887 141.117 169.897Z" fill="black"/>
<path d="M162.522 172.436C163.688 175.374 162.006 175.957 160.814 176.689C156.576 179.279 151.898 180.632 147.019 181.217C138.12 182.341 129.567 181.177 121.641 176.749C120.218 175.959 118.068 175.333 118.903 172.388C122.807 173.173 125.716 175.957 129.386 176.869C133.155 177.811 136.907 178.564 140.82 178.618C144.513 178.621 148.192 178.154 151.769 177.229C155.531 176.318 158.837 174.262 162.522 172.436Z" fill="black"/>
</g>
<path d="M232.387 91.365C232.387 102.285 222.596 112.498 205.992 120.039C189.48 127.538 166.597 132.203 141.269 132.203C115.94 132.203 93.0575 127.538 76.5447 120.039C59.9414 112.498 50.1504 102.285 50.1504 91.365C50.1504 80.4454 59.9414 70.2323 76.5447 62.6915C93.0575 55.1917 115.94 50.5269 141.269 50.5269C166.597 50.5269 189.48 55.1917 205.992 62.6915C222.596 70.2323 232.387 80.4454 232.387 91.365Z" fill="white" stroke="black" stroke-width="2"/>
<defs>
<clipPath id="clip0_26_839">
<rect width="51" height="46" fill="white" transform="matrix(-0.0246932 0.999695 0.999695 0.0246932 1.96094 65.3047)"/>
</clipPath>
<clipPath id="clip1_26_839">
<rect width="51" height="46" fill="white" transform="translate(279.373 65.2036) rotate(88.585)"/>
</clipPath>
<clipPath id="clip2_26_839">
<rect width="51" height="46" fill="white" transform="matrix(-0.928459 -0.371436 -0.371436 0.928459 244.139 24.7578)"/>
</clipPath>
<clipPath id="clip3_26_839">
<rect width="51" height="46" fill="white" transform="translate(244.139 158.633) rotate(158.196)"/>
</clipPath>
<clipPath id="clip4_26_839">
<rect width="51" height="46" fill="white" transform="matrix(-0.999938 0.0111256 0.0111256 0.999938 166.512 0.814453)"/>
</clipPath>
<clipPath id="clip5_26_839">
<rect width="51" height="46" fill="white" transform="matrix(-0.942151 0.33519 0.33519 0.942151 87.4199 5.81445)"/>
</clipPath>
<clipPath id="clip6_26_839">
<rect width="51" height="46" fill="white" transform="translate(88.4199 177.858) rotate(-160.416)"/>
</clipPath>
<clipPath id="clip7_26_839">
<rect width="51" height="46" fill="white" transform="translate(166.512 181.916) rotate(-179.363)"/>
</clipPath>
</defs>
</svg>
