<svg width="237" height="169" viewBox="0 0 237 169" fill="none" xmlns="http://www.w3.org/2000/svg">
<g clip-path="url(#clip0_26_840)">
<path d="M43.5504 79.1918C48.0445 76.6964 48.8375 74.2098 46.054 71.1624C42.7452 67.5625 39.1016 64.2646 35.5665 60.8644C35.0679 60.407 34.4852 60.0491 33.8503 59.81C26.8665 57.1075 16.3032 60.3981 12.0261 66.5793C5.35468 76.167 5.07628 92.3093 11.3116 102.13C14.0173 106.374 17.7053 108.847 22.8753 109.385C32.3128 110.368 32.3051 110.482 39.6825 104.072C41.5957 102.41 43.6128 100.827 45.3376 98.9987C48.1951 95.9282 47.6512 93.5948 43.3803 90.754C39.7496 96.4834 35.2096 101.03 27.6845 100.954C23.0074 100.92 19.061 99.3616 15.8118 96.0735C9.12537 89.3208 9.29592 78.909 16.3085 72.6521C20.7674 68.6617 26.0088 67.2827 31.8996 68.8365C37.5276 70.3169 40.9989 74.3504 43.5504 79.1918Z" fill="black"/>
<path d="M13.1714 84.0121C13.045 86.8211 13.7584 89.6049 15.2221 92.0137C16.6858 94.4224 18.8344 96.3486 21.3979 97.5501C23.9614 98.7517 26.8255 99.1751 29.6302 98.767C32.435 98.359 35.0552 97.1377 37.1617 95.2568C39.2682 93.3758 40.7669 90.919 41.4696 88.1951C42.1723 85.4712 42.0475 82.6018 41.111 79.9473C40.1745 77.2929 38.4681 74.9719 36.2061 73.276C33.9441 71.5802 31.2275 70.5851 28.3977 70.4158C26.4924 70.2941 24.582 70.5513 22.7788 71.1725C20.9755 71.7937 19.3158 72.7662 17.8972 74.033C16.4786 75.2997 15.3298 76.835 14.5182 78.5488C13.7066 80.2625 13.2487 82.12 13.1714 84.0121Z" fill="black"/>
<path d="M11.3988 62.53C8.50406 61.2603 7.86148 62.9199 7.08674 64.0847C4.34707 68.2273 2.82749 72.8536 2.06748 77.7087C0.626389 86.5615 1.48263 95.1513 5.62411 103.23C6.36313 104.681 6.91108 106.852 9.88406 106.123C9.23999 102.193 6.56141 99.1863 5.7817 95.4866C4.9756 91.686 4.35662 87.9091 4.44363 83.9969C4.57279 80.3061 5.17092 76.6464 6.22386 73.1046C7.26881 69.3783 9.44212 66.1478 11.3988 62.53Z" fill="black"/>
</g>
<g clip-path="url(#clip1_26_840)">
<path d="M193.313 79.1918C188.819 76.6964 188.026 74.2098 190.809 71.1624C194.118 67.5625 197.762 64.2646 201.297 60.8644C201.795 60.407 202.378 60.0491 203.013 59.81C209.997 57.1075 220.56 60.3981 224.837 66.5793C231.509 76.167 231.787 92.3093 225.552 102.13C222.846 106.374 219.158 108.847 213.988 109.385C204.551 110.368 204.558 110.482 197.181 104.072C195.268 102.41 193.251 100.827 191.526 98.9987C188.668 95.9282 189.212 93.5948 193.483 90.754C197.114 96.4834 201.654 101.03 209.179 100.954C213.856 100.92 217.802 99.3616 221.051 96.0735C227.738 89.3208 227.567 78.909 220.555 72.6521C216.096 68.6617 210.855 67.2827 204.964 68.8365C199.336 70.3169 195.864 74.3504 193.313 79.1918Z" fill="black"/>
<path d="M223.692 84.0121C223.818 86.8211 223.105 89.6049 221.641 92.0137C220.178 94.4224 218.029 96.3486 215.465 97.5501C212.902 98.7517 210.038 99.1751 207.233 98.767C204.428 98.359 201.808 97.1377 199.702 95.2568C197.595 93.3758 196.096 90.919 195.394 88.1951C194.691 85.4712 194.816 82.6018 195.752 79.9473C196.689 77.2929 198.395 74.9719 200.657 73.276C202.919 71.5802 205.636 70.5851 208.466 70.4158C210.371 70.2941 212.281 70.5513 214.085 71.1725C215.888 71.7937 217.547 72.7662 218.966 74.033C220.385 75.2997 221.534 76.835 222.345 78.5488C223.157 80.2625 223.615 82.12 223.692 84.0121Z" fill="black"/>
<path d="M225.464 62.53C228.359 61.2603 229.002 62.9199 229.777 64.0847C232.516 68.2273 234.036 72.8536 234.796 77.7087C236.237 86.5615 235.381 95.1513 231.239 103.23C230.5 104.681 229.952 106.852 226.979 106.123C227.623 102.193 230.302 99.1863 231.082 95.4866C231.888 91.686 232.507 87.9091 232.42 83.9969C232.29 80.3061 231.692 76.6464 230.639 73.1046C229.594 69.3783 227.421 66.1478 225.464 62.53Z" fill="black"/>
</g>
<g clip-path="url(#clip2_26_840)">
<path d="M90.2258 46.1339C93.7312 49.8937 96.3356 50.0636 98.622 46.6275C101.318 42.5482 103.64 38.2169 106.087 33.9662C106.411 33.372 106.618 32.7202 106.697 32.0464C107.635 24.617 101.895 15.1589 94.8644 12.4985C83.9509 8.33593 68.2179 11.9582 60.1907 20.3776C56.7246 24.0269 55.2138 28.2024 55.9381 33.3496C57.2602 42.7455 57.1474 42.7656 65.1473 48.3796C67.2213 49.8356 69.2437 51.4115 71.4343 52.6445C75.1033 54.6773 77.2366 53.5868 78.9637 48.7569C72.5279 46.6149 67.0205 43.3053 65.2797 35.9839C64.1853 31.4365 64.7459 27.2308 67.1535 23.2847C72.0946 15.1672 82.2403 12.822 90.0035 18.119C94.9513 21.484 97.5535 26.2382 97.4661 32.3299C97.3865 38.1487 94.3091 42.4903 90.2258 46.1339Z" fill="black"/>
<path d="M78.2221 17.8126C75.4654 18.3673 72.9358 19.7309 70.9511 21.7322C68.9664 23.7336 67.6152 26.2832 67.0672 29.0609C66.5193 31.8385 66.799 34.7201 67.8713 37.3437C68.9437 39.9673 70.7607 42.2157 73.0941 43.8065C75.4275 45.3972 78.1733 46.2593 80.9862 46.2844C83.7992 46.3096 86.5539 45.4966 88.9041 43.9476C91.2544 42.3987 93.0954 40.1829 94.1958 37.5787C95.2962 34.9745 95.6068 32.0981 95.0887 29.311C94.7475 27.4326 94.0371 25.6406 92.9994 24.0404C91.9618 22.4401 90.6177 21.0639 89.0463 19.9926C87.4749 18.9214 85.7078 18.1766 83.8489 17.8023C81.9901 17.4279 80.077 17.4314 78.2221 17.8126Z" fill="black"/>
<path d="M98.6435 10.9138C99.1777 7.79835 97.4121 7.57493 96.0949 7.10392C91.4139 5.44403 86.5577 5.08486 81.6626 5.51801C72.7235 6.25419 64.5937 9.15647 57.7517 15.1239C56.5224 16.1908 54.5474 17.2462 55.9713 19.9557C59.6303 18.3829 61.9024 15.0584 65.3049 13.4095C68.799 11.7108 72.3151 10.1993 76.1329 9.34036C79.7459 8.57573 83.4418 8.27373 87.1331 8.44152C91.0014 8.5571 94.6607 9.88728 98.6435 10.9138Z" fill="black"/>
</g>
<g clip-path="url(#clip3_26_840)">
<path d="M89.2258 123.47C92.7312 119.71 95.3356 119.54 97.622 122.977C100.318 127.056 102.64 131.387 105.087 135.638C105.411 136.232 105.618 136.884 105.697 137.558C106.635 144.987 100.895 154.445 93.8644 157.106C82.9509 161.268 67.2179 157.646 59.1907 149.226C55.7246 145.577 54.2138 141.402 54.9381 136.254C56.2602 126.859 56.1474 126.838 64.1473 121.224C66.2213 119.768 68.2437 118.192 70.4343 116.96C74.1033 114.927 76.2366 116.017 77.9637 120.847C71.5279 122.989 66.0205 126.299 64.2797 133.62C63.1853 138.167 63.7459 142.373 66.1535 146.319C71.0946 154.437 81.2403 156.782 89.0035 151.485C93.9513 148.12 96.5535 143.366 96.4661 137.274C96.3865 131.455 93.3091 127.114 89.2258 123.47Z" fill="black"/>
<path d="M77.2221 151.791C74.4654 151.237 71.9358 149.873 69.9511 147.872C67.9664 145.87 66.6152 143.321 66.0672 140.543C65.5193 137.766 65.799 134.884 66.8713 132.26C67.9437 129.637 69.7607 127.388 72.0941 125.798C74.4275 124.207 77.1733 123.345 79.9862 123.32C82.7992 123.294 85.5539 124.107 87.9041 125.656C90.2544 127.205 92.0954 129.421 93.1958 132.025C94.2962 134.629 94.6068 137.506 94.0887 140.293C93.7475 142.171 93.0371 143.963 91.9994 145.564C90.9618 147.164 89.6177 148.54 88.0463 149.611C86.4749 150.683 84.7078 151.427 82.8489 151.802C80.9901 152.176 79.077 152.173 77.2221 151.791Z" fill="black"/>
<path d="M97.6435 158.69C98.1777 161.806 96.4121 162.029 95.0949 162.5C90.4139 164.16 85.5577 164.519 80.6626 164.086C71.7235 163.35 63.5937 160.448 56.7517 154.48C55.5224 153.413 53.5474 152.358 54.9713 149.648C58.6303 151.221 60.9024 154.546 64.3049 156.194C67.799 157.893 71.3151 159.405 75.1329 160.264C78.7459 161.028 82.4418 161.33 86.1331 161.162C90.0014 161.047 93.6607 159.717 97.6435 158.69Z" fill="black"/>
</g>
<g clip-path="url(#clip4_26_840)">
<path d="M159.067 47.6764C160.839 52.502 163.173 53.6695 166.614 51.3901C170.682 48.677 174.503 45.5866 178.408 42.619C178.937 42.197 179.381 41.6767 179.715 41.0863C183.464 34.6037 181.844 23.6589 176.398 18.4784C167.956 10.4062 152.05 7.63785 141.384 12.2815C136.773 14.2993 133.76 17.561 132.43 22.5858C130.002 31.7583 129.89 31.7331 135.084 40.012C136.43 42.1589 137.682 44.3962 139.222 46.3828C141.814 49.6803 144.204 49.5033 147.67 45.7224C142.57 41.2504 138.779 36.0626 140.017 28.6395C140.773 24.0238 142.922 20.3655 146.673 17.6632C154.377 12.1 164.638 13.8766 169.736 21.7715C172.99 26.7932 173.543 32.1847 171.098 37.7648C168.766 43.0966 164.245 45.9033 159.067 47.6764Z" fill="black"/>
<path d="M158.998 16.9164C156.242 16.3576 153.381 16.6325 150.775 17.7066C148.169 18.7806 145.934 20.6059 144.351 22.9531C142.768 25.3003 141.908 28.0646 141.877 30.8987C141.847 33.7328 142.649 36.5102 144.182 38.882C145.715 41.2537 147.911 43.114 150.494 44.2289C153.077 45.3439 155.931 45.6638 158.698 45.1486C161.465 44.6333 164.022 43.3058 166.047 41.3329C168.072 39.36 169.475 36.8297 170.079 34.06C170.493 32.1964 170.534 30.2692 170.199 28.3916C169.864 26.5141 169.159 24.7241 168.127 23.1268C167.095 21.5296 165.755 20.1574 164.187 19.0909C162.619 18.0243 160.855 17.285 158.998 16.9164Z" fill="black"/>
<path d="M180.497 18.4845C182.198 15.8206 180.658 14.9294 179.627 13.9841C175.957 10.6374 171.621 8.42153 166.941 6.92074C158.417 4.12956 149.798 3.64878 141.177 6.4927C139.63 6.99884 137.4 7.20486 137.66 10.2547C141.643 10.2254 145.027 8.04337 148.803 7.84446C152.683 7.63507 156.51 7.60688 160.362 8.29711C163.988 8.99479 167.511 10.151 170.848 11.7384C174.368 13.3463 177.224 15.9925 180.497 18.4845Z" fill="black"/>
</g>
<g clip-path="url(#clip5_26_840)">
<path d="M159.067 121.129C160.839 116.304 163.173 115.136 166.614 117.416C170.682 120.129 174.503 123.219 178.408 126.187C178.937 126.609 179.381 127.129 179.715 127.719C183.464 134.202 181.844 145.147 176.398 150.327C167.956 158.399 152.05 161.168 141.384 156.524C136.773 154.506 133.76 151.245 132.43 146.22C130.002 137.047 129.89 137.073 135.084 128.794C136.43 126.647 137.682 124.409 139.222 122.423C141.814 119.125 144.204 119.302 147.67 123.083C142.57 127.555 138.779 132.743 140.017 140.166C140.773 144.782 142.922 148.44 146.673 151.143C154.377 156.706 164.638 154.929 169.736 147.034C172.99 142.012 173.543 136.621 171.098 131.041C168.766 125.709 164.245 122.902 159.067 121.129Z" fill="black"/>
<path d="M158.998 151.889C156.242 152.448 153.381 152.173 150.775 151.099C148.169 150.025 145.934 148.2 144.351 145.853C142.768 143.505 141.908 140.741 141.877 137.907C141.847 135.073 142.649 132.295 144.182 129.924C145.715 127.552 147.911 125.692 150.494 124.577C153.077 123.462 155.931 123.142 158.698 123.657C161.465 124.172 164.022 125.5 166.047 127.473C168.072 129.446 169.475 131.976 170.079 134.746C170.493 136.609 170.534 138.536 170.199 140.414C169.864 142.292 169.159 144.082 168.127 145.679C167.095 147.276 165.755 148.648 164.187 149.715C162.619 150.781 160.855 151.521 158.998 151.889Z" fill="black"/>
<path d="M180.497 150.321C182.198 152.985 180.658 153.876 179.627 154.822C175.957 158.168 171.621 160.384 166.941 161.885C158.417 164.676 149.798 165.157 141.177 162.313C139.63 161.807 137.4 161.601 137.66 158.551C141.643 158.58 145.027 160.762 148.803 160.961C152.683 161.171 156.51 161.199 160.362 160.509C163.988 159.811 167.511 158.655 170.848 157.067C174.368 155.459 177.224 152.813 180.497 150.321Z" fill="black"/>
</g>
<path d="M186.957 84.365C186.957 93.6322 179.597 102.278 167.119 108.666C154.693 115.027 137.458 118.99 118.366 118.99C99.2741 118.99 82.0391 115.027 69.6138 108.666C57.1351 102.278 49.7754 93.6322 49.7754 84.365C49.7754 75.0978 57.1351 66.4524 69.6138 60.0643C82.0391 53.7035 99.2741 49.7397 118.366 49.7397C137.458 49.7397 154.693 53.7035 167.119 60.0643C179.597 66.4524 186.957 75.0978 186.957 84.365Z" fill="white" stroke="black" stroke-width="2"/>
<defs>
<clipPath id="clip0_26_840">
<rect width="51" height="46" fill="white" transform="matrix(-0.0246932 0.999695 0.999695 0.0246932 2.06836 58.2036)"/>
</clipPath>
<clipPath id="clip1_26_840">
<rect width="51" height="46" fill="white" transform="translate(234.795 58.2036) rotate(88.585)"/>
</clipPath>
<clipPath id="clip2_26_840">
<rect width="51" height="46" fill="white" transform="matrix(-0.97615 0.217098 0.217098 0.97615 100.592 0.814453)"/>
</clipPath>
<clipPath id="clip3_26_840">
<rect width="51" height="46" fill="white" transform="translate(99.5918 168.79) rotate(-167.461)"/>
</clipPath>
<clipPath id="clip4_26_840">
<rect width="51" height="46" fill="white" transform="matrix(-0.983884 -0.178806 -0.178806 0.983884 186.211 9.93359)"/>
</clipPath>
<clipPath id="clip5_26_840">
<rect width="51" height="46" fill="white" transform="translate(186.211 158.872) rotate(169.7)"/>
</clipPath>
</defs>
</svg>
