<svg width="89" height="130" viewBox="0 0 89 130" fill="none" xmlns="http://www.w3.org/2000/svg">
<path d="M60.498 8.64014L28.541 8.64013L28.541 5.75769C28.541 2.99626 30.7796 0.757688 33.541 0.757688L55.498 0.75769C58.2595 0.75769 60.498 2.99627 60.498 5.75769L60.498 8.64014Z" fill="#E4E4E4"/>
<path d="M28.541 122.004H60.498V124.887C60.498 127.648 58.2595 129.887 55.498 129.887H33.541C30.7796 129.887 28.541 127.648 28.541 124.887V122.004Z" fill="#E4E4E4"/>
<path d="M80.8008 58.1411L80.8008 26.1841L83.6832 26.1841C86.4446 26.1841 88.6832 28.4227 88.6832 31.1841L88.6832 53.1411C88.6832 55.9025 86.4447 58.1411 83.6832 58.1411L80.8008 58.1411Z" fill="#E4E4E4"/>
<path d="M80.8008 104.461L80.8008 72.5037L83.6832 72.5037C86.4446 72.5037 88.6832 74.7422 88.6832 77.5037L88.6832 99.4607C88.6832 102.222 86.4447 104.461 83.6832 104.461L80.8008 104.461Z" fill="#E4E4E4"/>
<path d="M8.2373 26.1841L8.2373 58.1411L5.35486 58.1411C2.59343 58.1411 0.354857 55.9025 0.354857 53.1411L0.354858 31.1841C0.354858 28.4227 2.59343 26.1841 5.35486 26.1841L8.2373 26.1841Z" fill="#E4E4E4"/>
<path d="M8.2373 72.5037L8.2373 104.461L5.35486 104.461C2.59343 104.461 0.354857 102.222 0.354857 99.4607L0.354858 77.5037C0.354858 74.7422 2.59343 72.5037 5.35486 72.5037L8.2373 72.5037Z" fill="#E4E4E4"/>
<rect x="12.2373" y="12.9875" width="64.5647" height="104.67" rx="5" fill="#E4E4E4"/>
</svg>
