<svg width="239" height="186" viewBox="0 0 239 186" fill="none" xmlns="http://www.w3.org/2000/svg">
<g clip-path="url(#clip0_26_646)">
<path d="M42.9489 87.2456C47.3801 84.64 48.1114 82.1346 45.2535 79.1568C41.8568 75.6397 38.1329 72.4329 34.5149 69.121C34.0051 68.6761 33.4138 68.3326 32.7732 68.1093C25.7248 65.58 15.246 69.1305 11.1228 75.4155C4.69017 85.165 4.81044 101.309 11.2863 110.973C14.0961 115.148 17.844 117.53 23.0257 117.94C32.4845 118.689 32.4797 118.804 39.6965 112.214C41.5681 110.505 43.5455 108.873 45.2246 107.002C48.0055 103.862 47.4041 101.543 43.0644 98.8085C39.5763 104.626 35.1499 109.283 27.6252 109.393C22.9487 109.474 18.965 108.014 15.6357 104.807C8.78451 98.2216 8.69791 87.8087 15.5539 81.3806C19.9128 77.2814 25.1186 75.7734 31.046 77.1812C36.7088 78.5221 40.2787 82.4687 42.9489 87.2456Z" fill="black"/>
<path d="M12.6963 92.8146C12.6392 95.6259 13.4212 98.3913 14.9439 100.763C16.4666 103.135 18.6621 105.007 21.2546 106.145C23.847 107.283 26.7206 107.636 29.5144 107.159C32.3082 106.681 34.8975 105.396 36.9569 103.463C39.0163 101.531 40.454 99.038 41.0892 96.2976C41.7244 93.5572 41.5288 90.6917 40.527 88.0612C39.5253 85.4307 37.762 83.1526 35.4588 81.5131C33.1557 79.8736 30.4153 78.9458 27.5822 78.8465C25.6745 78.7718 23.771 79.0762 21.9837 79.7417C20.1963 80.4072 18.5611 81.4205 17.1742 82.7218C15.7873 84.0232 14.6768 85.5865 13.9078 87.3197C13.1388 89.0529 12.7269 90.9212 12.6963 92.8146Z" fill="black"/>
<path d="M10.3962 71.3828C7.47103 70.185 6.86962 71.86 6.12388 73.0435C3.48734 77.2525 2.08247 81.9149 1.44257 86.7873C0.220526 95.673 1.28861 104.239 5.62833 112.213C6.40293 113.645 7.00434 115.802 9.95842 115C9.21749 111.087 6.46548 108.147 5.59465 104.468C4.69495 100.689 3.98289 96.9281 3.97327 93.0149C4.01125 89.3221 4.51884 85.6488 5.48399 82.0819C6.43661 78.331 8.52949 75.0478 10.3962 71.3828Z" fill="black"/>
</g>
<g clip-path="url(#clip1_26_646)">
<path d="M196.358 87.2964C191.927 84.6908 191.195 82.1854 194.053 79.2076C197.45 75.6905 201.174 72.4836 204.792 69.1718C205.302 68.7268 205.893 68.3834 206.533 68.1601C213.582 65.6308 224.061 69.1813 228.184 75.4662C234.616 85.2157 234.496 101.36 228.02 111.024C225.211 115.199 221.463 117.58 216.281 117.991C206.822 118.74 206.827 118.855 199.61 112.264C197.739 110.556 195.761 108.924 194.082 107.053C191.301 103.913 191.903 101.594 196.242 98.8593C199.73 104.677 204.157 109.334 211.681 109.444C216.358 109.525 220.342 108.065 223.671 104.858C230.522 98.2724 230.609 87.8595 223.753 81.4314C219.394 77.3321 214.188 75.8241 208.261 77.2319C202.598 78.5729 199.028 82.5195 196.358 87.2964Z" fill="black"/>
<path d="M226.61 92.8654C226.667 95.6767 225.885 98.442 224.363 100.814C222.84 103.186 220.645 105.058 218.052 106.196C215.46 107.334 212.586 107.687 209.792 107.209C206.998 106.732 204.409 105.447 202.35 103.514C200.29 101.582 198.853 99.0888 198.217 96.3484C197.582 93.608 197.778 90.7425 198.78 88.112C199.781 85.4815 201.545 83.2033 203.848 81.5638C206.151 79.9243 208.891 78.9966 211.724 78.8973C213.632 78.8226 215.536 79.127 217.323 79.7925C219.11 80.458 220.746 81.4712 222.132 82.7726C223.519 84.074 224.63 85.6372 225.399 87.3705C226.168 89.1037 226.58 90.972 226.61 92.8654Z" fill="black"/>
<path d="M228.91 71.4336C231.836 70.2357 232.437 71.9108 233.183 73.0943C235.819 77.3033 237.224 81.9657 237.864 86.8381C239.086 95.7238 238.018 104.29 233.678 112.264C232.904 113.696 232.302 115.853 229.348 115.051C230.089 111.138 232.841 108.198 233.712 104.519C234.612 100.739 235.324 96.9789 235.333 93.0657C235.295 89.3729 234.788 85.6995 233.823 82.1327C232.87 78.3818 230.777 75.0986 228.91 71.4336Z" fill="black"/>
</g>
<rect x="51.1211" y="52.7476" width="137.018" height="80.0806" rx="3" fill="white" stroke="black" stroke-width="2"/>
<g clip-path="url(#clip2_26_646)">
<path d="M79.6792 42.7663C77.0736 47.1974 74.5682 47.9287 71.5904 45.0709C68.0733 41.6742 64.8665 37.9503 61.5546 34.3323C61.1096 33.8225 60.7662 33.2312 60.5429 32.5906C58.0136 25.5422 61.5641 15.0633 67.849 10.9401C77.5986 4.50755 93.7427 4.62783 103.406 11.1037C107.582 13.9135 109.963 17.6614 110.374 22.8431C111.123 32.3019 111.237 32.2971 104.647 39.5139C102.939 41.3855 101.307 43.3629 99.4359 45.042C96.2959 47.8229 93.9766 47.2215 91.2421 42.8818C97.0594 39.3937 101.717 34.9673 101.827 27.4426C101.908 22.7661 100.448 18.7824 97.2407 15.4531C90.6552 8.60189 80.2423 8.51529 73.8142 15.3713C69.715 19.7302 68.207 24.936 69.6147 30.8634C70.9557 36.5262 74.9023 40.0961 79.6792 42.7663Z" fill="black"/>
<path d="M85.2487 12.5132C88.06 12.4561 90.8253 13.2381 93.1972 14.7608C95.569 16.2835 97.4416 18.479 98.5795 21.0715C99.7174 23.6639 100.07 26.5375 99.5927 29.3313C99.1156 32.1251 97.83 34.7144 95.8976 36.7738C93.9651 38.8332 91.4721 40.2709 88.7317 40.9061C85.9913 41.5412 83.1258 41.3457 80.4953 40.3439C77.8648 39.3422 75.5866 37.5789 73.9471 35.2757C72.3076 32.9725 71.3799 30.2322 71.2806 27.3991C71.2059 25.4914 71.5103 23.5879 72.1758 21.8006C72.8413 20.0132 73.8545 18.378 75.1559 16.9911C76.4573 15.6042 78.0205 14.4937 79.7538 13.7246C81.487 12.9556 83.3553 12.5437 85.2487 12.5132Z" fill="black"/>
<path d="M63.8169 10.2136C62.6191 7.28841 64.2941 6.68701 65.4776 5.94127C69.6866 3.30472 74.349 1.89985 79.2214 1.25996C88.1071 0.0379098 96.6731 1.106 104.647 5.44571C106.079 6.22032 108.236 6.82172 107.434 9.7758C103.521 9.03488 100.582 6.28286 96.9022 5.41203C93.1227 4.51234 89.3622 3.80028 85.449 3.79066C81.7562 3.82864 78.0828 4.33622 74.516 5.30138C70.7651 6.254 67.4819 8.34687 63.8169 10.2136Z" fill="black"/>
</g>
<g clip-path="url(#clip3_26_646)">
<path d="M79.6792 143.791C77.0736 139.36 74.5682 138.629 71.5904 141.487C68.0733 144.883 64.8665 148.607 61.5546 152.225C61.1096 152.735 60.7662 153.326 60.5429 153.967C58.0136 161.015 61.5641 171.494 67.849 175.617C77.5986 182.05 93.7427 181.93 103.406 175.454C107.582 172.644 109.963 168.896 110.374 163.715C111.123 154.256 111.237 154.261 104.647 147.044C102.939 145.172 101.307 143.195 99.4359 141.516C96.2959 138.735 93.9766 139.336 91.2421 143.676C97.0594 147.164 101.717 151.59 101.827 159.115C101.908 163.792 100.448 167.775 97.2407 171.105C90.6552 177.956 80.2423 178.042 73.8142 171.186C69.715 166.827 68.207 161.622 69.6147 155.694C70.9557 150.031 74.9023 146.462 79.6792 143.791Z" fill="black"/>
<path d="M85.2487 174.044C88.06 174.101 90.8253 173.32 93.1972 171.797C95.569 170.274 97.4416 168.079 98.5795 165.486C99.7174 162.894 100.07 160.02 99.5927 157.226C99.1156 154.432 97.83 151.843 95.8976 149.784C93.9651 147.724 91.4721 146.287 88.7317 145.652C85.9913 145.016 83.1258 145.212 80.4953 146.214C77.8648 147.215 75.5866 148.979 73.9471 151.282C72.3076 153.585 71.3799 156.325 71.2806 159.159C71.2059 161.066 71.5103 162.97 72.1758 164.757C72.8413 166.544 73.8545 168.18 75.1559 169.566C76.4573 170.953 78.0205 172.064 79.7538 172.833C81.487 173.602 83.3553 174.014 85.2487 174.044Z" fill="black"/>
<path d="M63.8169 176.344C62.6191 179.269 64.2941 179.871 65.4776 180.616C69.6866 183.253 74.349 184.658 79.2214 185.298C88.1071 186.52 96.6731 185.452 104.647 181.112C106.079 180.337 108.236 179.736 107.434 176.782C103.521 177.523 100.582 180.275 96.9022 181.146C93.1227 182.045 89.3622 182.757 85.449 182.767C81.7562 182.729 78.0828 182.221 74.516 181.256C70.7651 180.304 67.4819 178.211 63.8169 176.344Z" fill="black"/>
</g>
<g clip-path="url(#clip4_26_646)">
<path d="M147.679 42.7663C145.074 47.1974 142.568 47.9287 139.59 45.0709C136.073 41.6742 132.866 37.9503 129.555 34.3323C129.11 33.8225 128.766 33.2312 128.543 32.5906C126.014 25.5422 129.564 15.0633 135.849 10.9401C145.599 4.50755 161.743 4.62783 171.406 11.1037C175.582 13.9135 177.963 17.6614 178.374 22.8431C179.123 32.3019 179.237 32.2971 172.647 39.5139C170.939 41.3855 169.307 43.3629 167.436 45.042C164.296 47.8229 161.977 47.2215 159.242 42.8818C165.059 39.3937 169.717 34.9673 169.827 27.4426C169.908 22.7661 168.448 18.7824 165.241 15.4531C158.655 8.60189 148.242 8.51529 141.814 15.3713C137.715 19.7302 136.207 24.936 137.615 30.8634C138.956 36.5262 142.902 40.0961 147.679 42.7663Z" fill="black"/>
<path d="M153.249 12.5132C156.06 12.4561 158.825 13.2381 161.197 14.7608C163.569 16.2835 165.442 18.479 166.579 21.0715C167.717 23.6639 168.07 26.5375 167.593 29.3313C167.116 32.1251 165.83 34.7144 163.898 36.7738C161.965 38.8332 159.472 40.2709 156.732 40.9061C153.991 41.5412 151.126 41.3457 148.495 40.3439C145.865 39.3422 143.587 37.5789 141.947 35.2757C140.308 32.9725 139.38 30.2322 139.281 27.3991C139.206 25.4914 139.51 23.5879 140.176 21.8006C140.841 20.0132 141.855 18.378 143.156 16.9911C144.457 15.6042 146.021 14.4937 147.754 13.7246C149.487 12.9556 151.355 12.5437 153.249 12.5132Z" fill="black"/>
<path d="M131.817 10.2136C130.619 7.28841 132.294 6.68701 133.478 5.94127C137.687 3.30472 142.349 1.89985 147.221 1.25996C156.107 0.0379098 164.673 1.106 172.647 5.44571C174.079 6.22032 176.236 6.82172 175.434 9.7758C171.521 9.03488 168.582 6.28286 164.902 5.41203C161.123 4.51234 157.362 3.80028 153.449 3.79066C149.756 3.82864 146.083 4.33622 142.516 5.30138C138.765 6.254 135.482 8.34687 131.817 10.2136Z" fill="black"/>
</g>
<g clip-path="url(#clip5_26_646)">
<path d="M147.679 143.791C145.074 139.36 142.568 138.629 139.59 141.487C136.073 144.883 132.866 148.607 129.555 152.225C129.11 152.735 128.766 153.326 128.543 153.967C126.014 161.015 129.564 171.494 135.849 175.617C145.599 182.05 161.743 181.93 171.406 175.454C175.582 172.644 177.963 168.896 178.374 163.715C179.123 154.256 179.237 154.261 172.647 147.044C170.939 145.172 169.307 143.195 167.436 141.516C164.296 138.735 161.977 139.336 159.242 143.676C165.059 147.164 169.717 151.59 169.827 159.115C169.908 163.792 168.448 167.775 165.241 171.105C158.655 177.956 148.242 178.042 141.814 171.186C137.715 166.827 136.207 161.622 137.615 155.694C138.956 150.031 142.902 146.462 147.679 143.791Z" fill="black"/>
<path d="M153.249 174.044C156.06 174.101 158.825 173.32 161.197 171.797C163.569 170.274 165.442 168.079 166.579 165.486C167.717 162.894 168.07 160.02 167.593 157.226C167.116 154.432 165.83 151.843 163.898 149.784C161.965 147.724 159.472 146.287 156.732 145.652C153.991 145.016 151.126 145.212 148.495 146.214C145.865 147.215 143.587 148.979 141.947 151.282C140.308 153.585 139.38 156.325 139.281 159.159C139.206 161.066 139.51 162.97 140.176 164.757C140.841 166.544 141.855 168.18 143.156 169.566C144.457 170.953 146.021 172.064 147.754 172.833C149.487 173.602 151.355 174.014 153.249 174.044Z" fill="black"/>
<path d="M131.817 176.344C130.619 179.269 132.294 179.871 133.478 180.616C137.687 183.253 142.349 184.658 147.221 185.298C156.107 186.52 164.673 185.452 172.647 181.112C174.079 180.337 176.236 179.736 175.434 176.782C171.521 177.523 168.582 180.275 164.902 181.146C161.123 182.045 157.362 182.757 153.449 182.767C149.756 182.729 146.083 182.221 142.516 181.256C138.765 180.304 135.482 178.211 131.817 176.344Z" fill="black"/>
</g>
<defs>
<clipPath id="clip0_26_646">
<rect width="51" height="46" fill="white" transform="matrix(-4.37114e-08 1 1 4.37114e-08 0.960938 67.2881)"/>
</clipPath>
<clipPath id="clip1_26_646">
<rect width="51" height="46" fill="white" transform="translate(238.346 67.3389) rotate(90)"/>
</clipPath>
<clipPath id="clip2_26_646">
<rect width="51" height="46" fill="white" transform="translate(59.7227 0.778809)"/>
</clipPath>
<clipPath id="clip3_26_646">
<rect width="51" height="46" fill="white" transform="matrix(1 0 0 -1 59.7227 185.779)"/>
</clipPath>
<clipPath id="clip4_26_646">
<rect width="51" height="46" fill="white" transform="translate(127.723 0.778809)"/>
</clipPath>
<clipPath id="clip5_26_646">
<rect width="51" height="46" fill="white" transform="matrix(1 0 0 -1 127.723 185.779)"/>
</clipPath>
</defs>
</svg>
