<svg width="183" height="262" viewBox="0 0 183 262" fill="none" xmlns="http://www.w3.org/2000/svg">
<g clip-path="url(#clip0_26_596)">
<path d="M42.6082 68.8373C47.049 66.2484 47.7897 63.7458 44.9431 60.7572C41.5596 57.2274 37.8477 54.0066 34.2422 50.6812C33.7341 50.2343 33.1441 49.8886 32.5043 49.663C25.4654 47.1073 14.9734 50.6184 10.8266 56.8878C4.35748 66.6132 4.4172 82.7577 10.8568 92.4455C13.6509 96.6317 17.3898 99.027 22.5699 99.4568C32.0259 100.242 32.0207 100.356 39.2621 93.7928C41.1401 92.0915 43.1236 90.4668 44.8097 88.6024C47.6024 85.4728 47.0097 83.1513 42.6803 80.4006C39.1703 86.2047 34.7266 90.8457 27.2015 90.9272C22.5247 90.9908 18.5465 89.5156 15.2292 86.2963C8.40281 79.685 8.35528 69.2719 15.2353 62.8696C19.6096 58.7867 24.821 57.2983 30.7431 58.7283C36.4008 60.0905 39.9559 64.0504 42.6082 68.8373Z" fill="black"/>
<path d="M12.3352 74.293C12.2677 77.1041 13.0392 79.8724 14.553 82.2499C16.0668 84.6275 18.2553 86.5082 20.8434 87.6558C23.4316 88.8035 26.3039 89.1668 29.0995 88.7001C31.895 88.2334 34.4891 86.9575 36.5558 85.0328C38.6224 83.1082 40.0694 80.6205 40.7149 77.8825C41.3603 75.1445 41.1755 72.2783 40.1836 69.644C39.1917 67.0098 37.437 64.7251 35.14 63.077C32.843 61.4288 30.1062 60.4908 27.2734 60.3809C25.3661 60.299 23.4615 60.5963 21.6716 61.2551C19.8818 61.9139 18.2428 62.921 16.851 64.2171C15.4593 65.5133 14.3428 67.0724 13.5673 68.8027C12.7918 70.5331 12.3729 72.3997 12.3352 74.293Z" fill="black"/>
<path d="M10.1153 52.8527C7.19463 51.6439 6.58695 53.3167 5.83677 54.4974C3.18446 58.6965 1.7621 63.3536 1.10394 68.2235C-0.151438 77.1046 0.884507 85.6746 5.19427 93.6651C5.9635 95.0996 6.55681 97.2589 9.51388 96.4682C8.78764 92.5523 6.04667 89.6024 5.18965 85.9198C4.30414 82.1369 3.6062 78.3738 3.61125 74.4606C3.66309 70.7679 4.18445 67.0965 5.16298 63.5334C6.12966 59.7861 8.23484 56.5107 10.1153 52.8527Z" fill="black"/>
</g>
<g clip-path="url(#clip1_26_596)">
<path d="M140.885 68.7184C136.461 66.1016 135.736 63.5943 138.601 60.6238C142.007 57.1153 145.739 53.9178 149.365 50.6151C149.876 50.1715 150.468 49.8295 151.11 49.6079C158.164 47.0965 168.634 50.6735 172.741 56.9688C179.149 66.7346 178.988 82.8784 172.488 92.5256C169.668 96.6941 165.914 99.0659 160.731 99.4632C151.27 100.188 151.275 100.303 144.075 93.6944C142.207 91.9813 140.234 90.3442 138.56 88.4692C135.787 85.3221 136.394 83.0044 140.741 80.281C144.214 86.107 148.629 90.7758 156.153 90.9046C160.829 90.9976 164.817 89.5474 168.154 86.349C175.022 79.7808 175.135 69.3682 168.295 62.9228C163.947 58.8125 158.745 57.2913 152.814 58.6841C147.148 60.0107 143.568 63.9482 140.885 68.7184Z" fill="black"/>
<path d="M171.124 74.3639C171.174 77.1753 170.385 79.9387 168.856 82.3067C167.327 84.6746 165.127 86.5416 162.532 87.6729C159.937 88.8043 157.062 89.1495 154.269 88.6653C151.477 88.181 148.891 86.8889 146.836 84.9513C144.782 83.0136 143.35 80.517 142.722 77.7749C142.094 75.0329 142.297 72.1679 143.305 69.54C144.314 66.912 146.083 64.6384 148.39 63.0047C150.697 61.3711 153.44 60.4503 156.273 60.3581C158.181 60.2883 160.084 60.5975 161.87 61.2675C163.655 61.9375 165.288 62.9549 166.671 64.2598C168.055 65.5647 169.162 67.1307 169.926 68.8659C170.691 70.6011 171.098 72.4704 171.124 74.3639Z" fill="black"/>
<path d="M173.478 52.938C176.406 51.7476 177.003 53.4242 177.746 54.6095C180.372 58.8252 181.765 63.4912 182.392 68.3651C183.592 77.254 182.502 85.8172 178.142 93.7805C177.364 95.2102 176.757 97.3657 173.805 96.5565C174.556 92.6452 177.315 89.7125 178.196 86.0354C179.105 82.2581 179.826 78.4995 179.846 74.5864C179.817 70.8934 179.319 67.2188 178.363 63.6496C177.42 59.8963 175.335 56.6077 173.478 52.938Z" fill="black"/>
</g>
<g clip-path="url(#clip2_26_596)">
<path d="M42.8474 125.296C47.2785 122.691 48.0098 120.185 45.1519 117.208C41.7552 113.691 38.0313 110.484 34.4133 107.172C33.9036 106.727 33.3123 106.383 32.6717 106.16C25.6232 103.631 15.1444 107.181 11.0212 113.466C4.5886 123.216 4.70888 139.36 11.1848 149.024C13.9945 153.199 17.7425 155.58 22.9241 155.991C32.383 156.74 32.3782 156.855 39.595 150.264C41.4665 148.556 43.444 146.924 45.1231 145.053C47.9039 141.913 47.3025 139.594 42.9628 136.859C39.4747 142.677 35.0484 147.334 27.5236 147.444C22.8472 147.525 18.8635 146.065 15.5341 142.858C8.68294 136.272 8.59634 125.86 15.4523 119.431C19.8113 115.332 25.017 113.824 30.9444 115.232C36.6072 116.573 40.1771 120.519 42.8474 125.296Z" fill="black"/>
<path d="M12.5947 130.865C12.5377 133.677 13.3196 136.442 14.8424 138.814C16.3651 141.186 18.5606 143.058 21.153 144.196C23.7454 145.334 26.6191 145.687 29.4129 145.209C32.2067 144.732 34.796 143.447 36.8554 141.514C38.9148 139.582 40.3524 137.089 40.9876 134.348C41.6228 131.608 41.4272 128.742 40.4255 126.112C39.4237 123.481 37.6604 121.203 35.3573 119.564C33.0541 117.924 30.3137 116.997 27.4806 116.897C25.5729 116.823 23.6695 117.127 21.8821 117.793C20.0947 118.458 18.4596 119.471 17.0727 120.773C15.6858 122.074 14.5752 123.637 13.8062 125.37C13.0372 127.104 12.6253 128.972 12.5947 130.865Z" fill="black"/>
<path d="M10.2947 109.434C7.36946 108.236 6.76806 109.911 6.02232 111.094C3.38578 115.303 1.9809 119.966 1.34101 124.838C0.118963 133.724 1.18705 142.29 5.52677 150.264C6.30137 151.696 6.90277 153.853 9.85686 153.051C9.11593 149.138 6.36392 146.198 5.49309 142.519C4.59339 138.739 3.88133 134.979 3.87171 131.066C3.90969 127.373 4.41727 123.7 5.38243 120.133C6.33505 116.382 8.42793 113.099 10.2947 109.434Z" fill="black"/>
</g>
<g clip-path="url(#clip3_26_596)">
<path d="M140.871 125.718C136.44 123.112 135.709 120.607 138.567 117.629C141.964 114.112 145.687 110.905 149.305 107.593C149.815 107.148 150.406 106.805 151.047 106.581C158.096 104.052 168.574 107.603 172.698 113.888C179.13 123.637 179.01 139.781 172.534 149.445C169.724 153.621 165.976 156.002 160.795 156.412C151.336 157.162 151.341 157.276 144.124 150.686C142.252 148.977 140.275 147.345 138.596 145.474C135.815 142.334 136.416 140.015 140.756 137.281C144.244 143.098 148.67 147.756 156.195 147.865C160.872 147.946 164.855 146.486 168.185 143.279C175.036 136.694 175.122 126.281 168.266 119.853C163.907 115.754 158.702 114.246 152.774 115.653C147.112 116.994 143.542 120.941 140.871 125.718Z" fill="black"/>
<path d="M171.124 131.287C171.181 134.098 170.399 136.863 168.876 139.235C167.354 141.607 165.158 143.48 162.566 144.618C159.973 145.755 157.1 146.108 154.306 145.631C151.512 145.154 148.923 143.868 146.863 141.936C144.804 140.003 143.366 137.51 142.731 134.77C142.096 132.029 142.292 129.164 143.293 126.533C144.295 123.903 146.058 121.625 148.361 119.985C150.665 118.346 153.405 117.418 156.238 117.319C158.146 117.244 160.049 117.548 161.837 118.214C163.624 118.879 165.259 119.893 166.646 121.194C168.033 122.495 169.144 124.059 169.913 125.792C170.682 127.525 171.093 129.393 171.124 131.287Z" fill="black"/>
<path d="M173.424 109.855C176.349 108.657 176.951 110.332 177.696 111.516C180.333 115.725 181.738 120.387 182.378 125.259C183.6 134.145 182.532 142.711 178.192 150.685C177.417 152.117 176.816 154.274 173.862 153.472C174.603 149.559 177.355 146.62 178.226 142.94C179.125 139.161 179.837 135.4 179.847 131.487C179.809 127.794 179.301 124.121 178.336 120.554C177.384 116.803 175.291 113.52 173.424 109.855Z" fill="black"/>
</g>
<g clip-path="url(#clip4_26_596)">
<path d="M42.5876 181.827C47.0187 179.221 47.75 176.716 44.8922 173.738C41.4955 170.221 37.7716 167.014 34.1535 163.702C33.6438 163.257 33.0525 162.914 32.4119 162.69C25.3635 160.161 14.8846 163.712 10.7614 169.997C4.32884 179.746 4.44912 195.89 10.925 205.554C13.7348 209.729 17.4827 212.111 22.6644 212.521C32.1232 213.27 32.1184 213.385 39.3352 206.795C41.2068 205.086 43.1842 203.454 44.8633 201.583C47.6442 198.443 47.0428 196.124 42.7031 193.39C39.2149 199.207 34.7886 203.864 27.2639 203.974C22.5874 204.055 18.6037 202.595 15.2743 199.388C8.42318 192.803 8.33658 182.39 15.1926 175.962C19.5515 171.862 24.7572 170.354 30.6847 171.762C36.3475 173.103 39.9174 177.05 42.5876 181.827Z" fill="black"/>
<path d="M12.3349 187.396C12.2779 190.207 13.0599 192.972 14.5826 195.344C16.1053 197.716 18.3008 199.589 20.8932 200.726C23.4856 201.864 26.3593 202.217 29.1531 201.74C31.9469 201.263 34.5362 199.977 36.5956 198.045C38.655 196.112 40.0926 193.619 40.7278 190.879C41.363 188.138 41.1675 185.273 40.1657 182.642C39.1639 180.012 37.4007 177.734 35.0975 176.094C32.7943 174.455 30.054 173.527 27.2208 173.428C25.3132 173.353 23.4097 173.657 21.6223 174.323C19.835 174.988 18.1998 176.002 16.8129 177.303C15.426 178.604 14.3154 180.168 13.5464 181.901C12.7774 183.634 12.3655 185.502 12.3349 187.396Z" fill="black"/>
<path d="M10.0349 165.964C7.1097 164.766 6.50829 166.441 5.76256 167.625C3.12601 171.834 1.72114 176.496 1.08125 181.368C-0.140802 190.254 0.927286 198.82 5.267 206.794C6.04161 208.226 6.64301 210.383 9.59709 209.581C8.85617 205.668 6.10415 202.729 5.23332 199.049C4.33363 195.27 3.62157 191.509 3.61194 187.596C3.64993 183.903 4.15751 180.23 5.12266 176.663C6.07528 172.912 8.16816 169.629 10.0349 165.964Z" fill="black"/>
</g>
<g clip-path="url(#clip5_26_596)">
<path d="M140.871 181.827C136.44 179.221 135.709 176.716 138.567 173.738C141.964 170.221 145.687 167.014 149.305 163.702C149.815 163.257 150.406 162.914 151.047 162.69C158.096 160.161 168.574 163.712 172.698 169.997C179.13 179.746 179.01 195.89 172.534 205.554C169.724 209.729 165.976 212.111 160.795 212.521C151.336 213.27 151.341 213.385 144.124 206.795C142.252 205.086 140.275 203.454 138.596 201.583C135.815 198.443 136.416 196.124 140.756 193.39C144.244 199.207 148.67 203.864 156.195 203.974C160.872 204.055 164.855 202.595 168.185 199.388C175.036 192.803 175.122 182.39 168.266 175.962C163.907 171.862 158.702 170.354 152.774 171.762C147.112 173.103 143.542 177.05 140.871 181.827Z" fill="black"/>
<path d="M171.124 187.396C171.181 190.207 170.399 192.972 168.876 195.344C167.354 197.716 165.158 199.589 162.566 200.726C159.973 201.864 157.1 202.217 154.306 201.74C151.512 201.263 148.923 199.977 146.863 198.045C144.804 196.112 143.366 193.619 142.731 190.879C142.096 188.138 142.292 185.273 143.293 182.642C144.295 180.012 146.058 177.734 148.361 176.094C150.665 174.455 153.405 173.527 156.238 173.428C158.146 173.353 160.049 173.657 161.837 174.323C163.624 174.988 165.259 176.002 166.646 177.303C168.033 178.604 169.144 180.168 169.913 181.901C170.682 183.634 171.093 185.502 171.124 187.396Z" fill="black"/>
<path d="M173.424 165.964C176.349 164.766 176.951 166.441 177.696 167.625C180.333 171.834 181.738 176.496 182.378 181.368C183.6 190.254 182.532 198.82 178.192 206.794C177.417 208.226 176.816 210.383 173.862 209.581C174.603 205.668 177.355 202.729 178.226 199.049C179.125 195.27 179.837 191.509 179.847 187.596C179.809 183.903 179.301 180.23 178.336 176.663C177.384 172.912 175.291 169.629 173.424 165.964Z" fill="black"/>
</g>
<rect x="51.3223" y="51.2275" width="80.543" height="160.066" rx="3" fill="white" stroke="black" stroke-width="2"/>
<g clip-path="url(#clip6_26_596)">
<path d="M85.9331 219.911C83.3275 215.48 80.8221 214.749 77.8443 217.607C74.3272 221.004 71.1204 224.727 67.8085 228.345C67.3636 228.855 67.0201 229.447 66.7968 230.087C64.2675 237.136 67.818 247.614 74.103 251.738C83.8525 258.17 99.9967 258.05 109.66 251.574C113.836 248.764 116.217 245.016 116.628 239.835C117.377 230.376 117.491 230.381 110.901 223.164C109.193 221.292 107.561 219.315 105.69 217.636C102.55 214.855 100.23 215.456 97.496 219.796C103.313 223.284 107.971 227.71 108.081 235.235C108.162 239.912 106.702 243.895 103.495 247.225C96.9091 254.076 86.4962 254.162 80.0681 247.306C75.9689 242.948 74.4609 237.742 75.8687 231.814C77.2096 226.152 81.1562 222.582 85.9331 219.911Z" fill="black"/>
<path d="M91.5026 250.165C94.3139 250.222 97.0793 249.44 99.4511 247.917C101.823 246.394 103.695 244.199 104.833 241.606C105.971 239.014 106.324 236.14 105.847 233.346C105.369 230.553 104.084 227.963 102.151 225.904C100.219 223.845 97.726 222.407 94.9856 221.772C92.2452 221.136 89.3797 221.332 86.7492 222.334C84.1187 223.336 81.8405 225.099 80.201 227.402C78.5615 229.705 77.6338 232.446 77.5345 235.279C77.4598 237.186 77.7642 239.09 78.4297 240.877C79.0952 242.665 80.1084 244.3 81.4098 245.687C82.7112 247.073 84.2745 248.184 86.0077 248.953C87.7409 249.722 89.6092 250.134 91.5026 250.165Z" fill="black"/>
<path d="M70.0708 252.464C68.873 255.389 70.548 255.991 71.7315 256.736C75.9405 259.373 80.6029 260.778 85.4753 261.418C94.361 262.64 102.927 261.572 110.901 257.232C112.333 256.457 114.49 255.856 113.688 252.902C109.775 253.643 106.835 256.395 103.156 257.266C99.3766 258.165 95.6161 258.877 91.7029 258.887C88.0101 258.849 84.3367 258.342 80.7699 257.376C77.019 256.424 73.7358 254.331 70.0708 252.464Z" fill="black"/>
</g>
<g clip-path="url(#clip7_26_596)">
<path d="M84.9331 42.7663C82.3275 47.1974 79.8221 47.9287 76.8443 45.0709C73.3272 41.6742 70.1204 37.9503 66.8085 34.3323C66.3636 33.8225 66.0201 33.2312 65.7968 32.5906C63.2675 25.5422 66.818 15.0633 73.103 10.9401C82.8525 4.50755 98.9967 4.62783 108.66 11.1037C112.836 13.9135 115.217 17.6614 115.628 22.8431C116.377 32.3019 116.491 32.2971 109.901 39.5139C108.193 41.3855 106.561 43.3629 104.69 45.042C101.55 47.8229 99.2305 47.2215 96.496 42.8818C102.313 39.3937 106.971 34.9673 107.081 27.4426C107.162 22.7661 105.702 18.7824 102.495 15.4531C95.9091 8.60189 85.4962 8.51529 79.0681 15.3713C74.9689 19.7302 73.4609 24.936 74.8687 30.8634C76.2096 36.5262 80.1562 40.0961 84.9331 42.7663Z" fill="black"/>
<path d="M90.5026 12.5132C93.3139 12.4561 96.0793 13.2381 98.4511 14.7608C100.823 16.2835 102.695 18.479 103.833 21.0715C104.971 23.6639 105.324 26.5375 104.847 29.3313C104.369 32.1251 103.084 34.7144 101.151 36.7738C99.219 38.8332 96.726 40.2709 93.9856 40.9061C91.2452 41.5412 88.3797 41.3457 85.7492 40.3439C83.1187 39.3422 80.8405 37.5789 79.201 35.2757C77.5615 32.9725 76.6338 30.2322 76.5345 27.3991C76.4598 25.4914 76.7642 23.5879 77.4297 21.8006C78.0952 20.0132 79.1084 18.378 80.4098 16.9911C81.7112 15.6042 83.2745 14.4937 85.0077 13.7246C86.7409 12.9556 88.6092 12.5437 90.5026 12.5132Z" fill="black"/>
<path d="M69.0708 10.2136C67.873 7.28841 69.548 6.68701 70.7315 5.94127C74.9405 3.30472 79.6029 1.89985 84.4753 1.25996C93.361 0.0379098 101.927 1.106 109.901 5.44571C111.333 6.22032 113.49 6.82172 112.688 9.7758C108.775 9.03488 105.835 6.28286 102.156 5.41203C98.3766 4.51234 94.6161 3.80028 90.7029 3.79066C87.0101 3.82864 83.3367 4.33622 79.7699 5.30138C76.019 6.254 72.7358 8.34687 69.0708 10.2136Z" fill="black"/>
</g>
<defs>
<clipPath id="clip0_26_596">
<rect width="51" height="46" fill="white" transform="matrix(-0.00375155 0.999993 0.999993 0.00375155 0.695312 48.7227)"/>
</clipPath>
<clipPath id="clip1_26_596">
<rect width="51" height="46" fill="white" transform="translate(182.924 48.8672) rotate(90.1451)"/>
</clipPath>
<clipPath id="clip2_26_596">
<rect width="51" height="46" fill="white" transform="matrix(-4.37114e-08 1 1 4.37114e-08 0.859375 105.339)"/>
</clipPath>
<clipPath id="clip3_26_596">
<rect width="51" height="46" fill="white" transform="translate(182.859 105.76) rotate(90)"/>
</clipPath>
<clipPath id="clip4_26_596">
<rect width="51" height="46" fill="white" transform="matrix(-4.37114e-08 1 1 4.37114e-08 0.599609 161.869)"/>
</clipPath>
<clipPath id="clip5_26_596">
<rect width="51" height="46" fill="white" transform="translate(182.859 161.869) rotate(90)"/>
</clipPath>
<clipPath id="clip6_26_596">
<rect width="51" height="46" fill="white" transform="matrix(1 0 0 -1 65.9766 261.899)"/>
</clipPath>
<clipPath id="clip7_26_596">
<rect width="51" height="46" fill="white" transform="translate(64.9766 0.778809)"/>
</clipPath>
</defs>
</svg>
