<svg width="170" height="125" viewBox="0 0 170 125" fill="none" xmlns="http://www.w3.org/2000/svg">
<path d="M162.044 57.4556L162.044 25.4985L164.926 25.4985C167.688 25.4985 169.926 27.7371 169.926 30.4985L169.926 52.4556C169.926 55.217 167.688 57.4556 164.926 57.4556L162.044 57.4556Z" fill="currentColor"/>
<path d="M162.044 99.4127L162.044 67.4557L164.926 67.4557C167.688 67.4557 169.926 69.6943 169.926 72.4557L169.926 94.4127C169.926 97.1741 167.688 99.4127 164.926 99.4127L162.044 99.4127Z" fill="currentColor"/>
<path d="M8.0459 57.2124L8.0459 25.2554L5.16345 25.2554C2.40203 25.2554 0.163453 27.4939 0.163453 30.2554L0.163452 52.2124C0.163452 54.9738 2.40203 57.2124 5.16345 57.2124L8.0459 57.2124Z" fill="currentColor"/>
<path d="M8.0459 99.6561L8.0459 67.6991L5.16345 67.6991C2.40203 67.6991 0.163453 69.9377 0.163453 72.6991L0.163452 94.6561C0.163452 97.4176 2.40203 99.6561 5.16345 99.6561L8.0459 99.6561Z" fill="currentColor"/>
<path d="M101.038 8.45703L69.0811 8.45703L69.0811 5.57459C69.0811 2.81316 71.3196 0.574588 74.0811 0.574587L96.0381 0.574585C98.7995 0.574585 101.038 2.81316 101.038 5.57458L101.038 8.45703Z" fill="currentColor"/>
<path d="M59.0811 8.45703L27.124 8.45703L27.124 5.57459C27.124 2.81316 29.3626 0.574588 32.124 0.574587L54.0811 0.574585C56.8425 0.574585 59.0811 2.81316 59.0811 5.57458L59.0811 8.45703Z" fill="currentColor"/>
<path d="M142.995 8.45703L111.038 8.45703L111.038 5.57459C111.038 2.81316 113.277 0.574588 116.038 0.574587L137.995 0.574585C140.757 0.574585 142.995 2.81316 142.995 5.57458L142.995 8.45703Z" fill="currentColor"/>
<path d="M101.038 116.453L69.0811 116.453L69.0811 119.336C69.0811 122.097 71.3196 124.336 74.0811 124.336L96.0381 124.336C98.7995 124.336 101.038 122.097 101.038 119.336L101.038 116.453Z" fill="currentColor"/>
<path d="M59.0811 116.453L27.124 116.453L27.124 119.336C27.124 122.097 29.3626 124.336 32.124 124.336L54.0811 124.336C56.8425 124.336 59.0811 122.097 59.0811 119.336L59.0811 116.453Z" fill="currentColor"/>
<path d="M142.995 116.453L111.038 116.453L111.038 119.336C111.038 122.097 113.277 124.336 116.038 124.336L137.995 124.336C140.757 124.336 142.995 122.097 142.995 119.336L142.995 116.453Z" fill="currentColor"/>
<rect x="12.0596" y="12.4557" width="146" height="100" rx="5" fill="currentColor"/>
</svg>
