<svg width="139" height="161" viewBox="0 0 139 161" fill="none" xmlns="http://www.w3.org/2000/svg">
<rect x="1.55078" y="51.8477" width="135.943" height="57.001" rx="3" fill="white" stroke="black" stroke-width="2"/>
<g clip-path="url(#clip0_26_684)">
<path d="M32.3491 42.8864C29.7435 47.3176 27.2382 48.0489 24.2603 45.191C20.7433 41.7943 17.5364 38.0704 14.2245 34.4524C13.7796 33.9426 13.4361 33.3513 13.2128 32.7107C10.6836 25.6623 14.234 15.1835 20.519 11.0603C30.2685 4.62767 46.4127 4.74795 56.0763 11.2238C60.2519 14.0336 62.6332 17.7815 63.0436 22.9632C63.7928 32.422 63.9074 32.4172 57.317 39.634C55.6086 41.5056 53.9765 43.483 52.1058 45.1621C48.9658 47.943 46.6465 47.3416 43.9121 43.0019C49.7293 39.5138 54.3869 35.0875 54.4967 27.5627C54.5778 22.8862 53.1175 18.9025 49.9107 15.5732C43.3251 8.72201 32.9123 8.63541 26.4842 15.4914C22.3849 19.8503 20.8769 25.0561 22.2847 30.9835C23.6256 36.6463 27.5722 40.2162 32.3491 42.8864Z" fill="black"/>
<path d="M37.9186 12.6333C40.7299 12.5762 43.4953 13.3582 45.8671 14.8809C48.239 16.4036 50.1115 18.5991 51.2494 21.1916C52.3873 23.784 52.7398 26.6577 52.2626 29.4515C51.7855 32.2453 50.4999 34.8345 48.5675 36.8939C46.6351 38.9533 44.142 40.391 41.4016 41.0262C38.6612 41.6614 35.7957 41.4658 33.1652 40.464C30.5347 39.4623 28.2566 37.699 26.6171 35.3958C24.9776 33.0927 24.0498 30.3523 23.9505 27.5192C23.8758 25.6115 24.1802 23.708 24.8457 21.9207C25.5112 20.1333 26.5245 18.4981 27.8258 17.1112C29.1272 15.7244 30.6905 14.6138 32.4237 13.8448C34.1569 13.0758 36.0252 12.6639 37.9186 12.6333Z" fill="black"/>
<path d="M16.4868 10.3337C15.289 7.40853 16.964 6.80712 18.1475 6.06138C22.3565 3.42484 27.0189 2.01997 31.8913 1.38008C40.777 0.158027 49.3431 1.22612 57.3173 5.56583C58.749 6.34044 60.906 6.94184 60.1043 9.89592C56.1911 9.155 53.2515 6.40298 49.5721 5.53215C45.7926 4.63245 42.0321 3.9204 38.119 3.91077C34.4261 3.94875 30.7528 4.45634 27.186 5.42149C23.435 6.37411 20.1518 8.46699 16.4868 10.3337Z" fill="black"/>
</g>
<g clip-path="url(#clip1_26_684)">
<path d="M32.3491 118.911C29.7435 114.48 27.2382 113.749 24.2603 116.607C20.7433 120.004 17.5364 123.727 14.2245 127.345C13.7796 127.855 13.4361 128.447 13.2128 129.087C10.6836 136.136 14.234 146.614 20.519 150.738C30.2685 157.17 46.4127 157.05 56.0763 150.574C60.2519 147.764 62.6332 144.016 63.0436 138.835C63.7928 129.376 63.9074 129.381 57.317 122.164C55.6086 120.292 53.9765 118.315 52.1058 116.636C48.9658 113.855 46.6465 114.456 43.9121 118.796C49.7293 122.284 54.3869 126.71 54.4967 134.235C54.5778 138.912 53.1175 142.895 49.9107 146.225C43.3251 153.076 32.9123 153.162 26.4842 146.306C22.3849 141.948 20.8769 136.742 22.2847 130.814C23.6256 125.152 27.5722 121.582 32.3491 118.911Z" fill="black"/>
<path d="M37.9186 149.165C40.7299 149.222 43.4953 148.44 45.8671 146.917C48.239 145.394 50.1115 143.199 51.2494 140.606C52.3873 138.014 52.7398 135.14 52.2626 132.346C51.7855 129.553 50.4999 126.963 48.5675 124.904C46.6351 122.845 44.142 121.407 41.4016 120.772C38.6612 120.136 35.7957 120.332 33.1652 121.334C30.5347 122.336 28.2566 124.099 26.6171 126.402C24.9776 128.705 24.0498 131.446 23.9505 134.279C23.8758 136.186 24.1802 138.09 24.8457 139.877C25.5112 141.665 26.5245 143.3 27.8258 144.687C29.1272 146.073 30.6905 147.184 32.4237 147.953C34.1569 148.722 36.0252 149.134 37.9186 149.165Z" fill="black"/>
<path d="M16.4868 151.464C15.289 154.389 16.964 154.991 18.1475 155.736C22.3565 158.373 27.0189 159.778 31.8913 160.418C40.777 161.64 49.3431 160.572 57.3173 156.232C58.749 155.457 60.906 154.856 60.1043 151.902C56.1911 152.643 53.2515 155.395 49.5721 156.266C45.7926 157.165 42.0321 157.877 38.119 157.887C34.4261 157.849 30.7528 157.342 27.186 156.376C23.435 155.424 20.1518 153.331 16.4868 151.464Z" fill="black"/>
</g>
<g clip-path="url(#clip2_26_684)">
<path d="M96.3491 42.8864C93.7435 47.3176 91.2382 48.0489 88.2603 45.191C84.7433 41.7943 81.5364 38.0704 78.2245 34.4524C77.7796 33.9426 77.4361 33.3513 77.2128 32.7107C74.6836 25.6623 78.234 15.1835 84.519 11.0603C94.2685 4.62767 110.413 4.74795 120.076 11.2238C124.252 14.0336 126.633 17.7815 127.044 22.9632C127.793 32.422 127.907 32.4172 121.317 39.634C119.609 41.5056 117.977 43.483 116.106 45.1621C112.966 47.943 110.647 47.3416 107.912 43.0019C113.729 39.5138 118.387 35.0875 118.497 27.5627C118.578 22.8862 117.118 18.9025 113.911 15.5732C107.325 8.72201 96.9123 8.63541 90.4842 15.4914C86.3849 19.8503 84.8769 25.0561 86.2847 30.9835C87.6256 36.6463 91.5722 40.2162 96.3491 42.8864Z" fill="black"/>
<path d="M101.919 12.6333C104.73 12.5762 107.495 13.3582 109.867 14.8809C112.239 16.4036 114.111 18.5991 115.249 21.1916C116.387 23.784 116.74 26.6577 116.263 29.4515C115.785 32.2453 114.5 34.8345 112.567 36.8939C110.635 38.9533 108.142 40.391 105.402 41.0262C102.661 41.6614 99.7957 41.4658 97.1652 40.464C94.5347 39.4623 92.2566 37.699 90.6171 35.3958C88.9776 33.0927 88.0498 30.3523 87.9505 27.5192C87.8758 25.6115 88.1802 23.708 88.8457 21.9207C89.5112 20.1333 90.5245 18.4981 91.8258 17.1112C93.1272 15.7244 94.6905 14.6138 96.4237 13.8448C98.1569 13.0758 100.025 12.6639 101.919 12.6333Z" fill="black"/>
<path d="M80.4868 10.3337C79.289 7.40853 80.964 6.80712 82.1475 6.06138C86.3565 3.42484 91.0189 2.01997 95.8913 1.38008C104.777 0.158027 113.343 1.22612 121.317 5.56583C122.749 6.34044 124.906 6.94184 124.104 9.89592C120.191 9.155 117.251 6.40298 113.572 5.53215C109.793 4.63245 106.032 3.9204 102.119 3.91077C98.4261 3.94875 94.7528 4.45634 91.186 5.42149C87.435 6.37411 84.1518 8.46699 80.4868 10.3337Z" fill="black"/>
</g>
<g clip-path="url(#clip3_26_684)">
<path d="M96.3491 118.911C93.7435 114.48 91.2382 113.749 88.2603 116.607C84.7433 120.004 81.5364 123.727 78.2245 127.345C77.7796 127.855 77.4361 128.447 77.2128 129.087C74.6836 136.136 78.234 146.614 84.519 150.738C94.2685 157.17 110.413 157.05 120.076 150.574C124.252 147.764 126.633 144.016 127.044 138.835C127.793 129.376 127.907 129.381 121.317 122.164C119.609 120.292 117.977 118.315 116.106 116.636C112.966 113.855 110.647 114.456 107.912 118.796C113.729 122.284 118.387 126.71 118.497 134.235C118.578 138.912 117.118 142.895 113.911 146.225C107.325 153.076 96.9123 153.162 90.4842 146.306C86.3849 141.948 84.8769 136.742 86.2847 130.814C87.6256 125.152 91.5722 121.582 96.3491 118.911Z" fill="black"/>
<path d="M101.919 149.165C104.73 149.222 107.495 148.44 109.867 146.917C112.239 145.394 114.111 143.199 115.249 140.606C116.387 138.014 116.74 135.14 116.263 132.346C115.785 129.553 114.5 126.963 112.567 124.904C110.635 122.845 108.142 121.407 105.402 120.772C102.661 120.136 99.7957 120.332 97.1652 121.334C94.5347 122.336 92.2566 124.099 90.6171 126.402C88.9776 128.705 88.0498 131.446 87.9505 134.279C87.8758 136.186 88.1802 138.09 88.8457 139.877C89.5112 141.665 90.5245 143.3 91.8258 144.687C93.1272 146.073 94.6905 147.184 96.4237 147.953C98.1569 148.722 100.025 149.134 101.919 149.165Z" fill="black"/>
<path d="M80.4868 151.464C79.289 154.389 80.964 154.991 82.1475 155.736C86.3565 158.373 91.0189 159.778 95.8913 160.418C104.777 161.64 113.343 160.572 121.317 156.232C122.749 155.457 124.906 154.856 124.104 151.902C120.191 152.643 117.251 155.395 113.572 156.266C109.793 157.165 106.032 157.877 102.119 157.887C98.4261 157.849 94.7528 157.342 91.186 156.376C87.435 155.424 84.1518 153.331 80.4868 151.464Z" fill="black"/>
</g>
<defs>
<clipPath id="clip0_26_684">
<rect width="51" height="46" fill="white" transform="translate(12.3926 0.898926)"/>
</clipPath>
<clipPath id="clip1_26_684">
<rect width="51" height="46" fill="white" transform="matrix(1 0 0 -1 12.3926 160.899)"/>
</clipPath>
<clipPath id="clip2_26_684">
<rect width="51" height="46" fill="white" transform="translate(76.3926 0.898926)"/>
</clipPath>
<clipPath id="clip3_26_684">
<rect width="51" height="46" fill="white" transform="matrix(1 0 0 -1 76.3926 160.899)"/>
</clipPath>
</defs>
</svg>
