<svg width="159" height="52" viewBox="0 0 159 52" fill="none" xmlns="http://www.w3.org/2000/svg">
<g clip-path="url(#clip0_26_556)">
<path d="M42.4294 20.2315C46.8605 17.6259 47.5918 15.1205 44.734 12.1427C41.3373 8.62559 37.6134 5.4187 33.9953 2.10683C33.4856 1.6619 32.8943 1.31842 32.2537 1.09513C25.2053 -1.43411 14.7264 2.11637 10.6032 8.4013C4.17063 18.1508 4.29091 34.295 10.7668 43.9586C13.5766 48.1342 17.3245 50.5155 22.5062 50.9259C31.965 51.6752 31.9602 51.7897 39.177 45.1994C41.0486 43.4909 43.026 41.8589 44.7051 39.9882C47.486 36.8481 46.8846 34.5288 42.5449 31.7944C39.0567 37.6116 34.6304 42.2693 27.1057 42.379C22.4292 42.4601 18.4455 40.9999 15.1161 37.793C8.26498 31.2074 8.17837 20.7946 15.0344 14.3665C19.3933 10.2672 24.599 8.75921 30.5265 10.167C36.1893 11.508 39.7592 15.4545 42.4294 20.2315Z" fill="black"/>
<path d="M12.1767 25.8004C12.1197 28.6118 12.9017 31.3771 14.4244 33.7489C15.9471 36.1208 18.1426 37.9933 20.735 39.1312C23.3274 40.2691 26.2011 40.6217 28.9949 40.1445C31.7887 39.6673 34.378 38.3817 36.4374 36.4493C38.4968 34.5169 39.9344 32.0238 40.5696 29.2834C41.2048 26.543 41.0093 23.6775 40.0075 21.047C39.0057 18.4165 37.2425 16.1384 34.9393 14.4989C32.6361 12.8594 29.8958 11.9317 27.0626 11.8323C25.155 11.7577 23.2515 12.062 21.4641 12.7276C19.6768 13.3931 18.0416 14.4063 16.6547 15.7077C15.2678 17.0091 14.1572 18.5723 13.3882 20.3055C12.6192 22.0388 12.2073 23.907 12.1767 25.8004Z" fill="black"/>
<path d="M9.87671 4.36862C6.95149 3.17081 6.35009 4.84583 5.60435 6.02933C2.96781 10.2384 1.56293 14.9008 0.923043 19.7731C-0.299005 28.6589 0.769083 37.2249 5.1088 45.1992C5.8834 46.6308 6.4848 48.7878 9.43889 47.9861C8.69796 44.0729 5.94595 41.1333 5.07512 37.454C4.17542 33.6744 3.46336 29.914 3.45374 26.0008C3.49172 22.3079 3.9993 18.6346 4.96446 15.0678C5.91708 11.3169 8.00996 8.03363 9.87671 4.36862Z" fill="black"/>
</g>
<g clip-path="url(#clip1_26_556)">
<path d="M116.946 20.2315C112.514 17.6259 111.783 15.1205 114.641 12.1427C118.038 8.62559 121.762 5.4187 125.38 2.10682C125.889 1.66189 126.481 1.31842 127.121 1.09513C134.17 -1.43411 144.649 2.11637 148.772 8.4013C155.204 18.1508 155.084 34.295 148.608 43.9586C145.798 48.1342 142.051 50.5155 136.869 50.9259C127.41 51.6752 127.415 51.7897 120.198 45.1994C118.326 43.4909 116.349 41.8589 114.67 39.9882C111.889 36.8481 112.49 34.5288 116.83 31.7944C120.318 37.6116 124.745 42.2693 132.269 42.379C136.946 42.4601 140.929 40.9999 144.259 37.793C151.11 31.2074 151.197 20.7946 144.341 14.3665C139.982 10.2672 134.776 8.75921 128.849 10.167C123.186 11.508 119.616 15.4545 116.946 20.2315Z" fill="black"/>
<path d="M147.198 25.8004C147.255 28.6118 146.473 31.3771 144.951 33.7489C143.428 36.1208 141.232 37.9933 138.64 39.1312C136.048 40.2691 133.174 40.6217 130.38 40.1445C127.586 39.6673 124.997 38.3817 122.938 36.4493C120.878 34.5169 119.441 32.0238 118.805 29.2834C118.17 26.543 118.366 23.6775 119.368 21.047C120.369 18.4165 122.133 16.1384 124.436 14.4989C126.739 12.8594 129.479 11.9317 132.312 11.8323C134.22 11.7577 136.124 12.062 137.911 12.7276C139.698 13.3931 141.333 14.4063 142.72 15.7077C144.107 17.009 145.218 18.5723 145.987 20.3055C146.756 22.0388 147.168 23.907 147.198 25.8004Z" fill="black"/>
<path d="M149.498 4.36862C152.424 3.17081 153.025 4.84583 153.771 6.02933C156.407 10.2384 157.812 14.9008 158.452 19.7731C159.674 28.6589 158.606 37.2249 154.266 45.1992C153.492 46.6308 152.89 48.7878 149.936 47.9861C150.677 44.0729 153.429 41.1333 154.3 37.454C155.2 33.6744 155.912 29.914 155.921 26.0008C155.883 22.3079 155.376 18.6346 154.411 15.0678C153.458 11.3169 151.365 8.03363 149.498 4.36862Z" fill="black"/>
</g>
<rect x="51.1758" y="2.69287" width="57.0234" height="46.1621" rx="3" fill="white" stroke="black" stroke-width="2"/>
<defs>
<clipPath id="clip0_26_556">
<rect width="51" height="46" fill="white" transform="matrix(-4.37114e-08 1 1 4.37114e-08 0.441406 0.273926)"/>
</clipPath>
<clipPath id="clip1_26_556">
<rect width="51" height="46" fill="white" transform="translate(158.934 0.273926) rotate(90)"/>
</clipPath>
</defs>
</svg>
