<svg width="172" height="150" viewBox="0 0 172 150" fill="none" xmlns="http://www.w3.org/2000/svg">
<g clip-path="url(#clip0_26_77)">
<path d="M79.1753 42.4929C76.5697 46.924 74.0643 47.6553 71.0865 44.7974C67.5694 41.4007 64.3625 37.6768 61.0507 34.0588C60.6057 33.5491 60.2623 32.9578 60.039 32.3172C57.5097 25.2687 61.0602 14.7899 67.3451 10.6667C77.0947 4.23411 93.2388 4.35439 102.902 10.8303C107.078 13.64 109.459 17.388 109.87 22.5696C110.619 32.0285 110.734 32.0237 104.143 39.2405C102.435 41.1121 100.803 43.0895 98.932 44.7686C95.7919 47.5495 93.4727 46.9481 90.7382 42.6083C96.5555 39.1202 101.213 34.6939 101.323 27.1692C101.404 22.4927 99.9437 18.509 96.7368 15.1796C90.1513 8.32845 79.7384 8.24185 73.3103 15.0978C69.2111 19.4568 67.7031 24.6625 69.1108 30.5899C70.4518 36.2527 74.3984 39.8226 79.1753 42.4929Z" fill="black"/>
<path d="M84.7448 12.2397C87.5561 12.1827 90.3214 12.9647 92.6933 14.4874C95.0651 16.0101 96.9377 18.2056 98.0756 20.798C99.2135 23.3904 99.566 26.2641 99.0888 29.0579C98.6116 31.8517 97.3261 34.441 95.3936 36.5004C93.4612 38.5598 90.9682 39.9974 88.2278 40.6326C85.4873 41.2678 82.6218 41.0722 79.9914 40.0705C77.3609 39.0687 75.0827 37.3055 73.4432 35.0023C71.8037 32.6991 70.876 29.9588 70.7767 27.1256C70.702 25.218 71.0064 23.3145 71.6719 21.5271C72.3374 19.7398 73.3506 18.1046 74.652 16.7177C75.9534 15.3308 77.5166 14.2202 79.2499 13.4512C80.9831 12.6822 82.8514 12.2703 84.7448 12.2397Z" fill="black"/>
<path d="M63.313 9.94019C62.1151 7.01497 63.7902 6.41357 64.9737 5.66783C69.1827 3.03129 73.8451 1.62641 78.7175 0.98652C87.6032 -0.235528 96.1692 0.832561 104.143 5.17228C105.575 5.94688 107.732 6.54828 106.93 9.50237C103.017 8.76144 100.078 6.00943 96.3983 5.1386C92.6187 4.2389 88.8583 3.52684 84.9451 3.51722C81.2523 3.5552 77.5789 4.06278 74.0121 5.02794C70.2612 5.98056 66.978 8.07344 63.313 9.94019Z" fill="black"/>
</g>
<g clip-path="url(#clip1_26_77)">
<path d="M125.216 101.795C122.681 97.3229 123.3 94.7875 127.264 93.6376C131.964 92.2901 136.793 91.3748 141.582 90.3156C142.246 90.1852 142.93 90.1834 143.596 90.3103C150.965 91.6441 158.265 99.9583 158.693 107.463C159.389 119.122 151.213 133.044 140.773 138.175C136.251 140.386 131.815 140.574 127.122 138.339C118.556 134.258 118.503 134.36 115.548 125.044C114.782 122.629 113.885 120.227 113.366 117.767C112.528 113.657 114.209 111.949 119.334 111.751C119.446 118.533 120.951 124.78 127.412 128.637C131.422 131.046 135.602 131.773 140.089 130.66C149.315 128.383 154.596 119.408 151.873 110.413C150.148 104.684 146.393 100.775 140.556 99.0304C134.981 97.3603 129.916 98.9931 125.216 101.795Z" fill="black"/>
<path d="M148.631 121.744C147.275 124.208 145.215 126.212 142.71 127.504C140.206 128.797 137.368 129.321 134.554 129.01C131.74 128.699 129.075 127.568 126.894 125.758C124.713 123.948 123.113 121.54 122.296 118.836C121.479 116.133 121.48 113.255 122.3 110.564C123.121 107.874 124.723 105.49 126.906 103.713C129.088 101.935 131.754 100.844 134.569 100.576C137.383 100.308 140.22 100.874 142.723 102.205C144.413 103.094 145.909 104.309 147.124 105.779C148.339 107.249 149.249 108.944 149.799 110.765C150.35 112.585 150.53 114.495 150.329 116.38C150.129 118.266 149.551 120.089 148.631 121.744Z" fill="black"/>
<path d="M161.338 104.334C164.47 104.759 164.154 106.511 164.208 107.908C164.386 112.872 163.272 117.612 161.39 122.152C158.005 130.458 152.797 137.342 145.052 142.078C143.665 142.931 142.066 144.498 139.908 142.327C142.507 139.308 146.36 138.138 148.954 135.388C151.623 132.564 154.119 129.664 156.084 126.279C157.898 123.062 159.295 119.627 160.243 116.056C161.293 112.331 161.122 108.441 161.338 104.334Z" fill="black"/>
</g>
<g clip-path="url(#clip2_26_77)">
<path d="M52.1013 111.396C57.2416 111.437 59.1276 113.241 58.1415 117.249C56.9584 121.993 55.3369 126.632 53.8595 131.309C53.6406 131.949 53.3002 132.542 52.8571 133.056C48.0176 138.771 37.1674 140.935 30.4541 137.554C20.0086 132.327 12.0407 118.286 12.8172 106.679C13.1627 101.658 15.2178 97.7214 19.5001 94.7752C27.3171 89.3969 27.2556 89.3001 36.8007 91.3991C39.2758 91.9429 41.8043 92.3676 44.1938 93.1481C48.1721 94.477 48.811 96.7863 46.4199 101.324C40.4904 98.0304 34.3283 96.2099 27.7568 99.8772C23.6663 102.145 20.9465 105.402 19.6666 109.844C17.0261 118.972 22.1575 128.034 31.309 130.172C37.1336 131.543 42.3959 130.246 46.8253 126.063C51.059 122.071 52.1773 116.868 52.1013 111.396Z" fill="black"/>
<path d="M23.1165 121.699C21.6614 119.293 20.9559 116.507 21.0887 113.692C21.2215 110.877 22.1866 108.157 23.8628 105.875C25.5389 103.594 27.8513 101.852 30.5094 100.868C33.1675 99.8843 36.0527 99.703 38.8024 100.347C41.5521 100.991 44.0436 102.431 45.9639 104.487C47.8842 106.542 49.1476 109.122 49.5953 111.901C50.043 114.68 49.6551 117.534 48.4802 120.106C47.3053 122.677 45.396 124.851 42.9921 126.353C41.3773 127.372 39.5767 128.06 37.696 128.377C35.8154 128.694 33.8926 128.635 32.0409 128.201C30.1891 127.767 28.4457 126.969 26.9131 125.852C25.3805 124.736 24.0897 123.324 23.1165 121.699Z" fill="black"/>
<path d="M31.8412 141.409C29.9068 143.909 28.5485 142.759 27.3109 142.107C22.9231 139.781 19.3752 136.445 16.3849 132.546C10.8837 125.461 7.52567 117.509 7.29684 108.433C7.25185 106.806 6.69417 104.637 9.65334 103.854C10.9683 107.614 10.0548 111.536 11.1403 115.157C12.2509 118.881 13.5145 122.493 15.4627 125.887C17.342 129.066 19.6183 131.993 22.2375 134.6C24.938 137.372 28.3921 139.169 31.8412 141.409Z" fill="black"/>
</g>
<circle cx="85.8328" cy="86.2917" r="34.9929" fill="white" stroke="black" stroke-width="2"/>
<defs>
<clipPath id="clip0_26_77">
<rect width="51" height="46" fill="white" transform="translate(59.2188 0.505371)"/>
</clipPath>
<clipPath id="clip1_26_77">
<rect width="51" height="46" fill="white" transform="translate(171.557 105.505) rotate(120)"/>
</clipPath>
<clipPath id="clip2_26_77">
<rect width="51" height="46" fill="white" transform="translate(25.7188 149.673) rotate(-120)"/>
</clipPath>
</defs>
</svg>
