<svg width="248" height="244" viewBox="0 0 248 244" fill="none" xmlns="http://www.w3.org/2000/svg">
<circle cx="125.253" cy="122.863" r="68.8252" fill="white" stroke="black" stroke-width="2"/>
<g clip-path="url(#clip0_26_905)">
<path d="M93.5241 49.7989C92.5006 54.8364 90.369 56.3424 86.6239 54.6079C82.1936 52.5391 77.9503 50.06 73.6421 47.7152C73.0556 47.3778 72.5386 46.9303 72.1192 46.397C67.4359 40.5537 67.3869 29.4899 71.99 23.5474C79.1187 14.2947 94.425 9.16003 105.669 12.1426C110.531 13.4422 114.002 16.2124 116.074 20.9792C119.858 29.6807 119.965 29.6389 116.078 38.6062C115.071 40.9315 114.171 43.3321 112.947 45.5281C110.882 49.1788 108.493 49.364 104.496 46.149C108.864 40.9592 111.829 35.2591 109.487 28.1074C108.043 23.6586 105.367 20.366 101.252 18.2601C92.7971 13.922 82.9217 17.2253 79.0717 25.7986C76.6122 31.2534 76.8784 36.6666 80.1367 41.8144C83.2458 46.7337 88.1386 48.8267 93.5241 49.7989Z" fill="black"/>
<path d="M88.9532 19.3791C91.5933 18.4112 94.4626 18.2517 97.2006 18.9206C99.9387 19.5895 102.423 21.057 104.342 23.1387C106.261 25.2204 107.529 27.8233 107.986 30.6205C108.443 33.4177 108.069 36.2843 106.911 38.86C105.753 41.4358 103.862 43.6058 101.477 45.0974C99.0923 46.589 96.3189 47.3356 93.5056 47.2434C90.6924 47.1512 87.9647 46.2244 85.6656 44.5793C83.3664 42.9342 81.5982 40.6443 80.5832 37.9974C79.8924 36.2176 79.5614 34.3186 79.6097 32.4119C79.658 30.5053 80.0846 28.6295 80.8644 26.8949C81.6442 25.1603 82.7615 23.6018 84.1506 22.3111C85.5397 21.0204 87.1726 20.0235 88.9532 19.3791Z" fill="black"/>
<path d="M67.9387 24.1715C65.855 21.7946 67.2435 20.6813 68.1203 19.5913C71.2436 15.7297 75.196 12.8854 79.5957 10.6963C87.6015 6.65186 96.0494 4.87715 105.001 6.38873C106.607 6.65584 108.842 6.52334 109.045 9.57759C105.103 10.1491 101.429 8.50221 97.6659 8.87482C93.7992 9.25271 90.0115 9.80184 86.3078 11.0649C82.8279 12.3014 79.5191 13.9756 76.4598 16.0478C73.2223 18.1681 70.7978 21.2147 67.9387 24.1715Z" fill="black"/>
</g>
<g clip-path="url(#clip1_26_905)">
<path d="M119.71 202.012C117.105 197.581 114.599 196.85 111.622 199.708C108.105 203.105 104.898 206.829 101.586 210.447C101.141 210.956 100.797 211.548 100.574 212.188C98.0449 219.237 101.595 229.715 107.88 233.839C117.63 240.271 133.774 240.151 143.438 233.675C147.613 230.865 149.995 227.117 150.405 221.936C151.154 212.477 151.269 212.482 144.678 205.265C142.97 203.393 141.338 201.416 139.467 199.737C136.327 196.956 134.008 197.557 131.273 201.897C137.091 205.385 141.748 209.811 141.858 217.336C141.939 222.013 140.479 225.996 137.272 229.326C130.686 236.177 120.274 236.264 113.845 229.408C109.746 225.049 108.238 219.843 109.646 213.915C110.987 208.253 114.934 204.683 119.71 202.012Z" fill="black"/>
<path d="M125.28 232.266C128.091 232.323 130.857 231.541 133.228 230.018C135.6 228.495 137.473 226.3 138.611 223.707C139.749 221.115 140.101 218.241 139.624 215.447C139.147 212.654 137.861 210.064 135.929 208.005C133.996 205.946 131.503 204.508 128.763 203.873C126.023 203.238 123.157 203.433 120.527 204.435C117.896 205.437 115.618 207.2 113.978 209.503C112.339 211.806 111.411 214.547 111.312 217.38C111.237 219.287 111.542 221.191 112.207 222.978C112.873 224.766 113.886 226.401 115.187 227.788C116.489 229.175 118.052 230.285 119.785 231.054C121.518 231.823 123.387 232.235 125.28 232.266Z" fill="black"/>
<path d="M103.848 234.565C102.65 237.49 104.325 238.092 105.509 238.838C109.718 241.474 114.38 242.879 119.253 243.519C128.138 244.741 136.704 243.673 144.679 239.333C146.11 238.558 148.267 237.957 147.466 235.003C143.552 235.744 140.613 238.496 136.933 239.367C133.154 240.266 129.393 240.979 125.48 240.988C121.787 240.95 118.114 240.443 114.547 239.477C110.796 238.525 107.513 236.432 103.848 234.565Z" fill="black"/>
</g>
<g clip-path="url(#clip2_26_905)">
<path d="M53.3491 87.9037C55.8937 92.3701 55.28 94.9069 51.3187 96.0656C46.6215 97.4236 41.7952 98.3497 37.0083 99.4195C36.3447 99.5514 35.6608 99.5548 34.9941 99.4293C27.6224 98.1119 20.3043 89.814 19.8592 82.3104C19.1372 70.6524 27.2824 56.7131 37.711 51.5588C42.2272 49.3375 46.6633 49.1393 51.3609 51.3642C59.9362 55.4257 59.9891 55.324 62.9646 64.6332C63.7366 67.0468 64.6384 69.4469 65.1627 71.9054C66.0101 76.0133 64.3334 77.7249 59.2084 77.9346C59.0811 71.1529 57.5627 64.9095 51.0924 61.0665C47.0776 58.6669 42.8959 57.949 38.4116 59.0716C29.1906 61.3698 23.9292 70.356 26.6727 79.3448C28.4108 85.0705 32.1737 88.971 38.0148 90.7025C43.5931 92.3601 48.6544 90.716 53.3491 87.9037Z" fill="black"/>
<path d="M29.8889 68.0061C31.2397 65.5399 33.2951 63.5314 35.7969 62.2331C38.2986 60.9348 41.1351 60.4046 43.9498 60.7091C46.7645 61.0136 49.432 62.1392 51.6169 63.9444C53.8019 65.7497 55.4068 68.1541 56.2301 70.8555C57.0534 73.5569 57.0583 76.4348 56.2442 79.1275C55.4301 81.8202 53.8333 84.2075 51.6545 85.9896C49.4757 87.7716 46.812 88.8689 43.9982 89.1434C41.1845 89.4179 38.3462 88.8575 35.84 87.5325C34.1486 86.6471 32.6496 85.4351 31.4312 83.9678C30.2128 82.5005 29.2995 80.8075 28.745 78.9882C28.1906 77.169 28.0062 75.2603 28.2026 73.3743C28.3991 71.4883 28.9724 69.6632 29.8889 68.0061Z" fill="black"/>
<path d="M17.2205 85.4452C14.0874 85.0269 14.4001 83.2749 14.3429 81.8772C14.1531 76.9142 15.2571 72.1716 17.129 67.6279C20.495 59.314 25.6877 52.4181 33.4225 47.6648C34.8073 46.8092 36.4031 45.2383 38.5654 47.4048C35.9739 50.429 32.1234 51.6074 29.5357 54.3642C26.873 57.1934 24.3826 60.0996 22.4252 63.4881C20.6189 66.7092 19.2294 70.1473 18.2899 73.7209C17.2477 77.448 17.4272 81.3374 17.2205 85.4452Z" fill="black"/>
</g>
<g clip-path="url(#clip3_26_905)">
<path d="M69.0384 179.137C69.8265 174.057 68.35 171.905 64.2356 172.232C59.3627 172.635 54.5229 173.488 49.6687 174.192C49.0016 174.305 48.3614 174.545 47.783 174.9C41.3631 178.755 37.4779 189.115 39.733 196.285C43.208 207.436 55.7816 217.563 67.3618 218.668C72.373 219.136 76.589 217.742 80.1869 213.991C86.7548 207.143 86.8405 207.219 86.3074 197.461C86.1697 194.93 86.1581 192.366 85.7729 189.882C85.1026 185.742 82.9265 184.739 78.0625 186.368C80.3575 192.75 81.1609 199.125 76.4824 205.02C73.5847 208.691 69.9324 210.851 65.3423 211.398C55.9072 212.532 47.7917 206.008 47.1558 196.631C46.7419 190.662 48.8701 185.677 53.7122 181.98C58.3351 178.445 63.6501 178.18 69.0384 179.137Z" fill="black"/>
<path d="M54.1983 206.082C56.3384 207.905 58.9741 209.051 61.7742 209.373C64.5742 209.696 67.4136 209.182 69.9356 207.896C72.4576 206.609 74.5497 204.608 75.9489 202.143C77.3481 199.678 77.9921 196.86 77.7999 194.042C77.6077 191.225 76.5878 188.534 74.8686 186.307C73.1493 184.081 70.8073 182.418 68.1368 181.528C65.4664 180.639 62.5866 180.561 59.8594 181.306C57.1322 182.051 54.6793 183.585 52.8089 185.716C51.5435 187.145 50.5741 188.811 49.9578 190.616C49.3415 192.421 49.0907 194.329 49.2201 196.226C49.3496 198.123 49.8566 199.973 50.7115 201.665C51.5664 203.358 52.7519 204.859 54.1983 206.082Z" fill="black"/>
<path d="M36.1514 194.294C33.3724 195.801 34.2883 197.326 34.7324 198.653C36.3216 203.358 39.0415 207.397 42.4081 210.977C48.5131 217.548 55.8203 222.144 64.7405 223.833C66.3391 224.14 68.3896 225.04 69.6391 222.245C66.1408 220.342 62.123 220.611 58.7235 218.956C55.2282 217.26 51.8664 215.43 48.8311 212.961C45.9965 210.594 43.4742 207.875 41.3241 204.87C39.0235 201.758 37.8068 198.06 36.1514 194.294Z" fill="black"/>
</g>
<g clip-path="url(#clip4_26_905)">
<path d="M157.818 49.8038C158.871 54.8352 161.012 56.3288 164.747 54.5724C169.165 52.4778 173.393 49.974 177.688 47.604C178.272 47.2632 178.787 46.8127 179.203 46.277C183.852 40.4064 183.836 29.3425 179.199 23.427C172.016 14.2161 156.68 9.1709 145.454 12.219C140.599 13.5471 137.145 16.3375 135.1 21.1163C131.368 29.8397 131.261 29.7986 135.199 38.743C136.22 41.0624 137.134 43.4577 138.37 45.6466C140.457 49.2851 142.847 49.4564 146.825 46.2181C142.427 41.0538 139.428 35.3712 141.729 28.206C143.147 23.7487 145.803 20.4406 149.906 18.3106C158.336 13.9233 168.23 17.1688 172.13 25.7195C174.622 31.1599 174.387 36.5745 171.159 41.7413C168.079 46.6786 163.198 48.8001 157.818 49.8038Z" fill="black"/>
<path d="M162.208 19.3573C159.562 18.4048 156.692 18.2621 153.958 18.947C151.224 19.6319 148.748 21.1138 146.841 23.2067C144.935 25.2995 143.682 27.9099 143.242 30.7097C142.801 33.5094 143.192 36.3738 144.365 38.9427C145.538 41.5117 147.441 43.6706 149.834 45.1483C152.228 46.6259 155.006 47.3563 157.818 47.2477C160.631 47.1391 163.353 46.1963 165.643 44.5378C167.932 42.8794 169.687 40.5792 170.687 37.9263C171.367 36.1426 171.687 34.2416 171.627 32.3353C171.568 30.429 171.13 28.5558 170.341 26.8257C169.551 25.0957 168.424 23.5438 167.028 22.2612C165.631 20.9786 163.992 19.9913 162.208 19.3573Z" fill="black"/>
<path d="M183.251 24.027C185.321 21.6379 183.926 20.5328 183.043 19.448C179.897 15.6046 175.928 12.7834 171.516 10.62C163.487 6.62248 155.028 4.89715 146.085 6.46098C144.481 6.73746 142.245 6.61802 142.061 9.67341C146.006 10.2219 149.671 8.55356 153.435 8.90419C157.304 9.25949 161.095 9.78648 164.806 11.0279C168.293 12.244 171.612 13.8988 174.683 15.9532C177.933 18.0546 180.375 21.0869 183.251 24.027Z" fill="black"/>
</g>
<g clip-path="url(#clip5_26_905)">
<path d="M197.194 88.0431C194.695 92.5353 195.334 95.0656 199.307 96.1838C204.018 97.4937 208.854 98.3704 213.651 99.3912C214.316 99.5163 215 99.5127 215.666 99.3804C223.023 97.9877 230.256 89.6154 230.625 82.1077C231.227 70.4428 222.94 56.5875 212.459 51.5402C207.921 49.3651 203.483 49.2123 198.808 51.4852C190.275 55.6341 190.221 55.533 187.341 64.8721C186.594 67.2935 185.716 69.7027 185.217 72.1664C184.412 76.2828 186.106 77.9771 191.233 78.1344C191.291 71.3517 192.745 65.0931 199.176 61.1842C203.166 58.7437 207.34 57.9831 211.836 59.0597C221.08 61.2635 226.433 70.1955 223.781 79.2119C222.102 84.955 218.379 88.8938 212.556 90.6849C206.995 92.3995 201.917 90.8072 197.194 88.0431Z" fill="black"/>
<path d="M220.446 67.907C219.071 65.4548 216.995 63.4674 214.48 62.1948C211.965 60.9221 209.123 60.4209 206.312 60.7542C203.5 61.0874 200.844 62.2403 198.678 64.0678C196.512 65.8953 194.931 68.316 194.136 71.0257C193.34 73.7354 193.365 76.6131 194.206 79.2973C195.048 81.9816 196.669 84.3525 198.866 86.1122C201.063 87.8718 203.738 88.9418 206.554 89.1875C209.37 89.4333 212.203 88.8438 214.695 87.4933C216.378 86.5907 217.864 85.3634 219.068 83.8837C220.271 82.404 221.167 80.7017 221.703 78.8769C222.238 77.0521 222.403 75.1416 222.188 73.2577C221.972 71.3739 221.38 69.5547 220.446 67.907Z" fill="black"/>
<path d="M233.295 85.2152C236.424 84.7649 236.093 83.0162 236.136 81.618C236.275 76.6533 235.123 71.9222 233.204 67.3979C229.753 59.1189 224.491 52.2764 216.707 47.6025C215.314 46.761 213.702 45.2065 211.562 47.3951C214.185 50.3926 218.047 51.5316 220.663 54.2617C223.354 57.0636 225.874 59.9442 227.866 63.3125C229.705 66.515 231.13 69.9387 232.106 73.5025C233.186 77.2187 233.046 81.1097 233.295 85.2152Z" fill="black"/>
</g>
<g clip-path="url(#clip6_26_905)">
<path d="M182.198 179.21C181.303 174.148 182.734 171.965 186.854 172.205C191.734 172.506 196.591 173.256 201.459 173.857C202.128 173.956 202.774 174.183 203.359 174.525C209.859 178.244 213.962 188.519 211.859 195.736C208.619 206.958 196.262 217.348 184.708 218.696C179.708 219.27 175.463 217.966 171.787 214.291C165.076 207.583 164.992 207.661 165.319 197.894C165.404 195.361 165.361 192.797 165.694 190.306C166.277 186.152 168.431 185.104 173.328 186.629C171.168 193.059 170.5 199.449 175.302 205.244C178.276 208.853 181.973 210.935 186.574 211.385C196.031 212.321 204.007 205.626 204.445 196.238C204.733 190.262 202.5 185.323 197.581 181.729C192.884 178.292 187.565 178.139 182.198 179.21Z" fill="black"/>
<path d="M197.604 205.835C195.503 207.704 192.892 208.904 190.099 209.286C187.307 209.668 184.457 209.214 181.908 207.981C179.36 206.748 177.226 204.791 175.775 202.356C174.324 199.921 173.621 197.117 173.754 194.297C173.886 191.476 174.849 188.764 176.521 186.501C178.193 184.239 180.5 182.527 183.151 181.581C185.802 180.636 188.679 180.498 191.422 181.185C194.164 181.872 196.649 183.354 198.564 185.445C199.859 186.847 200.863 188.492 201.517 190.284C202.172 192.076 202.463 193.977 202.373 195.877C202.284 197.777 201.816 199.636 200.997 201.346C200.178 203.057 199.024 204.583 197.604 205.835Z" fill="black"/>
<path d="M215.399 193.67C218.209 195.117 217.325 196.662 216.909 197.998C215.42 202.736 212.786 206.831 209.495 210.481C203.53 217.18 196.322 221.929 187.439 223.805C185.847 224.146 183.816 225.089 182.508 222.321C185.966 220.344 189.988 220.529 193.352 218.802C196.811 217.033 200.133 215.133 203.116 212.6C205.9 210.173 208.364 207.402 210.45 204.353C212.685 201.193 213.823 197.469 215.399 193.67Z" fill="black"/>
</g>
<g clip-path="url(#clip7_26_905)">
<path d="M203.722 131.249C199.598 128.18 199.142 125.61 202.305 122.959C206.062 119.83 210.11 117.044 214.065 114.142C214.62 113.755 215.245 113.478 215.906 113.325C223.186 111.572 233.22 116.234 236.64 122.928C241.981 133.316 240.117 149.352 232.634 158.26C229.39 162.107 225.407 164.069 220.211 163.917C210.726 163.64 210.719 163.754 204.257 156.423C202.581 154.522 200.791 152.686 199.324 150.644C196.899 147.222 197.747 144.982 202.357 142.732C205.196 148.892 209.093 154.001 216.562 154.923C221.202 155.509 225.321 154.488 228.977 151.66C236.5 145.853 237.711 135.511 231.59 128.38C227.7 123.833 222.687 121.771 216.643 122.53C210.868 123.251 206.892 126.789 203.722 131.249Z" fill="black"/>
<path d="M233.195 140.055C232.948 142.856 231.872 145.521 230.102 147.714C228.332 149.908 225.947 151.532 223.246 152.383C220.546 153.234 217.651 153.274 214.925 152.498C212.2 151.721 209.764 150.163 207.926 148.02C206.087 145.876 204.928 143.242 204.592 140.449C204.257 137.656 204.761 134.829 206.041 132.322C207.321 129.815 209.321 127.741 211.787 126.36C214.254 124.979 217.079 124.353 219.906 124.56C221.811 124.692 223.67 125.2 225.375 126.055C227.08 126.91 228.596 128.094 229.834 129.538C231.072 130.981 232.008 132.655 232.585 134.462C233.162 136.268 233.37 138.17 233.195 140.055Z" fill="black"/>
<path d="M237.798 118.997C240.836 118.123 241.252 119.853 241.866 121.11C244.032 125.579 244.925 130.366 245.034 135.279C245.289 144.245 243.301 152.646 238.125 160.104C237.2 161.444 236.369 163.523 233.519 162.407C234.679 158.597 237.732 155.972 238.996 152.408C240.299 148.748 241.413 145.086 241.845 141.197C242.207 137.522 242.099 133.815 241.525 130.165C240.983 126.333 239.258 122.843 237.798 118.997Z" fill="black"/>
</g>
<g clip-path="url(#clip8_26_905)">
<path d="M45.7463 129.587C49.5673 126.148 49.7832 123.547 46.3879 121.2C42.3569 118.433 38.0673 116.035 33.8604 113.513C33.272 113.179 32.624 112.96 31.9517 112.87C24.54 111.8 14.9821 117.373 12.198 124.355C7.84346 135.193 11.1875 150.988 19.4639 159.162C23.0515 162.692 27.1997 164.277 32.3588 163.643C41.7766 162.487 41.7948 162.6 47.549 154.701C49.0414 152.653 50.6528 150.658 51.9242 148.49C54.0215 144.858 52.9688 142.705 48.1701 140.893C45.9149 147.29 42.5086 152.738 35.1576 154.35C30.5916 155.364 26.3965 154.729 22.4934 152.252C14.4644 147.168 12.2987 136.983 17.7318 129.314C21.1836 124.427 25.983 121.909 32.0722 122.104C37.8887 122.286 42.1753 125.44 45.7463 129.587Z" fill="black"/>
<path d="M17.2183 141.089C17.7242 143.855 19.043 146.408 21.009 148.428C22.975 150.447 25.5004 151.843 28.2679 152.44C31.0355 153.037 33.9216 152.808 36.5637 151.782C39.2058 150.757 41.4859 148.98 43.1176 146.675C44.7493 144.37 45.6597 141.64 45.7345 138.827C45.8092 136.015 45.045 133.247 43.5378 130.87C42.0305 128.492 39.8476 126.612 37.2632 125.466C34.6789 124.32 31.8084 123.959 29.0126 124.428C27.1285 124.736 25.3242 125.414 23.7059 126.424C22.0876 127.433 20.6879 128.752 19.589 130.305C18.4902 131.857 17.7144 133.611 17.3072 135.463C16.9001 137.314 16.8699 139.227 17.2183 141.089Z" fill="black"/>
<path d="M10.6811 120.549C7.57556 119.96 7.32103 121.721 6.82684 123.03C5.0846 127.681 4.63978 132.53 4.98648 137.432C5.56479 146.383 8.32315 154.563 14.1689 161.509C15.214 162.757 16.2343 164.75 18.9686 163.374C17.4606 159.688 14.1766 157.358 12.5881 153.926C10.9513 150.403 9.50208 146.861 8.71065 143.028C8.0099 139.402 7.77317 135.702 8.00608 132.014C8.18991 128.148 9.58446 124.513 10.6811 120.549Z" fill="black"/>
</g>
<defs>
<clipPath id="clip0_26_905">
<rect width="51" height="46" fill="white" transform="translate(61 16.5801) rotate(-18.9714)"/>
</clipPath>
<clipPath id="clip1_26_905">
<rect width="51" height="46" fill="white" transform="matrix(1 0 0 -1 99.7539 244)"/>
</clipPath>
<clipPath id="clip2_26_905">
<rect width="51" height="46" fill="white" transform="translate(7 84.2964) rotate(-60.1276)"/>
</clipPath>
<clipPath id="clip3_26_905">
<rect width="51" height="46" fill="white" transform="matrix(0.774112 0.633049 0.633049 -0.774112 27 198.609)"/>
</clipPath>
<clipPath id="clip4_26_905">
<rect width="51" height="46" fill="white" transform="matrix(-0.947563 -0.319567 -0.319567 0.947563 190.146 16.3955)"/>
</clipPath>
<clipPath id="clip5_26_905">
<rect width="51" height="46" fill="white" transform="matrix(-0.50691 -0.861999 -0.861999 0.50691 243.504 83.9619)"/>
</clipPath>
<clipPath id="clip6_26_905">
<rect width="51" height="46" fill="white" transform="translate(224.639 198.188) rotate(139.516)"/>
</clipPath>
<clipPath id="clip7_26_905">
<rect width="51" height="46" fill="white" transform="translate(247.621 115.947) rotate(96.2043)"/>
</clipPath>
<clipPath id="clip8_26_905">
<rect width="51" height="46" fill="white" transform="matrix(0.199838 0.979829 0.979829 -0.199838 0.617188 118.422)"/>
</clipPath>
</defs>
</svg>
