<svg width="87" height="87" viewBox="0 0 87 87" fill="none" xmlns="http://www.w3.org/2000/svg">
<circle cx="43.6792" cy="43.3556" r="30.1909" fill="currentColor"/>
<path d="M57.1836 8.36438L32.0226 8.36438L32.0226 5.48193C32.0226 2.72051 34.2612 0.481932 37.0226 0.481932L52.1836 0.481933C54.945 0.481933 57.1836 2.72051 57.1836 5.48193L57.1836 8.36438Z" fill="currentColor"/>
<path d="M56.2598 78.3467L31.0988 78.3467L31.0988 81.2291C31.0988 83.9906 33.3373 86.2291 36.0988 86.2291L51.2598 86.2291C54.0212 86.2291 56.2598 83.9905 56.2598 81.2291L56.2598 78.3467Z" fill="currentColor"/>
<path d="M78.6699 55.9363L78.6699 30.7753L81.5524 30.7753C84.3138 30.7753 86.5524 33.0138 86.5524 35.7753L86.5524 50.9363C86.5524 53.6977 84.3138 55.9363 81.5524 55.9363L78.6699 55.9363Z" fill="currentColor"/>
<path d="M8.6875 55.9363L8.6875 30.7753L5.80505 30.7753C3.04363 30.7753 0.805055 33.0138 0.805055 35.7753L0.805054 50.9363C0.805054 53.6977 3.04363 55.9363 5.80505 55.9363L8.6875 55.9363Z" fill="currentColor"/>
</svg>
