<svg width="99" height="100" viewBox="0 0 99 100" fill="none" xmlns="http://www.w3.org/2000/svg">
<circle cx="49.4472" cy="50.0925" r="36.8896" fill="#E4E4E4"/>
<path d="M62.0273 8.18054L36.8663 8.18054L36.8663 5.29809C36.8663 2.53667 39.1049 0.298094 41.8663 0.298094L57.0273 0.298095C59.7888 0.298096 62.0273 2.53667 62.0273 5.2981L62.0273 8.18054Z" fill="#E4E4E4"/>
<path d="M36.8662 92.0043L62.0272 92.0043L62.0272 94.8867C62.0272 97.6481 59.7886 99.8867 57.0272 99.8867L41.8662 99.8867C39.1048 99.8867 36.8662 97.6481 36.8662 94.8867L36.8662 92.0043Z" fill="#E4E4E4"/>
<path d="M21.4287 16.3401L7.53469 37.317L5.13157 35.7253C2.82934 34.2005 2.19918 31.098 3.72405 28.7958L12.096 16.1559C13.6209 13.8537 16.7234 13.2235 19.0256 14.7484L21.4287 16.3401Z" fill="#E4E4E4"/>
<path d="M78.2354 82.8497L91.7485 61.6254L94.18 63.1735C96.5093 64.6566 97.1954 67.7472 95.7123 70.0765L87.5698 82.8654C86.0868 85.1948 82.9962 85.8809 80.6668 84.3978L78.2354 82.8497Z" fill="#E4E4E4"/>
<path d="M20.7402 82.9781L7.22707 61.7538L4.79562 63.3019C2.46625 64.785 1.78019 67.8756 3.26326 70.205L11.4057 82.9939C12.8888 85.3232 15.9794 86.0093 18.3088 84.5262L20.7402 82.9781Z" fill="#E4E4E4"/>
<path d="M91.3584 37.3381L77.3115 16.4632L79.703 14.854C81.994 13.3124 85.101 13.9199 86.6426 16.2109L95.1067 28.7893C96.6483 31.0803 96.0409 34.1873 93.7498 35.7289L91.3584 37.3381Z" fill="#E4E4E4"/>
</svg>
