<svg width="288" height="288" viewBox="0 0 288 288" fill="none" xmlns="http://www.w3.org/2000/svg">
<circle cx="144.5" cy="144.288" r="91.8472" fill="white" stroke="black" stroke-width="2"/>
<g clip-path="url(#clip0_26_903)">
<path d="M80.5888 66.407C81.109 71.5211 79.5215 73.5927 75.43 73.0498C70.585 72.3915 65.7966 71.2858 60.9861 70.3276C60.3259 70.1798 59.6991 69.9062 59.1402 69.5218C52.9316 65.3347 49.596 54.7855 52.2246 47.7434C56.2806 36.7899 69.3688 27.3374 80.9911 26.8427C86.0199 26.6383 90.1569 28.2516 93.5528 32.1868C99.7519 39.3703 99.8414 39.2987 98.7965 49.0158C98.526 51.5354 98.3798 54.0952 97.8647 56.5556C96.9778 60.6552 94.752 61.5422 89.9802 59.6605C92.6074 53.4071 93.7446 47.0831 89.3821 40.951C86.6813 37.1324 83.1475 34.7841 78.5925 33.9966C69.23 32.368 60.7829 38.4575 59.6554 47.7877C58.9285 53.7271 60.7919 58.8165 65.4331 62.763C69.864 66.5357 75.1577 67.0796 80.5888 66.407Z" fill="black"/>
<path d="M67.1832 38.7208C69.4162 37.0119 72.1085 36.0067 74.9216 35.8314C77.7347 35.6562 80.5432 36.3188 82.9941 37.736C85.445 39.1532 87.4291 41.2617 88.6969 43.7966C89.9647 46.3315 90.4598 49.1796 90.1198 51.9832C89.7799 54.7867 88.6201 57.4205 86.7863 59.5537C84.9524 61.6868 82.5263 63.2241 79.8128 63.9723C77.0993 64.7206 74.2194 64.6464 71.5352 63.7592C68.8509 62.8719 66.4819 61.2111 64.726 58.9856C63.5374 57.4916 62.6569 55.7768 62.1362 53.942C61.6156 52.1072 61.4653 50.1894 61.6942 48.3014C61.9232 46.4134 62.5267 44.5932 63.4693 42.9479C64.4119 41.3027 65.6746 39.8655 67.1832 38.7208Z" fill="black"/>
<path d="M48.5427 49.5427C45.8466 47.8927 46.8415 46.417 47.3546 45.1156C49.1888 40.5001 52.1171 36.6095 55.6671 33.2115C62.1088 26.9701 69.6473 22.7644 78.644 21.5466C80.2565 21.3244 82.3514 20.5334 83.4524 23.3895C79.8589 25.1067 75.8608 24.6266 72.3791 26.1009C68.7995 27.6111 65.3463 29.2613 62.1854 31.5682C59.2303 33.7832 56.5688 36.3653 54.2638 39.2533C51.8029 42.2401 50.3936 45.8697 48.5427 49.5427Z" fill="black"/>
</g>
<g clip-path="url(#clip1_26_903)">
<path d="M197.292 230.51C192.583 228.448 190.125 229.324 189.388 233.385C188.529 238.199 188.114 243.095 187.552 247.968C187.49 248.642 187.559 249.322 187.753 249.972C189.836 257.165 198.855 263.573 206.364 263.23C218.033 262.726 231.042 253.165 235.075 242.254C236.811 237.53 236.544 233.097 233.839 228.659C228.901 220.556 228.996 220.493 219.427 218.509C216.945 217.995 214.464 217.349 211.964 217.085C207.79 216.673 206.264 218.52 206.592 223.639C213.35 223.055 219.718 223.91 224.218 229.942C227.025 233.684 228.177 237.767 227.531 242.344C226.211 251.755 217.826 257.929 208.599 256.143C202.723 255.015 198.449 251.681 196.115 246.054C193.882 240.68 194.987 235.474 197.292 230.51Z" fill="black"/>
<path d="M219.537 251.756C221.848 250.155 223.63 247.9 224.659 245.276C225.688 242.652 225.918 239.776 225.32 237.008C224.722 234.241 223.323 231.706 221.299 229.722C219.275 227.739 216.715 226.394 213.943 225.859C211.17 225.323 208.307 225.62 205.715 226.711C203.122 227.803 200.915 229.641 199.371 231.995C197.827 234.349 197.015 237.113 197.037 239.94C197.059 242.767 197.914 245.531 199.494 247.884C200.552 249.473 201.914 250.837 203.501 251.895C205.088 252.953 206.868 253.684 208.735 254.045C210.602 254.405 212.52 254.389 214.375 253.996C216.23 253.603 217.985 252.841 219.537 251.756Z" fill="black"/>
<path d="M203.522 266.182C204.266 269.254 205.976 268.76 207.372 268.67C212.327 268.339 216.928 266.744 221.251 264.406C229.166 260.188 235.48 254.301 239.397 246.111C240.102 244.644 241.497 242.892 239.116 240.969C236.38 243.863 235.612 247.816 233.141 250.678C230.607 253.623 227.977 256.404 224.813 258.705C221.799 260.839 218.525 262.581 215.07 263.89C211.472 265.317 207.586 265.546 203.522 266.182Z" fill="black"/>
</g>
<g clip-path="url(#clip2_26_903)">
<path d="M46.908 118.447C50.2931 122.315 50.1981 124.923 46.5478 126.85C42.2163 129.118 37.6719 130.989 33.195 132.993C32.5711 133.255 31.9017 133.394 31.2233 133.404C23.737 133.585 14.9097 126.915 12.9757 119.651C9.94095 108.372 15.1396 93.0874 24.3294 85.9551C28.3113 82.8769 32.6184 81.7972 37.6657 83.0396C46.8791 85.3075 46.9106 85.1972 51.6846 93.7251C52.9229 95.936 54.2857 98.1078 55.2902 100.412C56.9406 104.268 55.6394 106.28 50.6593 107.509C49.1808 100.889 46.4466 95.0742 39.3393 92.6001C34.9264 91.0503 30.6855 91.1816 26.5156 93.1768C17.939 97.2695 14.5774 107.125 19.06 115.385C21.9061 120.649 26.372 123.72 32.4411 124.25C38.2381 124.761 42.8693 122.14 46.908 118.447Z" fill="black"/>
<path d="M19.9464 103.633C20.7777 100.947 22.3908 98.5685 24.583 96.7969C26.7752 95.0253 29.4487 93.9396 32.2676 93.676C35.0865 93.4125 37.9249 93.9829 40.4263 95.3157C42.9276 96.6485 44.9802 98.6841 46.3262 101.167C47.6722 103.649 48.2515 106.468 47.9913 109.269C47.7311 112.07 46.6431 114.729 44.8638 116.91C43.0846 119.091 40.6936 120.698 37.9913 121.528C35.2889 122.359 32.3959 122.377 29.6756 121.579C27.8415 121.049 26.1308 120.16 24.644 118.966C23.1572 117.771 21.9243 116.294 21.0178 114.623C20.1114 112.951 19.5497 111.117 19.3657 109.23C19.1817 107.343 19.3791 105.44 19.9464 103.633Z" fill="black"/>
<path d="M11.0153 123.25C7.86167 123.466 7.81841 121.687 7.48335 120.329C6.30658 115.503 6.44159 110.636 7.36877 105.81C9.00741 96.9914 12.7189 89.1976 19.3492 82.9959C20.5353 81.8811 21.7854 80.0233 24.3367 81.7146C22.4011 85.1952 18.8633 87.1186 16.878 90.3364C14.8337 93.6402 12.9736 96.9851 11.732 100.696C10.6051 104.213 9.92991 107.859 9.72262 111.548C9.44544 115.409 10.3978 119.184 11.0153 123.25Z" fill="black"/>
</g>
<g clip-path="url(#clip3_26_903)">
<path d="M138.235 245.554C135.644 241.114 133.141 240.374 130.154 243.222C126.625 246.607 123.406 250.32 120.082 253.927C119.635 254.435 119.289 255.025 119.064 255.665C116.511 262.705 120.026 273.195 126.297 277.34C136.024 283.805 152.169 283.74 161.854 277.297C166.04 274.501 168.434 270.761 168.862 265.581C169.643 256.125 169.757 256.13 163.191 248.891C161.489 247.014 159.864 245.031 157.999 243.345C154.868 240.554 152.547 241.147 149.798 245.478C155.603 248.985 160.246 253.428 160.33 260.953C160.395 265.629 158.922 269.608 155.704 272.927C149.095 279.755 138.682 279.807 132.277 272.929C128.192 268.556 126.702 263.345 128.13 257.423C129.49 251.765 133.449 248.208 138.235 245.554Z" fill="black"/>
<path d="M143.702 275.825C146.513 275.892 149.281 275.119 151.658 273.605C154.035 272.09 155.915 269.901 157.061 267.312C158.208 264.724 158.57 261.851 158.103 259.056C157.635 256.26 156.358 253.667 154.433 251.601C152.507 249.535 150.019 248.089 147.281 247.444C144.543 246.8 141.677 246.986 139.043 247.979C136.409 248.971 134.125 250.727 132.477 253.024C130.83 255.322 129.893 258.059 129.784 260.892C129.703 262.799 130.001 264.704 130.66 266.494C131.32 268.283 132.328 269.922 133.624 271.313C134.921 272.704 136.48 273.82 138.211 274.595C139.942 275.37 141.808 275.788 143.702 275.825Z" fill="black"/>
<path d="M122.263 278.052C121.055 280.974 122.728 281.581 123.909 282.33C128.109 284.981 132.767 286.402 137.637 287.058C146.518 288.31 155.088 287.271 163.077 282.959C164.511 282.189 166.67 281.595 165.879 278.638C161.963 279.366 159.014 282.108 155.332 282.966C151.549 283.853 147.786 284.552 143.873 284.549C140.18 284.498 136.509 283.978 132.945 283.001C129.198 282.036 125.922 279.932 122.263 278.052Z" fill="black"/>
</g>
<g clip-path="url(#clip4_26_903)">
<path d="M150.788 43.5737C153.566 47.8986 156.099 48.5304 158.961 45.5573C162.342 42.0245 165.399 38.1769 168.566 34.431C168.99 33.9041 169.31 33.2997 169.508 32.6508C171.757 25.5081 167.796 15.1775 161.353 11.3055C151.357 5.26266 135.23 6.0199 125.83 12.8721C121.768 15.8444 119.537 19.6834 119.331 24.8772C118.956 34.3583 118.841 34.358 125.711 41.3091C127.492 43.1118 129.201 45.0233 131.136 46.6273C134.384 49.2821 136.677 48.5896 139.238 44.1454C133.288 40.8895 128.459 36.6504 128.053 29.1359C127.787 24.4662 129.089 20.428 132.162 16.9747C138.472 9.86903 148.874 9.3716 155.567 15.9686C159.835 20.1624 161.548 25.3046 160.375 31.2829C159.258 36.9942 155.456 40.7171 150.788 43.5737Z" fill="black"/>
<path d="M144.03 13.5643C141.219 13.6182 138.486 14.5087 136.176 16.1238C133.866 17.739 132.082 20.0066 131.047 22.642C130.012 25.2773 129.774 28.1626 130.361 30.9354C130.948 33.7082 132.334 36.2447 134.347 38.2263C136.359 40.2078 138.907 41.5459 141.67 42.0725C144.433 42.5991 147.289 42.2906 149.878 41.1858C152.467 40.081 154.674 38.2292 156.221 35.8632C157.768 33.4971 158.587 30.7223 158.575 27.8874C158.574 25.9783 158.195 24.0883 157.459 22.3286C156.724 20.5689 155.647 18.975 154.292 17.6405C152.936 16.3061 151.331 15.258 149.568 14.558C147.806 13.858 145.923 13.5201 144.03 13.5643Z" fill="black"/>
<path d="M165.352 10.4208C166.434 7.4506 164.736 6.91576 163.524 6.21731C159.214 3.74891 154.5 2.52911 149.606 2.08198C140.679 1.21152 132.162 2.61679 124.365 7.26779C122.965 8.09828 120.834 8.78434 121.751 11.7045C125.632 10.8097 128.461 7.94385 132.103 6.92851C135.844 5.88037 139.574 5.02048 143.483 4.85645C147.175 4.74868 150.865 5.11092 154.468 5.93457C158.253 6.73844 161.616 8.70013 165.352 10.4208Z" fill="black"/>
</g>
<g clip-path="url(#clip5_26_903)">
<path d="M206.717 65.5408C206.387 70.6707 208.05 72.682 212.118 71.9877C216.936 71.15 221.68 69.8675 226.451 68.7315C227.106 68.5593 227.722 68.2626 228.266 67.8577C234.315 63.4432 237.257 52.7775 234.369 45.8378C229.909 35.0422 216.479 26.0818 204.847 26.0187C199.814 26.001 195.74 27.7667 192.492 31.8252C186.564 39.2337 186.472 39.1654 187.876 48.8371C188.24 51.3449 188.481 53.8975 189.087 56.3371C190.126 60.401 192.383 61.2048 197.081 59.1474C194.224 52.9957 192.853 46.7183 196.985 40.4286C199.542 36.5124 202.986 34.0347 207.509 33.0787C216.805 31.1038 225.472 36.8757 226.945 46.1577C227.892 52.0661 226.218 57.221 221.727 61.337C217.439 65.2715 212.169 66.0115 206.717 65.5408Z" fill="black"/>
<path d="M219.084 37.3767C216.789 35.7518 214.062 34.8471 211.244 34.7764C208.426 34.7056 205.644 35.472 203.248 36.9791C200.851 38.4862 198.947 40.6669 197.774 43.2471C196.601 45.8273 196.212 48.6918 196.655 51.4808C197.099 54.2698 198.356 56.8588 200.268 58.9224C202.179 60.9861 204.661 62.4323 207.4 63.0794C210.14 63.7264 213.015 63.5455 215.664 62.5593C218.314 61.573 220.619 59.8255 222.292 57.5363C223.424 55.9992 224.24 54.253 224.693 52.4001C225.145 50.5472 225.224 48.6252 224.925 46.747C224.626 44.8688 223.955 43.0723 222.952 41.4631C221.949 39.8539 220.634 38.4646 219.084 37.3767Z" fill="black"/>
<path d="M238.115 47.4995C240.748 45.7506 239.699 44.3128 239.138 43.0314C237.134 38.4871 234.063 34.7078 230.39 31.4438C223.721 25.4458 216.032 21.5226 206.996 20.6395C205.376 20.4772 203.253 19.7644 202.259 22.6594C205.914 24.2422 209.891 23.6141 213.425 24.9581C217.059 26.3345 220.571 27.8555 223.815 30.0436C226.85 32.1474 229.606 34.629 232.016 37.4295C234.586 40.3229 236.129 43.8977 238.115 47.4995Z" fill="black"/>
</g>
<g clip-path="url(#clip6_26_903)">
<path d="M241.202 170.198C237.829 166.319 237.932 163.711 241.588 161.796C245.927 159.541 250.477 157.684 254.96 155.693C255.584 155.434 256.254 155.296 256.932 155.288C264.419 155.13 273.226 161.827 275.138 169.096C278.139 180.385 272.894 195.653 263.682 202.758C259.691 205.824 255.381 206.891 250.337 205.633C241.131 203.337 241.099 203.447 236.351 194.905C235.119 192.69 233.763 190.514 232.766 188.207C231.127 184.346 232.434 182.338 237.418 181.125C238.876 187.749 241.593 193.572 248.693 196.067C253.101 197.63 257.342 197.512 261.518 195.53C270.107 191.463 273.499 181.617 269.041 173.344C266.211 168.072 261.754 164.987 255.687 164.438C249.892 163.91 245.252 166.517 241.202 170.198Z" fill="black"/>
<path d="M268.117 185.093C267.277 187.776 265.657 190.15 263.46 191.915C261.262 193.68 258.585 194.757 255.766 195.012C252.946 195.267 250.109 194.688 247.612 193.348C245.115 192.008 243.068 189.966 241.73 187.479C240.391 184.992 239.82 182.172 240.089 179.371C240.358 176.571 241.454 173.916 243.24 171.741C245.026 169.565 247.422 167.965 250.126 167.143C252.831 166.32 255.724 166.312 258.442 167.118C260.275 167.653 261.983 168.547 263.466 169.746C264.949 170.945 266.177 172.425 267.079 174.1C267.98 175.775 268.536 177.61 268.715 179.498C268.893 181.386 268.69 183.288 268.117 185.093Z" fill="black"/>
<path d="M277.11 165.503C280.264 165.297 280.302 167.076 280.633 168.435C281.795 173.264 281.645 178.131 280.703 182.954C279.038 191.768 275.303 199.55 268.654 205.732C267.464 206.843 266.208 208.697 263.662 206.998C265.609 203.523 269.152 201.611 271.147 198.399C273.201 195.101 275.072 191.762 276.325 188.055C277.462 184.541 278.148 180.897 278.367 177.209C278.656 173.349 277.715 169.571 277.11 165.503Z" fill="black"/>
</g>
<g clip-path="url(#clip7_26_903)">
<path d="M237.666 105.307C232.669 104.103 231.24 101.918 233.109 98.2382C235.336 93.8852 237.966 89.7339 240.464 85.5129C240.822 84.9389 241.288 84.4383 241.836 84.0383C247.844 79.5684 258.903 79.9176 264.676 84.7316C273.666 92.1886 278.246 107.67 274.861 118.799C273.387 123.612 270.494 126.98 265.656 128.88C256.824 132.348 256.862 132.456 248.04 128.25C245.752 127.159 243.386 126.173 241.235 124.871C237.661 122.676 237.562 120.282 240.919 116.404C245.948 120.955 251.538 124.124 258.769 122.04C263.267 120.758 266.654 118.202 268.907 114.165C273.546 105.872 270.6 95.8838 262.171 91.7277C256.808 89.0734 251.389 89.1447 246.127 92.2156C241.099 95.1457 238.832 99.96 237.666 105.307Z" fill="black"/>
<path d="M268.231 101.836C269.103 104.509 269.159 107.383 268.392 110.095C267.625 112.807 266.069 115.237 263.92 117.08C261.771 118.922 259.124 120.096 256.312 120.452C253.5 120.808 250.649 120.331 248.116 119.081C245.584 117.831 243.483 115.864 242.079 113.427C240.674 110.989 240.028 108.191 240.221 105.383C240.414 102.575 241.439 99.8822 243.165 97.6437C244.892 95.4052 247.244 93.7205 249.926 92.8015C251.73 92.1752 253.639 91.9128 255.543 92.0296C257.447 92.1465 259.306 92.6404 261.011 93.4821C262.717 94.3238 264.234 95.4965 265.474 96.9311C266.714 98.3658 267.651 100.033 268.231 101.836Z" fill="black"/>
<path d="M264.198 80.6621C266.648 78.6652 267.711 80.0929 268.768 81.0083C272.515 84.2686 275.215 88.3208 277.245 92.7964C280.998 100.943 282.468 109.449 280.635 118.341C280.31 119.936 280.362 122.174 277.303 122.267C276.874 118.307 278.652 114.694 278.415 110.92C278.176 107.043 277.764 103.238 276.635 99.4909C275.524 95.9687 273.97 92.6018 272.009 89.4699C270.007 86.1582 267.05 83.6257 264.198 80.6621Z" fill="black"/>
</g>
<g clip-path="url(#clip8_26_903)">
<path d="M46.6723 167.488C50.1946 163.744 50.1938 161.134 46.6154 159.078C42.3685 156.655 37.8946 154.621 33.4928 152.457C32.8787 152.173 32.2148 152.009 31.5373 151.974C24.0624 151.524 15.0002 157.871 12.8054 165.06C9.36586 176.223 14.0098 191.685 22.9364 199.144C26.8046 202.364 31.07 203.598 36.1588 202.539C45.448 200.605 45.4756 200.716 50.554 192.366C51.8712 190.201 53.3115 188.08 54.3984 185.813C56.1869 182.019 54.9591 179.962 50.0266 178.554C48.3102 185.117 45.3681 190.829 38.1762 193.045C33.7102 194.435 29.4769 194.15 25.3816 192.006C16.9582 187.607 13.9543 177.636 18.7319 169.543C21.766 164.386 26.3398 161.478 32.4241 161.167C38.2357 160.865 42.7693 163.652 46.6723 167.488Z" fill="black"/>
<path d="M19.1974 181.319C19.9313 184.034 21.4575 186.469 23.5844 188.318C25.7113 190.168 28.3439 191.349 31.1514 191.714C33.959 192.079 36.8161 191.612 39.3639 190.37C41.9117 189.128 44.0365 187.168 45.4711 184.736C46.9058 182.303 47.5864 179.507 47.4274 176.698C47.2684 173.89 46.2769 171.194 44.5775 168.95C42.8781 166.706 40.5466 165.014 37.876 164.087C35.2054 163.159 32.3149 163.037 29.5676 163.737C27.7156 164.2 25.9739 165.026 24.445 166.166C22.9161 167.306 21.6307 168.738 20.6646 170.376C19.6984 172.014 19.0709 173.826 18.8189 175.705C18.567 177.585 18.6957 179.493 19.1974 181.319Z" fill="black"/>
<path d="M10.9773 161.393C7.83355 161.064 7.72614 162.841 7.34231 164.186C5.99226 168.965 5.9516 173.835 6.70411 178.691C8.02359 187.563 11.4516 195.485 17.8539 201.922C18.999 203.079 20.1813 204.981 22.7919 203.382C20.983 199.834 17.5169 197.785 15.649 194.497C13.7253 191.122 11.987 187.712 10.8801 183.959C9.88068 180.403 9.3375 176.735 9.26342 173.041C9.12565 169.173 10.2136 165.435 10.9773 161.393Z" fill="black"/>
</g>
<g clip-path="url(#clip9_26_903)">
<path d="M79.5975 221.159C80.2772 216.064 78.7551 213.944 74.6487 214.359C69.7855 214.865 64.9649 215.821 60.1269 216.629C59.4623 216.756 58.8274 217.01 58.2567 217.376C51.9204 221.367 48.257 231.807 50.6643 238.928C54.3763 250.003 67.1629 259.86 78.7641 260.717C83.784 261.078 87.9694 259.595 91.4866 255.768C97.907 248.781 97.9942 248.856 97.2532 239.111C97.0616 236.584 96.9953 234.021 96.5573 231.546C95.7989 227.42 93.6019 226.464 88.7737 228.196C91.2043 234.528 92.1435 240.885 87.5916 246.878C84.7729 250.61 81.1675 252.847 76.59 253.492C67.1813 254.827 58.9285 248.477 58.0929 239.116C57.5519 233.157 59.5732 228.128 64.3355 224.328C68.882 220.696 74.1901 220.317 79.5975 221.159Z" fill="black"/>
<path d="M65.3356 248.414C67.5141 250.192 70.1737 251.28 72.9799 251.543C75.7862 251.806 78.614 251.232 81.108 249.892C83.602 248.552 85.6509 246.506 86.9973 244.012C88.3437 241.518 88.9274 238.687 88.6752 235.874C88.423 233.061 87.346 230.393 85.5797 228.203C83.8133 226.014 81.4364 224.402 78.7476 223.569C76.0587 222.736 73.178 222.721 70.4673 223.524C67.7566 224.327 65.337 225.913 63.5124 228.082C62.2777 229.538 61.3441 231.225 60.7664 233.042C60.1887 234.86 59.9786 236.772 60.1485 238.667C60.3183 240.561 60.8647 242.399 61.7555 244.073C62.6463 245.747 63.8635 247.223 65.3356 248.414Z" fill="black"/>
<path d="M47.0411 237.015C44.2947 238.58 45.243 240.086 45.7152 241.403C47.4044 246.073 50.2097 250.054 53.652 253.561C59.8956 260 67.2991 264.439 76.2533 265.937C77.8581 266.21 79.9273 267.066 81.1169 264.246C77.5788 262.417 73.5677 262.772 70.1337 261.19C66.603 259.569 63.203 257.811 60.1157 255.407C57.2313 253.101 54.6517 250.437 52.438 247.478C50.0716 244.416 48.7763 240.744 47.0411 237.015Z" fill="black"/>
</g>
<defs>
<clipPath id="clip0_26_903">
<rect width="51" height="46" fill="white" transform="translate(39.6602 44.3579) rotate(-36.2644)"/>
</clipPath>
<clipPath id="clip1_26_903">
<rect width="51" height="46" fill="white" transform="matrix(0.810171 -0.586194 -0.586194 -0.810171 205.736 276.226)"/>
</clipPath>
<clipPath id="clip2_26_903">
<rect width="51" height="46" fill="white" transform="translate(0.771484 124.165) rotate(-71.6427)"/>
</clipPath>
<clipPath id="clip3_26_903">
<rect width="51" height="46" fill="white" transform="matrix(0.999994 0.0033884 0.0033884 -0.999994 117.879 287.171)"/>
</clipPath>
<clipPath id="clip4_26_903">
<rect width="51" height="46" fill="white" transform="matrix(-0.999221 0.0394602 0.0394602 0.999221 169.072 0.831543)"/>
</clipPath>
<clipPath id="clip5_26_903">
<rect width="51" height="46" fill="white" transform="matrix(-0.827686 -0.561191 -0.561191 0.827686 246.799 41.9883)"/>
</clipPath>
<clipPath id="clip6_26_903">
<rect width="51" height="46" fill="white" transform="translate(287.357 164.62) rotate(108.531)"/>
</clipPath>
<clipPath id="clip7_26_903">
<rect width="51" height="46" fill="white" transform="translate(272.035 74) rotate(73.091)"/>
</clipPath>
<clipPath id="clip8_26_903">
<rect width="51" height="46" fill="white" transform="matrix(0.280502 0.959853 0.959853 -0.280502 0.771484 160.11)"/>
</clipPath>
<clipPath id="clip9_26_903">
<rect width="51" height="46" fill="white" transform="matrix(0.78743 0.616404 0.616404 -0.78743 38 241.92)"/>
</clipPath>
</defs>
</svg>
