<svg width="193" height="193" viewBox="0 0 193 193" fill="none" xmlns="http://www.w3.org/2000/svg">
<circle cx="96.1523" cy="96.3394" r="47.0859" fill="white" stroke="black" stroke-width="2"/>
<g clip-path="url(#clip0_26_144)">
<path d="M90.6089 41.9875C88.0033 46.4186 85.4979 47.1499 82.5201 44.2921C79.003 40.8954 75.7961 37.1715 72.4843 33.5534C72.0393 33.0437 71.6959 32.4524 71.4726 31.8118C68.9433 24.7634 72.4938 14.2845 78.7787 10.1613C88.5282 3.72874 104.672 3.84902 114.336 10.3249C118.512 13.1347 120.893 16.8826 121.303 22.0643C122.053 31.5231 122.167 31.5183 115.577 38.7351C113.868 40.6067 112.236 42.5841 110.366 44.2632C107.226 47.0441 104.906 46.4427 102.172 42.103C107.989 38.6148 112.647 34.1885 112.756 26.6638C112.838 21.9873 111.377 18.0036 108.17 14.6742C101.585 7.82308 91.172 7.73648 84.7439 14.5925C80.6446 18.9514 79.1366 24.1571 80.5444 30.0846C81.8854 35.7474 85.832 39.3173 90.6089 41.9875Z" fill="black"/>
<path d="M96.1784 11.7344C98.9897 11.6773 101.755 12.4593 104.127 13.982C106.499 15.5047 108.371 17.7002 109.509 20.2926C110.647 22.8851 111 25.7587 110.522 28.5525C110.045 31.3463 108.76 33.9356 106.827 35.995C104.895 38.0544 102.402 39.492 99.6614 40.1272C96.9209 40.7624 94.0554 40.5669 91.4249 39.5651C88.7945 38.5634 86.5163 36.8001 84.8768 34.4969C83.2373 32.1937 82.3096 29.4534 82.2103 26.6202C82.1356 24.7126 82.44 22.8091 83.1055 21.0218C83.771 19.2344 84.7842 17.5992 86.0856 16.2123C87.387 14.8254 88.9502 13.7148 90.6835 12.9458C92.4167 12.1768 94.285 11.7649 96.1784 11.7344Z" fill="black"/>
<path d="M74.7465 9.43482C73.5487 6.5096 75.2238 5.9082 76.4073 5.16246C80.6163 2.52591 85.2787 1.12104 90.1511 0.481149C99.0368 -0.740899 107.603 0.32719 115.577 4.6669C117.009 5.44151 119.166 6.04291 118.364 8.997C114.451 8.25607 111.511 5.50406 107.832 4.63323C104.052 3.73353 100.292 3.02147 96.3787 3.01185C92.6859 3.04983 89.0125 3.55741 85.4457 4.52257C81.6948 5.47519 78.4116 7.56807 74.7465 9.43482Z" fill="black"/>
</g>
<g clip-path="url(#clip1_26_144)">
<path d="M46.8919 73.1313C49.4265 77.6034 48.8072 80.1387 44.8433 81.2887C40.1431 82.6362 35.3147 83.5515 30.5254 84.6107C29.8615 84.7411 29.1777 84.7429 28.5113 84.616C21.1425 83.2822 13.8429 74.9679 13.4145 67.4634C12.7185 55.8038 20.8947 41.8827 31.3348 36.7517C35.856 34.5404 40.2924 34.3521 44.9851 36.5875C53.5513 40.668 53.6044 40.5664 56.5592 49.8823C57.3258 52.2976 58.2222 54.6997 58.741 57.1593C59.5793 61.2692 57.8989 62.977 52.7733 63.1752C52.6612 56.3933 51.1567 50.1465 44.6949 46.2891C40.6855 43.8806 36.5054 43.1534 32.0187 44.2659C22.7926 46.5436 17.5112 55.5181 20.2346 64.513C21.9599 70.2425 25.7142 74.1514 31.5514 75.8959C37.126 77.566 42.1909 75.9331 46.8919 73.1313Z" fill="black"/>
<path d="M23.4765 53.1818C24.8327 50.7186 26.8926 48.7147 29.3972 47.422C31.9019 46.1293 34.7395 45.6054 37.5536 45.9161C40.3676 46.2269 43.0325 47.3584 45.2135 49.1686C47.3944 50.9787 48.994 53.3867 49.8113 56.0899C50.6285 58.7931 50.627 61.671 49.8069 64.3619C48.9868 67.0527 47.3847 69.4365 45.2019 71.2137C43.0191 72.9909 40.353 74.0822 37.5387 74.3505C34.7243 74.6187 31.8872 74.052 29.384 72.7215C27.6946 71.8323 26.1983 70.617 24.9832 69.1469C23.768 67.6769 22.8585 65.9818 22.3081 64.1613C21.7577 62.3409 21.5776 60.4318 21.7782 58.5462C21.9788 56.6607 22.5562 54.8368 23.4765 53.1818Z" fill="black"/>
<path d="M10.7694 70.5923C7.63721 70.167 7.95389 68.4157 7.89981 67.0179C7.72102 62.0545 8.83556 57.3143 10.7176 52.7748C14.1021 44.4685 19.3101 37.5841 27.0556 32.8481C28.4422 31.9955 30.0416 30.4282 32.199 32.5995C29.6008 35.618 25.7476 36.7878 23.1538 39.5388C20.4849 42.3621 17.988 45.2627 16.0231 48.6468C14.2095 51.8639 12.8124 55.2989 11.8649 58.8704C10.8144 62.5951 10.9853 66.4849 10.7694 70.5923Z" fill="black"/>
</g>
<g clip-path="url(#clip2_26_144)">
<path d="M52.4334 129.148C57.5736 129.189 59.4596 130.993 58.4736 135.001C57.2905 139.745 55.6689 144.384 54.1916 149.062C53.9726 149.702 53.6322 150.295 53.1891 150.809C48.3496 156.523 37.4994 158.688 30.7862 155.306C20.3406 150.079 12.3727 136.038 13.1492 124.431C13.4947 119.41 15.5498 115.474 19.8321 112.528C27.6491 107.149 27.5876 107.053 37.1328 109.152C39.6078 109.695 42.1363 110.12 44.5258 110.901C48.5042 112.229 49.143 114.539 46.7519 119.077C40.8225 115.783 34.6603 113.962 28.0889 117.63C23.9983 119.898 21.2785 123.154 19.9986 127.596C17.3581 136.725 22.4895 145.786 31.641 147.925C37.4657 149.296 42.7279 147.999 47.1573 143.816C51.391 139.823 52.5093 134.62 52.4334 129.148Z" fill="black"/>
<path d="M23.4485 139.452C21.9934 137.046 21.288 134.26 21.4208 131.444C21.5535 128.629 22.5186 125.91 24.1948 123.628C25.8709 121.346 28.1833 119.604 30.8414 118.62C33.4995 117.637 36.3847 117.455 39.1344 118.099C41.8841 118.743 44.3757 120.183 46.296 122.239C48.2163 124.295 49.4796 126.874 49.9273 129.653C50.375 132.432 49.9871 135.287 48.8122 137.858C47.6374 140.429 45.728 142.603 43.3241 144.106C41.7094 145.124 39.9087 145.812 38.0281 146.13C36.1474 146.447 34.2247 146.387 32.3729 145.953C30.5211 145.52 28.7777 144.721 27.2451 143.605C25.7125 142.488 24.4217 141.076 23.4485 139.452Z" fill="black"/>
<path d="M32.1733 159.162C30.2389 161.662 28.8805 160.512 27.6429 159.86C23.2551 157.533 19.7073 154.198 16.7169 150.298C11.2157 143.214 7.8577 135.261 7.62887 126.186C7.58387 124.558 7.02619 122.39 9.98537 121.607C11.3003 125.366 10.3868 129.288 11.4723 132.91C12.5829 136.633 13.8465 140.246 15.7947 143.639C17.6741 146.818 19.9503 149.746 22.5696 152.352C25.27 155.124 28.7241 156.921 32.1733 159.162Z" fill="black"/>
</g>
<g clip-path="url(#clip3_26_144)">
<path d="M90.6089 150.518C88.0033 146.087 85.4979 145.355 82.5201 148.213C79.003 151.61 75.7961 155.334 72.4843 158.952C72.0393 159.462 71.6959 160.053 71.4726 160.694C68.9433 167.742 72.4938 178.221 78.7787 182.344C88.5282 188.777 104.672 188.656 114.336 182.18C118.512 179.371 120.893 175.623 121.303 170.441C122.053 160.982 122.167 160.987 115.577 153.77C113.868 151.899 112.236 149.921 110.366 148.242C107.226 145.461 104.906 146.063 102.172 150.402C107.989 153.891 112.647 158.317 112.756 165.842C112.838 170.518 111.377 174.502 108.17 177.831C101.585 184.682 91.172 184.769 84.7439 177.913C80.6446 173.554 79.1366 168.348 80.5444 162.421C81.8854 156.758 85.832 153.188 90.6089 150.518Z" fill="black"/>
<path d="M96.1784 180.771C98.9897 180.828 101.755 180.046 104.127 178.523C106.499 177.001 108.371 174.805 109.509 172.213C110.647 169.62 111 166.747 110.522 163.953C110.045 161.159 108.76 158.57 106.827 156.51C104.895 154.451 102.402 153.013 99.6614 152.378C96.9209 151.743 94.0554 151.938 91.4249 152.94C88.7945 153.942 86.5163 155.705 84.8768 158.008C83.2373 160.312 82.3096 163.052 82.2103 165.885C82.1356 167.793 82.44 169.696 83.1055 171.484C83.771 173.271 84.7842 174.906 86.0856 176.293C87.387 177.68 88.9502 178.791 90.6835 179.56C92.4167 180.329 94.285 180.74 96.1784 180.771Z" fill="black"/>
<path d="M74.7465 183.071C73.5487 185.996 75.2238 186.597 76.4073 187.343C80.6163 189.979 85.2787 191.384 90.1511 192.024C99.0368 193.246 107.603 192.178 115.577 187.838C117.009 187.064 119.166 186.462 118.364 183.508C114.451 184.249 111.511 187.001 107.832 187.872C104.052 188.772 100.292 189.484 96.3787 189.494C92.6859 189.456 89.0125 188.948 85.4457 187.983C81.6948 187.03 78.4116 184.937 74.7465 183.071Z" fill="black"/>
</g>
<g clip-path="url(#clip4_26_144)">
<path d="M141.006 128.148C135.866 128.189 133.98 129.993 134.966 134.001C136.149 138.745 137.771 143.384 139.248 148.062C139.467 148.702 139.807 149.295 140.25 149.809C145.09 155.523 155.94 157.688 162.653 154.306C173.099 149.079 181.067 135.038 180.29 123.431C179.945 118.41 177.89 114.474 173.607 111.528C165.79 106.149 165.852 106.053 156.307 108.152C153.832 108.695 151.303 109.12 148.914 109.901C144.935 111.229 144.296 113.539 146.688 118.077C152.617 114.783 158.779 112.962 165.351 116.63C169.441 118.898 172.161 122.154 173.441 126.596C176.081 135.725 170.95 144.786 161.798 146.925C155.974 148.296 150.712 146.999 146.282 142.816C142.048 138.823 140.93 133.62 141.006 128.148Z" fill="black"/>
<path d="M169.991 138.452C171.446 136.046 172.151 133.26 172.019 130.444C171.886 127.629 170.921 124.91 169.245 122.628C167.569 120.346 165.256 118.604 162.598 117.62C159.94 116.637 157.055 116.455 154.305 117.099C151.555 117.743 149.064 119.183 147.143 121.239C145.223 123.295 143.96 125.874 143.512 128.653C143.064 131.432 143.452 134.287 144.627 136.858C145.802 139.429 147.711 141.603 150.115 143.106C151.73 144.124 153.531 144.812 155.411 145.13C157.292 145.447 159.215 145.387 161.067 144.953C162.918 144.52 164.662 143.721 166.194 142.605C167.727 141.488 169.018 140.076 169.991 138.452Z" fill="black"/>
<path d="M161.266 158.162C163.201 160.662 164.559 159.512 165.797 158.86C170.184 156.533 173.732 153.198 176.723 149.298C182.224 142.214 185.582 134.261 185.811 125.186C185.856 123.558 186.413 121.39 183.454 120.607C182.139 124.366 183.053 128.288 181.967 131.91C180.857 135.633 179.593 139.246 177.645 142.639C175.765 145.818 173.489 148.746 170.87 151.352C168.169 154.124 164.715 155.921 161.266 158.162Z" fill="black"/>
</g>
<g clip-path="url(#clip5_26_144)">
<path d="M145.413 74.8779C142.878 79.35 143.498 81.8853 147.461 83.0353C152.162 84.3828 156.99 85.2981 161.779 86.3572C162.443 86.4877 163.127 86.4895 163.793 86.3626C171.162 85.0287 178.462 76.7145 178.89 69.21C179.586 57.5504 171.41 43.6293 160.97 38.4983C156.449 36.2869 152.012 36.0986 147.32 38.3341C138.753 42.4146 138.7 42.313 135.746 51.6289C134.979 54.0442 134.082 56.4463 133.564 58.9059C132.725 63.0157 134.406 64.7236 139.531 64.9218C139.644 58.1399 141.148 51.8931 147.61 48.0357C151.619 45.6272 155.799 44.9 160.286 46.0125C169.512 48.2902 174.794 57.2647 172.07 66.2596C170.345 71.9891 166.59 75.898 160.753 77.6425C155.179 79.3126 150.114 77.6797 145.413 74.8779Z" fill="black"/>
<path d="M168.828 54.9284C167.472 52.4652 165.412 50.4613 162.907 49.1686C160.403 47.8758 157.565 47.3519 154.751 47.6627C151.937 47.9735 149.272 49.105 147.091 50.9151C144.91 52.7253 143.311 55.1333 142.493 57.8365C141.676 60.5397 141.678 63.4176 142.498 66.1085C143.318 68.7993 144.92 71.1831 147.103 72.9603C149.286 74.7375 151.952 75.8288 154.766 76.0971C157.58 76.3653 160.417 75.7986 162.921 74.468C164.61 73.5789 166.106 72.3635 167.322 70.8935C168.537 69.4235 169.446 67.7284 169.997 65.9079C170.547 64.0875 170.727 62.1784 170.526 60.2928C170.326 58.4073 169.748 56.5834 168.828 54.9284Z" fill="black"/>
<path d="M181.535 72.3389C184.667 71.9136 184.351 70.1623 184.405 68.7645C184.584 63.8011 183.469 59.0609 181.587 54.5213C178.203 46.215 172.995 39.3307 165.249 34.5946C163.862 33.7421 162.263 32.1748 160.106 34.3461C162.704 37.3646 166.557 38.5344 169.151 41.2853C171.82 44.1087 174.317 47.0093 176.282 50.3934C178.095 53.6105 179.492 57.0455 180.44 60.617C181.49 64.3417 181.319 68.2315 181.535 72.3389Z" fill="black"/>
</g>
<defs>
<clipPath id="clip0_26_144">
<rect width="51" height="46" fill="white" transform="translate(70.6523)"/>
</clipPath>
<clipPath id="clip1_26_144">
<rect width="51" height="46" fill="white" transform="translate(0.550781 69.4209) rotate(-60)"/>
</clipPath>
<clipPath id="clip2_26_144">
<rect width="51" height="46" fill="white" transform="translate(26.0508 167.425) rotate(-120)"/>
</clipPath>
<clipPath id="clip3_26_144">
<rect width="51" height="46" fill="white" transform="matrix(1 0 0 -1 70.6523 192.505)"/>
</clipPath>
<clipPath id="clip4_26_144">
<rect width="51" height="46" fill="white" transform="matrix(0.5 -0.866025 -0.866025 -0.5 167.389 166.425)"/>
</clipPath>
<clipPath id="clip5_26_144">
<rect width="51" height="46" fill="white" transform="matrix(-0.5 -0.866025 -0.866025 0.5 191.754 71.1675)"/>
</clipPath>
</defs>
</svg>
