<svg width="139" height="140" viewBox="0 0 139 140" fill="none" xmlns="http://www.w3.org/2000/svg">
<circle cx="69.3252" cy="70.1539" r="54.04" fill="#E4E4E4"/>
<path d="M81.9062 8.75647L56.7452 8.75647L56.7452 5.87402C56.7452 3.1126 58.9838 0.874021 61.7452 0.874022L76.9063 0.874023C79.6677 0.874023 81.9063 3.1126 81.9063 5.87402L81.9062 8.75647Z" fill="#E4E4E4"/>
<path d="M56.7441 131.551L81.9052 131.551L81.9052 134.434C81.9052 137.195 79.6666 139.434 76.9052 139.434L61.7441 139.434C58.9827 139.434 56.7441 137.195 56.7441 134.434L56.7441 131.551Z" fill="#E4E4E4"/>
<path d="M35.5527 17.7572L17.2427 35.0146L15.2657 32.917C13.3717 30.9075 13.4653 27.7431 15.4749 25.849L26.5078 15.4504C28.5173 13.5564 31.6817 13.6501 33.5757 15.6596L35.5527 17.7572Z" fill="#E4E4E4"/>
<path d="M103.723 122.639L121.514 104.847L123.552 106.886C125.505 108.838 125.505 112.004 123.552 113.957L112.832 124.677C110.879 126.63 107.713 126.63 105.761 124.677L103.723 122.639Z" fill="#E4E4E4"/>
<path d="M121.41 35.3129L103.546 17.5943L105.576 15.5478C107.52 13.5872 110.686 13.5742 112.647 15.5188L123.411 26.1953C125.372 28.14 125.385 31.3058 123.44 33.2663L121.41 35.3129Z" fill="#E4E4E4"/>
<path d="M17.1016 104.822L34.8931 122.614L32.8549 124.652C30.9023 126.605 27.7364 126.605 25.7838 124.652L15.0634 113.932C13.1107 111.979 13.1107 108.813 15.0634 106.861L17.1016 104.822Z" fill="#E4E4E4"/>
<path d="M130.723 82.7343L130.723 57.5732L133.605 57.5732C136.367 57.5732 138.605 59.8118 138.605 62.5732L138.605 77.7343C138.605 80.4957 136.367 82.7343 133.605 82.7343L130.723 82.7343Z" fill="#E4E4E4"/>
<path d="M7.92773 82.7343L7.92774 57.5732L5.04529 57.5732C2.28387 57.5732 0.0452891 59.8118 0.045289 62.5732L0.0452883 77.7343C0.0452882 80.4957 2.28386 82.7343 5.04529 82.7343L7.92773 82.7343Z" fill="#E4E4E4"/>
</svg>
