<svg width="217" height="217" viewBox="0 0 217 217" fill="none" xmlns="http://www.w3.org/2000/svg">
<circle cx="108.201" cy="108.758" r="58.1465" fill="white" stroke="black" stroke-width="2"/>
<g clip-path="url(#clip0_26_262)">
<path d="M103.349 42.9084C100.744 47.3395 98.2382 48.0708 95.2603 45.213C91.7433 41.8163 88.5364 38.0924 85.2245 34.4743C84.7796 33.9646 84.4361 33.3733 84.2128 32.7327C81.6836 25.6843 85.234 15.2054 91.519 11.0822C101.268 4.64964 117.413 4.76992 127.076 11.2458C131.252 14.0556 133.633 17.8035 134.044 22.9852C134.793 32.444 134.907 32.4392 128.317 39.656C126.609 41.5276 124.977 43.505 123.106 45.1841C119.966 47.965 117.647 47.3636 114.912 43.0239C120.729 39.5357 125.387 35.1094 125.497 27.5847C125.578 22.9082 124.118 18.9245 120.911 15.5951C114.325 8.74398 103.912 8.65738 97.4842 15.5134C93.3849 19.8723 91.8769 25.078 93.2847 31.0055C94.6256 36.6683 98.5722 40.2382 103.349 42.9084Z" fill="black"/>
<path d="M108.919 12.6553C111.73 12.5982 114.495 13.3802 116.867 14.9029C119.239 16.4256 121.111 18.6211 122.249 21.2135C123.387 23.806 123.74 26.6796 123.263 29.4734C122.785 32.2672 121.5 34.8565 119.567 36.9159C117.635 38.9753 115.142 40.4129 112.402 41.0481C109.661 41.6833 106.796 41.4878 104.165 40.486C101.535 39.4843 99.2566 37.721 97.6171 35.4178C95.9776 33.1146 95.0498 30.3743 94.9505 27.5411C94.8758 25.6335 95.1802 23.73 95.8457 21.9427C96.5112 20.1553 97.5245 18.5201 98.8258 17.1332C100.127 15.7463 101.69 14.6357 103.424 13.8667C105.157 13.0977 107.025 12.6858 108.919 12.6553Z" fill="black"/>
<path d="M87.4868 10.3557C86.289 7.4305 87.964 6.8291 89.1475 6.08336C93.3565 3.44681 98.0189 2.04194 102.891 1.40205C111.777 0.18 120.343 1.24809 128.317 5.5878C129.749 6.36241 131.906 6.96381 131.104 9.91789C127.191 9.17697 124.251 6.42495 120.572 5.55412C116.793 4.65443 113.032 3.94237 109.119 3.93275C105.426 3.97073 101.753 4.47831 98.186 5.44347C94.435 6.39609 91.1518 8.48896 87.4868 10.3557Z" fill="black"/>
</g>
<g clip-path="url(#clip1_26_262)">
<path d="M102.658 175.012C100.052 170.581 97.5468 169.85 94.5689 172.708C91.0519 176.105 87.845 179.829 84.5331 183.447C84.0882 183.956 83.7447 184.548 83.5214 185.188C80.9922 192.237 84.5426 202.715 90.8276 206.839C100.577 213.271 116.721 213.151 126.385 206.675C130.561 203.865 132.942 200.117 133.352 194.936C134.101 185.477 134.216 185.482 127.626 178.265C125.917 176.393 124.285 174.416 122.414 172.737C119.274 169.956 116.955 170.557 114.221 174.897C120.038 178.385 124.696 182.811 124.805 190.336C124.886 195.013 123.426 198.996 120.219 202.326C113.634 209.177 103.221 209.264 96.7928 202.408C92.6935 198.049 91.1855 192.843 92.5933 186.915C93.9342 181.253 97.8808 177.683 102.658 175.012Z" fill="black"/>
<path d="M108.227 205.266C111.039 205.323 113.804 204.541 116.176 203.018C118.548 201.495 120.42 199.3 121.558 196.707C122.696 194.115 123.048 191.241 122.571 188.447C122.094 185.654 120.808 183.064 118.876 181.005C116.944 178.946 114.451 177.508 111.71 176.873C108.97 176.238 106.104 176.433 103.474 177.435C100.843 178.437 98.5651 180.2 96.9257 182.503C95.2862 184.806 94.3584 187.547 94.2591 190.38C94.1844 192.287 94.4888 194.191 95.1543 195.978C95.8198 197.766 96.8331 199.401 98.1344 200.788C99.4358 202.175 100.999 203.285 102.732 204.054C104.466 204.823 106.334 205.235 108.227 205.266Z" fill="black"/>
<path d="M86.7954 207.565C85.5976 210.49 87.2726 211.092 88.4561 211.838C92.6651 214.474 97.3275 215.879 102.2 216.519C111.086 217.741 119.652 216.673 127.626 212.333C129.058 211.558 131.215 210.957 130.413 208.003C126.5 208.744 123.56 211.496 119.881 212.367C116.101 213.266 112.341 213.979 108.428 213.988C104.735 213.95 101.061 213.443 97.4945 212.477C93.7436 211.525 90.4604 209.432 86.7954 207.565Z" fill="black"/>
</g>
<g clip-path="url(#clip2_26_262)">
<path d="M57.9886 65.3162C59.2795 70.292 58.025 72.5806 53.8986 72.6655C49.0098 72.7506 44.109 72.385 39.2088 72.1685C38.5337 72.1227 37.8727 71.9474 37.2619 71.6524C30.4894 68.4568 25.5904 58.5366 27.1189 51.1769C29.4643 39.7345 40.9651 28.4038 52.3774 26.1498C57.3168 25.184 61.6508 26.1503 65.605 29.5241C72.8232 35.6827 72.9008 35.5984 73.3438 45.3615C73.4592 47.8929 73.7033 50.4452 73.5679 52.9553C73.3139 57.142 71.2487 58.3568 66.2465 57.2217C67.8934 50.6418 68.057 44.2185 62.8138 38.82C59.5644 35.4559 55.7149 33.6716 51.0931 33.585C41.5919 33.3972 34.1677 40.6989 34.4702 50.0922C34.6539 56.0731 37.2685 60.8204 42.4553 64.0162C47.4077 67.0722 52.7227 66.8059 57.9886 65.3162Z" fill="black"/>
<path d="M40.5352 39.986C42.4828 37.9577 44.9912 36.5553 47.745 35.9548C50.4989 35.3544 53.3754 35.5828 56.0132 36.6113C58.6509 37.6398 60.9322 39.4225 62.5703 41.7354C64.2084 44.0484 65.1302 46.7883 65.22 49.6109C65.3098 52.4336 64.5635 55.213 63.0749 57.5999C61.5863 59.9868 59.4218 61.8748 56.8534 63.0265C54.285 64.1781 51.4273 64.5422 48.6394 64.0729C45.8515 63.6036 43.2578 62.3219 41.1842 60.3888C39.7825 59.0927 38.6518 57.5315 37.8585 55.7971C37.0652 54.0626 36.6254 52.1899 36.565 50.289C36.5045 48.3881 36.8246 46.4974 37.5064 44.7281C38.1882 42.9587 39.218 41.3464 40.5352 39.986Z" fill="black"/>
<path d="M23.7535 53.5147C20.838 52.2933 21.5972 50.6836 21.9068 49.3194C23.0187 44.4789 25.3221 40.1887 28.3149 36.2909C33.734 29.1436 40.5463 23.8418 49.2536 21.2718C50.8136 20.8072 52.7641 19.7072 54.2861 22.3629C50.9952 24.606 46.9705 24.7387 43.7531 26.7246C40.4444 28.761 37.2818 30.9165 34.508 33.6768C31.9236 36.3149 29.6851 39.2712 27.8454 42.4758C25.8667 45.8017 25.025 49.6032 23.7535 53.5147Z" fill="black"/>
</g>
<g clip-path="url(#clip3_26_262)">
<path d="M57.4516 151.083C58.8092 146.126 57.5856 143.82 53.4607 143.68C48.5735 143.529 43.6682 143.829 38.7655 143.979C38.0899 144.016 37.4266 144.183 36.8119 144.469C29.9971 147.574 24.9652 157.427 26.3947 164.807C28.5861 176.28 39.9335 187.764 51.3146 190.171C56.2406 191.203 60.5872 190.295 64.5864 186.975C71.8867 180.914 71.9631 180.999 72.5372 171.243C72.6866 168.713 72.9651 166.164 72.8634 163.653C72.6656 159.463 70.6169 158.22 65.5999 159.288C67.1583 165.89 67.2355 172.315 61.9203 177.642C58.626 180.962 54.7529 182.695 50.1303 182.719C40.6274 182.779 33.302 175.378 33.7308 165.99C33.9947 160.012 36.673 155.3 41.9022 152.175C46.8953 149.185 52.2062 149.523 57.4516 151.083Z" fill="black"/>
<path d="M39.6594 176.177C41.5795 178.231 44.0688 179.667 46.8143 180.304C49.5599 180.942 52.4392 180.752 55.0905 179.759C57.7419 178.766 60.0469 177.014 61.7159 174.724C63.3849 172.433 64.3435 169.706 64.4712 166.884C64.599 164.063 63.8901 161.274 62.4337 158.867C60.9773 156.461 58.8383 154.544 56.2857 153.358C53.733 152.172 50.8804 151.769 48.0865 152.201C45.2925 152.633 42.6818 153.879 40.5825 155.784C39.1634 157.062 38.0118 158.607 37.1953 160.331C36.3788 162.055 35.9139 163.921 35.8279 165.821C35.7419 167.721 36.0366 169.616 36.6945 171.394C37.3525 173.173 38.3605 174.799 39.6594 176.177Z" fill="black"/>
<path d="M23.0611 162.424C20.1296 163.606 20.867 165.226 21.1582 166.594C22.205 171.449 24.4505 175.77 27.3907 179.708C32.7132 186.927 39.4537 192.32 48.1257 195.007C49.6793 195.492 51.6149 196.618 53.1724 193.983C49.9119 191.696 45.8894 191.509 42.6989 189.48C39.4179 187.4 36.2846 185.202 33.5481 182.405C30.9994 179.732 28.8008 176.746 27.0044 173.517C25.0706 170.165 24.28 166.352 23.0611 162.424Z" fill="black"/>
</g>
<g clip-path="url(#clip4_26_262)">
<path d="M160.126 67.0519C158.885 72.0403 160.162 74.3163 164.289 74.3597C169.179 74.3957 174.075 73.981 178.973 73.7153C179.648 73.6627 180.307 73.4809 180.915 73.1797C187.655 69.9163 192.454 59.9474 190.852 52.6035C188.392 41.1851 176.778 29.9705 165.343 27.8311C160.395 26.9149 156.07 27.9247 152.15 31.338C144.994 37.5688 144.916 37.4852 144.571 47.2523C144.481 49.7847 144.262 52.3393 144.423 54.8479C144.719 59.0319 146.796 60.2259 151.787 59.0406C150.074 52.4776 149.846 46.0562 155.035 40.6055C158.25 37.2089 162.082 35.386 166.702 35.253C176.201 34.9699 183.698 42.1967 183.49 51.5926C183.366 57.575 180.799 62.3483 175.645 65.5961C170.724 68.7016 165.406 68.4886 160.126 67.0519Z" fill="black"/>
<path d="M177.325 41.5481C175.357 39.5395 172.835 38.1623 170.075 37.5895C167.315 37.0168 164.441 37.274 161.814 38.3289C159.187 39.3839 156.924 41.1894 155.309 43.5186C153.694 45.8479 152.8 48.5969 152.738 51.4203C152.677 54.2437 153.451 57.0155 154.963 59.3874C156.476 61.7592 158.659 63.6253 161.239 64.7512C163.819 65.8771 166.68 66.2124 169.463 65.7152C172.246 65.2179 174.827 63.9102 176.881 61.9564C178.27 60.6463 179.385 59.0739 180.16 57.3315C180.936 55.5892 181.357 53.7122 181.399 51.8108C181.44 49.9094 181.101 48.022 180.401 46.2596C179.702 44.4972 178.656 42.8953 177.325 41.5481Z" fill="black"/>
<path d="M194.241 54.9075C197.144 53.6568 196.368 52.0548 196.045 50.6938C194.885 45.8647 192.538 41.5978 189.506 37.7303C184.016 30.6378 177.151 25.4046 168.418 22.9221C166.853 22.4731 164.892 21.3928 163.397 24.0637C166.71 26.2737 170.736 26.3659 173.973 28.3195C177.302 30.3225 180.486 32.4462 183.287 35.1784C185.898 37.7905 188.166 40.7242 190.038 43.9102C192.05 47.216 192.93 51.0089 194.241 54.9075Z" fill="black"/>
</g>
<g clip-path="url(#clip5_26_262)">
<path d="M158.014 150.71C156.773 145.721 158.051 143.445 162.178 143.402C167.067 143.366 171.964 143.781 176.862 144.046C177.536 144.099 178.196 144.281 178.804 144.582C185.544 147.845 190.343 157.814 188.74 165.158C186.28 176.577 174.666 187.791 163.232 189.931C158.283 190.847 153.959 189.837 150.039 186.424C142.883 180.193 142.804 180.277 142.46 170.509C142.37 167.977 142.151 165.422 142.312 162.914C142.608 158.73 144.685 157.536 149.676 158.721C147.963 165.284 147.735 171.705 152.923 177.156C156.139 180.553 159.97 182.376 164.591 182.509C174.09 182.792 181.587 175.565 181.379 166.169C181.255 160.187 178.688 155.413 173.534 152.166C168.612 149.06 163.295 149.273 158.014 150.71Z" fill="black"/>
<path d="M175.214 176.214C173.246 178.222 170.724 179.599 167.964 180.172C165.204 180.745 162.33 180.488 159.703 179.433C157.075 178.378 154.812 176.572 153.197 174.243C151.583 171.914 150.688 169.165 150.627 166.341C150.565 163.518 151.34 160.746 152.852 158.374C154.364 156.002 156.548 154.136 159.128 153.011C161.707 151.885 164.569 151.549 167.352 152.047C170.135 152.544 172.715 153.851 174.77 155.805C176.158 157.115 177.273 158.688 178.049 160.43C178.825 162.173 179.246 164.05 179.287 165.951C179.329 167.852 178.99 169.74 178.29 171.502C177.59 173.265 176.545 174.866 175.214 176.214Z" fill="black"/>
<path d="M192.129 162.854C195.032 164.105 194.257 165.707 193.934 167.068C192.773 171.897 190.427 176.164 187.395 180.031C181.905 187.124 175.039 192.357 166.307 194.84C164.742 195.289 162.781 196.369 161.285 193.698C164.599 191.488 168.624 191.396 171.862 189.442C175.191 187.439 178.375 185.316 181.176 182.583C183.787 179.971 186.055 177.038 187.927 173.852C189.939 170.546 190.818 166.753 192.129 162.854Z" fill="black"/>
</g>
<g clip-path="url(#clip6_26_262)">
<path d="M173.785 102.164C169.318 99.6212 168.551 97.1264 171.367 94.1086C174.714 90.544 178.392 87.2849 181.963 83.9224C182.466 83.4703 183.053 83.1185 183.69 82.8862C190.702 80.2579 201.23 83.6603 205.441 89.8865C212.011 99.5444 212.118 115.689 205.779 125.443C203.028 129.657 199.314 132.091 194.139 132.575C184.692 133.457 184.698 133.572 177.389 127.084C175.494 125.402 173.494 123.798 171.788 121.951C168.963 118.85 169.532 116.523 173.833 113.727C177.403 119.495 181.894 124.09 189.42 124.093C194.097 124.109 198.059 122.592 201.343 119.339C208.101 112.657 208.041 102.244 201.095 95.9136C196.679 91.8761 191.452 90.4416 185.545 91.9328C179.902 93.3535 176.388 97.35 173.785 102.164Z" fill="black"/>
<path d="M204.114 107.306C204.211 110.116 203.468 112.892 201.979 115.285C200.49 117.678 198.321 119.582 195.744 120.756C193.168 121.93 190.3 122.323 187.5 121.886C184.699 121.448 182.092 120.199 180.006 118.296C177.919 116.392 176.447 113.92 175.773 111.189C175.099 108.458 175.254 105.59 176.219 102.945C177.184 100.301 178.915 97.9981 181.194 96.3263C183.474 94.6545 186.201 93.6883 189.033 93.549C190.939 93.4475 192.847 93.725 194.643 94.3652C196.44 95.0055 198.089 95.9956 199.494 97.2773C200.899 98.559 202.032 100.106 202.825 101.829C203.619 103.551 204.057 105.413 204.114 107.306Z" fill="black"/>
<path d="M206.112 85.8442C209.021 84.6053 209.645 86.2717 210.408 87.4445C213.103 91.616 214.574 96.2581 215.282 101.121C216.63 109.989 215.682 118.569 211.455 126.603C210.701 128.046 210.13 130.211 207.165 129.451C207.851 125.528 210.561 122.55 211.38 118.859C212.226 115.067 212.885 111.297 212.84 107.384C212.75 103.692 212.19 100.026 211.175 96.4731C210.17 92.736 208.031 89.4825 206.112 85.8442Z" fill="black"/>
</g>
<g clip-path="url(#clip7_26_262)">
<path d="M42.4218 102.164C46.8892 99.6212 47.6558 97.1264 44.8402 94.1086C41.4933 90.544 37.815 87.2849 34.244 83.9224C33.7406 83.4703 33.1542 83.1185 32.5168 82.8862C25.5047 80.2579 14.9769 83.6603 10.7655 89.8865C4.19617 99.5444 4.0889 115.689 10.4279 125.443C13.1786 129.657 16.8926 132.091 22.0679 132.575C31.5153 133.457 31.5089 133.572 38.8178 127.084C40.7133 125.402 42.7135 123.798 44.4188 121.951C47.2437 118.85 46.675 116.523 42.3743 113.727C38.8045 119.495 34.313 124.09 26.7875 124.093C22.1103 124.109 18.1476 122.592 14.8638 119.339C8.10608 112.657 8.16625 102.244 15.1121 95.9136C19.5284 91.8761 24.7549 90.4416 30.6619 91.9328C36.3052 93.3535 39.8192 97.35 42.4218 102.164Z" fill="black"/>
<path d="M12.093 107.306C11.9963 110.116 12.7393 112.892 14.2284 115.285C15.7175 117.678 17.8864 119.582 20.4625 120.756C23.0387 121.93 25.9071 122.323 28.7073 121.886C31.5076 121.448 34.1147 120.199 36.2012 118.296C38.2876 116.392 39.7602 113.92 40.434 111.189C41.1077 108.458 40.9526 105.59 39.988 102.945C39.0234 100.301 37.2924 97.9981 35.0126 96.3263C32.7327 94.6545 30.0057 93.6883 27.1743 93.549C25.2679 93.4475 23.3603 93.725 21.5637 94.3652C19.7672 95.0055 18.1178 95.9956 16.7128 97.2773C15.3077 98.559 14.1752 100.106 13.3818 101.829C12.5884 103.551 12.1503 105.413 12.093 107.306Z" fill="black"/>
<path d="M10.0946 85.8442C7.18652 84.6053 6.56157 86.2717 5.79923 87.4445C3.10362 91.616 1.63318 96.2581 0.924677 101.121C-0.422487 109.989 0.524764 118.569 4.75166 126.603C5.50601 128.046 6.07695 130.211 9.04204 129.451C8.35634 125.528 5.64603 122.55 4.82714 118.859C3.98081 115.067 3.32182 111.297 3.36735 107.384C3.45738 103.692 4.01668 100.026 5.03201 96.4731C6.0374 92.736 8.17635 89.4825 10.0946 85.8442Z" fill="black"/>
</g>
<defs>
<clipPath id="clip0_26_262">
<rect width="51" height="46" fill="white" transform="translate(83.3926 0.920898)"/>
</clipPath>
<clipPath id="clip1_26_262">
<rect width="51" height="46" fill="white" transform="matrix(1 0 0 -1 82.7012 217)"/>
</clipPath>
<clipPath id="clip2_26_262">
<rect width="51" height="46" fill="white" transform="translate(14.1875 49.7388) rotate(-45)"/>
</clipPath>
<clipPath id="clip3_26_262">
<rect width="51" height="46" fill="white" transform="matrix(0.697541 0.716545 0.716545 -0.697541 13.4805 165.676)"/>
</clipPath>
<clipPath id="clip4_26_262">
<rect width="51" height="46" fill="white" transform="matrix(-0.714168 -0.699974 -0.699974 0.714168 203.77 51.0352)"/>
</clipPath>
<clipPath id="clip5_26_262">
<rect width="51" height="46" fill="white" transform="translate(201.658 166.727) rotate(135.575)"/>
</clipPath>
<clipPath id="clip6_26_262">
<rect width="51" height="46" fill="white" transform="translate(215.488 81.6172) rotate(89.1924)"/>
</clipPath>
<clipPath id="clip7_26_262">
<rect width="51" height="46" fill="white" transform="matrix(-0.0140942 0.999901 0.999901 0.0140942 0.71875 81.6172)"/>
</clipPath>
</defs>
</svg>
