<svg width="160" height="161" viewBox="0 0 160 161" fill="none" xmlns="http://www.w3.org/2000/svg">
<g clip-path="url(#clip0_26_570)">
<path d="M52.2884 44.5809C57.2641 45.8717 59.5528 44.6173 59.6376 40.4908C59.7227 35.602 59.3572 30.7013 59.1407 25.8011C59.0949 25.126 58.9196 24.465 58.6245 23.8542C55.429 17.0817 45.5088 12.1826 38.1491 13.7112C26.7066 16.0566 15.376 27.5573 13.122 38.9697C12.1561 43.9091 13.1225 48.2431 16.4963 52.1973C22.6549 59.4155 22.5705 59.4931 32.3337 59.9361C34.8651 60.0514 37.4174 60.2956 39.9275 60.1602C44.1142 59.9062 45.3289 57.841 44.1938 52.8388C37.6139 54.4857 31.1906 54.6493 25.7922 49.4061C22.4281 46.1567 20.6438 42.3072 20.5572 37.6854C20.3693 28.1842 27.6711 20.76 37.0644 21.0625C43.0452 21.2461 47.7926 23.8608 50.9884 29.0476C54.0444 34 53.7781 39.315 52.2884 44.5809Z" fill="black"/>
<path d="M26.9591 27.127C24.9309 29.0746 23.5284 31.5829 22.928 34.3368C22.3276 37.0907 22.5559 39.9672 23.5844 42.605C24.6129 45.2427 26.3957 47.524 28.7086 49.1621C31.0215 50.8002 33.7614 51.722 36.5841 51.8118C39.4067 51.9016 42.1861 51.1553 44.5731 49.6667C46.96 48.1781 48.8479 46.0136 49.9996 43.4452C51.1513 40.8768 51.5154 38.0191 51.0461 35.2312C50.5768 32.4433 49.295 29.8496 47.362 27.776C46.0658 26.3743 44.5047 25.2436 42.7702 24.4503C41.0358 23.657 39.163 23.2172 37.2622 23.1568C35.3613 23.0963 33.4706 23.4164 31.7012 24.0982C29.9319 24.78 28.3196 25.8098 26.9591 27.127Z" fill="black"/>
<path d="M40.4884 10.3457C39.2669 7.43033 37.6572 8.1895 36.2931 8.49904C31.4525 9.61096 27.1623 11.9144 23.2645 14.9072C16.1172 20.3262 10.8154 27.1386 8.2454 35.8459C7.7808 37.4059 6.68081 39.3564 9.33657 40.8784C11.5797 37.5874 11.7124 33.5628 13.6983 30.3454C15.7346 27.0367 17.8902 23.8741 20.6504 21.1003C23.2885 18.5159 26.2448 16.2774 29.4494 14.4377C32.7753 12.459 36.5768 11.6173 40.4884 10.3457Z" fill="black"/>
</g>
<g clip-path="url(#clip1_26_570)">
<path d="M52.2884 116.566C57.2641 115.275 59.5528 116.53 59.6376 120.656C59.7227 125.545 59.3572 130.446 59.1407 135.346C59.0949 136.021 58.9196 136.682 58.6245 137.293C55.429 144.065 45.5088 148.964 38.1491 147.436C26.7066 145.09 15.376 133.59 13.122 122.177C12.1561 117.238 13.1225 112.904 16.4963 108.95C22.6549 101.731 22.5705 101.654 32.3337 101.211C34.8651 101.096 37.4174 100.851 39.9275 100.987C44.1142 101.241 45.3289 103.306 44.1938 108.308C37.6139 106.661 31.1906 106.498 25.7922 111.741C22.4281 114.99 20.6438 118.84 20.5572 123.462C20.3693 132.963 27.6711 140.387 37.0644 140.084C43.0452 139.901 47.7926 137.286 50.9884 132.099C54.0444 127.147 53.7781 121.832 52.2884 116.566Z" fill="black"/>
<path d="M26.9591 134.02C24.9309 132.072 23.5284 129.564 22.928 126.81C22.3276 124.056 22.5559 121.18 23.5844 118.542C24.6129 115.904 26.3957 113.623 28.7086 111.985C31.0215 110.347 33.7614 109.425 36.5841 109.335C39.4067 109.245 42.1861 109.992 44.5731 111.48C46.96 112.969 48.8479 115.133 49.9996 117.702C51.1513 120.27 51.5154 123.128 51.0461 125.916C50.5768 128.704 49.295 131.297 47.362 133.371C46.0658 134.773 44.5047 135.903 42.7702 136.697C41.0358 137.49 39.163 137.93 37.2622 137.99C35.3613 138.051 33.4706 137.731 31.7012 137.049C29.9319 136.367 28.3196 135.337 26.9591 134.02Z" fill="black"/>
<path d="M40.4884 150.801C39.2669 153.717 37.6572 152.957 36.2931 152.648C31.4525 151.536 27.1623 149.233 23.2645 146.24C16.1172 140.821 10.8154 134.008 8.2454 125.301C7.7808 123.741 6.68081 121.791 9.33657 120.269C11.5797 123.56 11.7124 127.584 13.6983 130.802C15.7346 134.11 17.8902 137.273 20.6504 140.047C23.2885 142.631 26.2448 144.87 29.4494 146.709C32.7753 148.688 36.5768 149.53 40.4884 150.801Z" fill="black"/>
</g>
<g clip-path="url(#clip2_26_570)">
<path d="M107.598 44.5809C102.623 45.8717 100.334 44.6173 100.249 40.4908C100.164 35.602 100.53 30.7013 100.746 25.8011C100.792 25.126 100.967 24.465 101.262 23.8542C104.458 17.0817 114.378 12.1826 121.738 13.7112C133.18 16.0566 144.511 27.5573 146.765 38.9697C147.731 43.9091 146.764 48.2431 143.39 52.1973C137.232 59.4155 137.316 59.4931 127.553 59.9361C125.022 60.0514 122.469 60.2956 119.959 60.1602C115.772 59.9062 114.558 57.841 115.693 52.8388C122.273 54.4857 128.696 54.6493 134.095 49.4061C137.459 46.1567 139.243 42.3072 139.33 37.6854C139.517 28.1842 132.216 20.76 122.822 21.0625C116.841 21.2461 112.094 23.8608 108.898 29.0476C105.842 34 106.109 39.315 107.598 44.5809Z" fill="black"/>
<path d="M132.928 27.127C134.956 29.0746 136.358 31.5829 136.959 34.3368C137.559 37.0907 137.331 39.9672 136.302 42.605C135.274 45.2427 133.491 47.524 131.178 49.1621C128.865 50.8002 126.125 51.722 123.303 51.8118C120.48 51.9016 117.701 51.1553 115.314 49.6667C112.927 48.1781 111.039 46.0136 109.887 43.4452C108.735 40.8768 108.371 38.0191 108.841 35.2312C109.31 32.4433 110.592 29.8496 112.525 27.776C113.821 26.3743 115.382 25.2436 117.117 24.4503C118.851 23.657 120.724 23.2172 122.625 23.1568C124.525 23.0963 126.416 23.4164 128.185 24.0982C129.955 24.78 131.567 25.8098 132.928 27.127Z" fill="black"/>
<path d="M119.398 10.3457C120.62 7.43033 122.229 8.1895 123.594 8.49904C128.434 9.61096 132.724 11.9144 136.622 14.9072C143.769 20.3262 149.071 27.1386 151.641 35.8459C152.106 37.4059 153.206 39.3564 150.55 40.8784C148.307 37.5874 148.174 33.5628 146.188 30.3454C144.152 27.0367 141.997 23.8741 139.236 21.1003C136.598 18.5159 133.642 16.2774 130.437 14.4377C127.111 12.459 123.31 11.6173 119.398 10.3457Z" fill="black"/>
</g>
<g clip-path="url(#clip3_26_570)">
<path d="M107.598 116.566C102.623 115.275 100.334 116.53 100.249 120.656C100.164 125.545 100.53 130.446 100.746 135.346C100.792 136.021 100.967 136.682 101.262 137.293C104.458 144.065 114.378 148.964 121.738 147.436C133.18 145.09 144.511 133.59 146.765 122.177C147.731 117.238 146.764 112.904 143.39 108.95C137.232 101.731 137.316 101.654 127.553 101.211C125.022 101.096 122.469 100.851 119.959 100.987C115.772 101.241 114.558 103.306 115.693 108.308C122.273 106.661 128.696 106.498 134.095 111.741C137.459 114.99 139.243 118.84 139.33 123.462C139.517 132.963 132.216 140.387 122.822 140.084C116.841 139.901 112.094 137.286 108.898 132.099C105.842 127.147 106.109 121.832 107.598 116.566Z" fill="black"/>
<path d="M132.928 134.02C134.956 132.072 136.358 129.564 136.959 126.81C137.559 124.056 137.331 121.18 136.302 118.542C135.274 115.904 133.491 113.623 131.178 111.985C128.865 110.347 126.125 109.425 123.303 109.335C120.48 109.245 117.701 109.992 115.314 111.48C112.927 112.969 111.039 115.133 109.887 117.702C108.735 120.27 108.371 123.128 108.841 125.916C109.31 128.704 110.592 131.297 112.525 133.371C113.821 134.773 115.382 135.903 117.117 136.697C118.851 137.49 120.724 137.93 122.625 137.99C124.525 138.051 126.416 137.731 128.185 137.049C129.955 136.367 131.567 135.337 132.928 134.02Z" fill="black"/>
<path d="M119.398 150.801C120.62 153.717 122.229 152.957 123.594 152.648C128.434 151.536 132.724 149.233 136.622 146.24C143.769 140.821 149.071 134.008 151.641 125.301C152.106 123.741 153.206 121.791 150.55 120.269C148.307 123.56 148.174 127.584 146.188 130.802C144.152 134.11 141.997 137.273 139.236 140.047C136.598 142.631 133.642 144.87 130.437 146.709C127.111 148.688 123.31 149.53 119.398 150.801Z" fill="black"/>
</g>
<rect x="31.2306" y="80.9258" width="68.873" height="68.3713" rx="3" transform="rotate(-45 31.2306 80.9258)" fill="white" stroke="black" stroke-width="2"/>
<defs>
<clipPath id="clip0_26_570">
<rect width="51" height="46" fill="white" transform="matrix(-0.707107 0.707107 0.707107 0.707107 36.7109 0.778809)"/>
</clipPath>
<clipPath id="clip1_26_570">
<rect width="51" height="46" fill="white" transform="translate(36.7109 160.368) rotate(-135)"/>
</clipPath>
<clipPath id="clip2_26_570">
<rect width="51" height="46" fill="white" transform="translate(123.176 0.778809) rotate(45)"/>
</clipPath>
<clipPath id="clip3_26_570">
<rect width="51" height="46" fill="white" transform="matrix(0.707107 -0.707107 -0.707107 -0.707107 123.176 160.368)"/>
</clipPath>
</defs>
</svg>
