<svg width="90" height="89" viewBox="0 0 90 89" fill="none" xmlns="http://www.w3.org/2000/svg">
<path d="M60.8809 8.07495L28.9238 8.07495L28.9238 5.1925C28.9238 2.43108 31.1624 0.192502 33.9238 0.192503L55.8809 0.192504C58.6423 0.192505 60.8809 2.43108 60.8809 5.1925L60.8809 8.07495Z" fill="#E4E4E4"/>
<path d="M27.9365 80.6392H59.8936V83.5216C59.8936 86.283 57.655 88.5216 54.8936 88.5216H32.9365C30.1751 88.5216 27.9365 86.283 27.9365 83.5216V80.6392Z" fill="#E4E4E4"/>
<path d="M81.1846 60.3356L81.1846 28.3785L84.067 28.3785C86.8284 28.3785 89.067 30.6171 89.067 33.3785L89.067 55.3356C89.067 58.097 86.8284 60.3356 84.067 60.3356L81.1846 60.3356Z" fill="#E4E4E4"/>
<path d="M8.62012 28.3785L8.62012 60.3356L5.73767 60.3356C2.97625 60.3356 0.73767 58.097 0.73767 55.3356L0.737671 33.3785C0.737671 30.6171 2.97625 28.3785 5.73767 28.3785L8.62012 28.3785Z" fill="#E4E4E4"/>
<rect x="12.6201" y="12.0747" width="64.5647" height="64.5647" rx="5" fill="#E4E4E4"/>
</svg>
